<svg width="400" height="225" viewBox="0 0 400 225" fill="none" xmlns="http://www.w3.org/2000/svg">
<path d="M137.401 200.03V53.1779C137.401 52.9353 137.158 52.6928 136.915 52.6928H124.972C124.486 52.6928 124 52.2076 124 51.7224L126.925 28.375C126.925 27.6472 127.411 27.4047 127.897 27.4047H166.626C167.112 27.4047 167.599 27.8898 167.599 28.375V200.03C167.599 200.515 167.112 201 166.626 201H138.374C137.888 201 137.401 200.515 137.401 200.03Z" fill="white"/>
<path d="M201.886 195.696L224.758 178.037C225.185 177.711 225.11 177.034 224.607 176.824C219.461 174.742 216.318 169.739 216.318 162.829V65.5752C216.318 56.34 221.917 50.5011 230.449 50.5011C238.981 50.5011 244.579 56.34 244.579 65.5752V161.274C244.579 161.867 245.258 162.202 245.727 161.834L275.078 139.164C275.656 138.712 276 138.027 276 137.29V62.8983C276 39.3167 258.224 24.2426 230.449 24C202.682 24.2426 184.897 39.3167 184.897 62.8983V165.498C184.897 178.539 190.345 188.979 199.908 195.747C200.503 196.165 201.316 196.14 201.886 195.688V195.696Z" fill="white"/>
</svg>
