<svg width="400" height="225" viewBox="0 0 400 225" fill="none" xmlns="http://www.w3.org/2000/svg">
<path d="M167.893 163.782H196.605V199.912H83.1523V163.782H133.172V73.3396L83 115.53V75.5275L144.383 25.0881L167.893 27.2643V163.782Z" fill="white"/>
<path d="M306.637 100.004C314.205 108.814 318 122.761 318 141.832C318 162.202 313.267 177.155 303.802 186.691C294.337 196.226 279.448 201 259.147 201C243.368 201 230.928 198.005 221.838 192.026C212.736 186.047 206.246 176.874 202.357 164.507C198.468 152.14 196.523 135.935 196.523 115.893C196.523 85.5077 201.83 62.5988 212.454 47.1546C223.056 31.7221 237.582 24 255.985 24H310.573L312.155 61.5809H258.503C252.295 61.5809 247.222 63.1955 243.275 66.4248C239.327 69.6657 236.305 75.0712 234.196 82.6646C232.088 90.258 230.94 100.695 230.729 113.939H232.31C235.672 104.076 240.252 97.0909 246.039 92.9607C251.826 88.8423 259.663 86.7831 269.55 86.7831C286.699 86.7831 299.058 91.1823 306.625 99.9925L306.637 100.004ZM277.925 162.202C282.025 158.318 284.075 152.105 284.075 143.529C284.075 134.953 282.154 128.705 278.312 124.738C274.47 120.784 268.343 118.806 259.932 118.806C250.889 118.806 244.153 120.702 239.737 124.504C235.321 128.307 233.107 134.403 233.107 142.815C233.107 151.228 235.133 157.932 239.175 161.968C243.228 166.005 249.776 168.029 258.819 168.029C267.863 168.029 273.802 166.087 277.914 162.214L277.925 162.202Z" fill="white"/>
</svg>
