<svg width="400" height="225" viewBox="0 0 400 225" fill="none" xmlns="http://www.w3.org/2000/svg">
<path d="M129.27 26.036L99 45.6697L102.489 78.0231L122.769 65.1178V198.969H154.571V26.036H129.27Z" fill="white"/>
<path d="M271.053 107.816C277.379 104.709 282.601 100.281 286.62 94.6134C291.572 87.6305 294.085 79.6508 294.085 70.8918C294.085 61.6767 291.578 53.4267 286.625 46.3643C281.71 39.3602 274.865 33.8142 266.281 29.88C257.761 25.9777 247.819 24 236.727 24C225.635 24 215.922 25.9777 207.407 29.88C198.817 33.8142 191.972 39.3602 187.063 46.3643C182.116 53.4214 179.603 61.6714 179.603 70.8918C179.603 79.6137 181.819 87.5616 186.188 94.5179C189.83 100.324 194.761 105.106 200.885 108.775C192.381 112.662 185.642 117.911 180.817 124.416C175.228 131.945 172.397 140.917 172.397 151.081C172.397 161.245 175.106 169.956 180.446 177.48C185.758 184.966 193.319 190.831 202.926 194.913C212.433 198.953 223.727 201 236.494 201C249.262 201 260.831 198.911 270.422 194.791C280.104 190.629 287.702 184.728 293.014 177.247C298.354 169.723 301.063 160.762 301.063 150.619C301.063 131.071 290.973 116.691 271.053 107.816ZM237.22 94.1415C230.079 92.3706 224.49 89.5711 220.593 85.8119C216.712 82.0739 214.824 77.652 214.824 72.2862C214.824 66.9205 216.76 62.26 220.742 58.8348C224.761 55.3831 230.222 53.6281 236.966 53.6281C243.71 53.6281 249.118 55.3725 253.058 58.8189C256.971 62.244 258.874 66.6501 258.874 72.2809C258.874 83.7282 251.791 90.8807 237.22 94.1362V94.1415ZM236.054 122.487C245.216 124.432 252.347 127.571 257.252 131.818C262.098 136.028 264.452 141.341 264.452 148.064C264.452 154.787 262.103 160.471 257.278 164.522C252.406 168.604 245.571 170.672 236.966 170.672C228.361 170.672 221.076 168.53 216.219 164.309C211.373 160.11 209.019 154.644 209.019 147.597C209.019 134.872 217.862 126.654 236.059 122.481L236.054 122.487Z" fill="white"/>
</svg>
