<svg width="400" height="225" viewBox="0 0 400 225" fill="none" xmlns="http://www.w3.org/2000/svg">
<path d="M342.411 200.993L350.847 161.314H219.426L219.628 160.355C220.851 154.58 222.817 150.216 225.521 147.249C228.217 144.282 232.039 142.558 236.966 142.079L319.166 134.143C331.126 133.024 340.938 128.931 348.575 121.878C356.212 114.824 361.208 105.77 363.564 94.7069L369.693 65.8474C372.792 51.2612 370.909 40.6361 364.044 33.9858C357.185 27.3286 344.781 24.0069 326.845 24.0069H265.791C254.887 24.0069 245.437 24.8061 237.438 26.4113C229.44 28.0096 222.63 30.8587 216.994 34.9448C211.365 39.0309 206.737 44.5693 203.124 51.5392C199.503 58.5091 196.571 67.2928 194.319 77.8693C193.909 79.7942 193.527 81.7607 193.166 83.7621C192.811 85.7704 192.464 87.8898 192.123 90.1344H234.964L235.576 87.2505C237.487 78.2723 240.822 72.1432 245.597 68.8494C250.364 65.5694 257.438 63.9225 266.826 63.9225H306.151C319.813 63.9225 325.824 67.7722 324.191 75.4649L322.3 84.3667C321.341 88.8558 318.93 91.9411 315.053 93.6228C311.175 95.3115 305.428 96.5484 297.805 97.3545L225.59 104.088C213.763 105.214 203.944 109.022 196.154 115.512C188.357 122.003 183.451 129.98 181.443 139.438L168.357 201H342.418L342.411 200.993ZM160.72 200.993H28L41.0851 139.431C43.0934 129.973 47.9994 121.989 55.7963 115.505C63.5862 109.015 73.4053 105.207 85.2326 104.081L157.447 97.3475C165.071 96.5484 170.817 95.3045 174.695 93.6159C178.573 91.9342 180.984 88.8488 181.936 84.3597L183.826 75.4579C185.459 67.7653 179.448 63.9155 165.786 63.9155H126.462C117.073 63.9155 109.999 65.5624 105.232 68.8424C100.465 72.1293 97.1225 78.2654 95.2115 87.2436L94.6 90.1274H51.7589C52.0925 87.8829 52.4469 85.7565 52.8013 83.7551C53.1557 81.7538 53.5379 79.7872 53.9548 77.8623C56.2063 67.2789 59.1388 58.5022 62.7593 51.5323C66.3798 44.5623 71.0079 39.0239 76.6297 34.9379C82.2584 30.8518 89.0755 28.0027 97.0738 26.4044C105.072 24.7991 114.523 24 125.426 24H186.481C197.842 24 206.98 25.3412 213.902 28.0166C213.464 28.3084 213.019 28.5933 212.595 28.906C206.049 33.6662 200.622 40.1219 196.487 48.0994C192.575 55.6322 189.385 65.1246 187.009 76.3127C186.585 78.3001 186.182 80.3709 185.807 82.4696C185.438 84.5404 185.077 86.7224 184.736 89.0364L183.451 97.6046H218.078C207.689 99.5573 198.732 103.636 191.366 109.772C183.222 116.548 177.739 124.873 174.987 134.518L96.5944 142.086C91.6605 142.565 87.8455 144.289 85.1492 147.256C82.446 150.223 80.4864 154.587 79.2564 160.362L79.0549 161.321H169.143L160.707 201L160.72 200.993Z" fill="#E2071F"/>
</svg>
