<svg width="400" height="225" viewBox="0 0 400 225" fill="none" xmlns="http://www.w3.org/2000/svg">
<path d="M44.0992 201C42.2726 201 40.9114 200.383 40.0016 199.141C39.0918 197.899 38.8001 196.373 39.1335 194.548L43.6061 172.951C43.9394 171.793 44.6825 169.892 45.8424 167.241C47.0022 164.598 49.3218 162.191 52.8013 160.04L69.6985 146.387C87.4222 135.134 102.166 125.574 113.931 117.714C125.696 109.853 134.766 103.027 141.142 97.2337C147.517 91.4408 151.205 86.0641 152.198 81.0968C153.025 77.1284 152.775 73.6943 151.455 70.7944C150.129 67.9014 146.649 66.4514 141.017 66.4514C136.871 66.4514 133.35 67.3603 130.453 69.1849C127.55 71.0095 125.238 73.2434 123.495 75.8866C121.758 78.5368 120.307 81.0968 119.147 83.5805C117.82 85.7311 116.244 87.2227 114.424 88.0483C112.598 88.8739 110.695 89.2901 108.709 89.2901H69.6915C68.1984 89.2901 67.0385 88.7559 66.2121 87.6737C65.3856 86.5983 65.1287 85.3149 65.462 83.8233C67.4483 75.0541 71.0111 67.0689 76.1504 59.8676C81.2828 52.6663 87.5819 46.3392 95.0339 40.8793C102.493 35.4194 110.896 31.2429 120.258 28.343C129.613 25.45 139.517 24 149.955 24C164.533 24 176.582 26.2339 186.111 30.7018C195.632 35.1696 202.341 41.462 206.237 49.5721C210.127 57.6822 210.835 67.3602 208.349 78.6131C206.689 87.2227 203.043 95.2426 197.41 102.694C191.778 110.145 184.569 117.214 175.791 123.916C167.005 130.618 156.983 137.534 145.719 144.646L130.808 156.564H188.958C190.778 156.564 192.188 157.23 193.181 158.549C194.174 159.874 194.507 161.449 194.174 163.266L187.465 194.541C187.132 196.366 186.18 197.892 184.604 199.134C183.027 200.376 181.333 200.993 179.513 200.993H44.0992V201Z" fill="white"/>
<path d="M218.218 201C216.724 201 215.565 200.466 214.738 199.39C213.912 198.315 213.662 197.032 213.995 195.54C214.328 194.548 214.655 193.799 214.988 193.306L296.245 71.4257H224.927C223.1 71.4257 221.739 70.8013 220.829 69.5595C219.919 68.3176 219.627 66.7914 219.961 64.9668L226.42 33.6919C226.753 31.8742 227.705 30.341 229.281 29.0992C230.851 27.8573 232.545 27.2399 234.379 27.2399H356.889C358.875 27.2399 360.285 27.8573 361.111 29.0992C361.938 30.341 362.188 31.8742 361.861 33.6919L356.146 60.9984C355.479 63.6486 354.652 65.9242 353.659 67.8251C352.666 69.7329 351.673 71.509 350.673 73.1601L268.916 195.29C268.09 196.116 266.805 197.274 265.062 198.766C263.325 200.258 260.964 201 257.978 201H218.218Z" fill="white"/>
</svg>
