<svg width="400" height="225" viewBox="0 0 400 225" fill="none" xmlns="http://www.w3.org/2000/svg">
<path d="M301.534 74.9762L265.377 97.0606L256.312 123.729H264.193C279.872 123.729 291.471 124.256 298.68 125.281C307.33 126.527 309.096 128.626 309.269 128.854C309.581 129.283 310.474 131.098 308.66 136.444C307.219 140.689 305.162 143.937 302.545 146.098C299.844 148.335 295.8 149.997 290.529 151.042C284.685 152.199 276.589 152.788 266.458 152.788C255.689 152.788 247.739 152.143 242.843 150.869C240.453 150.246 237.448 149.103 236.721 147.171C236.361 146.209 235.786 143.203 238.224 136.036L240.758 128.57H201.873L200.571 132.4C196.25 145.121 195.405 155.128 197.981 163.009C200.717 171.382 207.483 177.455 218.092 181.049C227.649 184.29 240.994 185.869 258.888 185.869C275.855 185.869 290.169 184.394 301.437 181.492C313.147 178.473 322.794 173.522 330.114 166.776C337.441 160.024 343.085 150.932 346.887 139.74C350.121 130.218 350.931 122.497 349.366 116.146C347.648 109.228 343.043 103.951 335.668 100.454C332.551 98.9789 328.881 97.7877 324.601 96.8736L366.062 71.4443L376 42.1924H236.222L225.086 74.9554H301.527L301.534 74.9762Z" fill="white"/>
<path d="M80.1771 142.123C83.1341 138.958 87.2754 136.68 92.4901 135.343C98.3072 133.854 106.61 133.099 117.178 133.099C134.145 133.099 148.3 131.68 159.256 128.889C170.682 125.973 180.059 121.146 187.123 114.547C194.165 107.961 199.643 99.0067 203.404 87.9472C207.323 76.4098 207.787 67.2063 204.83 59.8102C201.769 52.1855 195.121 46.6593 185.066 43.3906C175.98 40.4335 163.722 39 147.587 39C131.451 39 116.264 40.6136 104.727 43.8061C92.7532 47.1163 82.7878 52.5457 75.1008 59.9556C67.4347 67.3378 61.4444 77.2755 57.2962 89.4915L54.7616 96.9499H94.1313L95.4333 93.1203C97.3931 87.3447 99.9831 82.8987 103.127 79.8863C106.195 76.95 110.399 74.8517 115.62 73.6328C121.416 72.2824 129.36 71.5968 139.214 71.5968C149.069 71.5968 155.842 72.1647 160.398 73.2866C163.438 74.0414 165.488 75.1771 166.015 76.4029C166.34 77.1647 166.88 79.5746 164.886 85.4403C163.397 89.8239 161.354 93.148 158.812 95.3156C156.25 97.5039 152.427 99.0898 147.455 100.032C141.846 101.091 133.965 101.631 124.034 101.631C106.583 101.631 91.9568 103.28 80.5372 106.527C68.6605 109.907 58.8613 115.516 51.4029 123.196C44.0622 130.766 38.1481 141.036 33.8337 153.723L24 182.656H171.209L182.344 149.893H75.0178C76.5898 146.714 78.3142 144.11 80.1701 142.123H80.1771Z" fill="white"/>
</svg>
