<svg width="400" height="225" viewBox="0 0 400 225" fill="none" xmlns="http://www.w3.org/2000/svg">
<path d="M324.033 77.2546L254.129 196.685L251.524 201H202.462L204.929 196.662L208.802 189.878C213.044 182.425 218.162 173.634 223.719 164.128C224.825 162.236 225.955 160.298 227.085 158.359C228.191 156.467 229.321 154.552 230.451 152.637C250.578 118.418 274.049 79.1005 283.824 61.8643H230.451V61.0567C230.451 45.528 222.612 31.7759 210.716 24H296.689C308.632 24 319.099 31.499 324.77 42.2284C330.65 53.3731 330.396 66.456 324.033 77.2546Z" fill="#D2162C"/>
<path d="M109.203 93.4986V93.5678H184.317V93.4986H109.203ZM218.324 111.404C218.67 110.758 218.969 110.089 219.269 109.397C218.946 110.089 218.647 110.758 218.301 111.404H218.324ZM158.172 61.8874H155.936H158.172Z" fill="#D2162C"/>
<path d="M220.837 105.197C221.943 101.598 222.497 97.8365 222.497 94.4677V61.0798C222.52 41.9284 207.972 25.1306 188.905 24H106.805C87.0926 24 71 40.3594 71 60.0876V94.4677C71 95.9214 71.1153 97.4212 71.3228 98.8749C71.6225 101.067 72.1297 103.213 72.7753 105.336C73.1211 106.374 73.4669 107.412 73.8819 108.451C74.2739 109.466 74.6889 110.458 75.173 111.427C74.6658 112.512 74.1586 113.642 73.7436 114.796C73.2825 115.903 72.9136 117.034 72.5908 118.165C71.5994 121.418 71.0231 124.81 71.0231 128.086V165.397C71.0231 184.802 87.1849 201 106.828 201H186.715C189.182 201 191.603 200.746 193.908 200.262L196.052 196.685L222.543 151.437V128.109C222.543 124.671 222.105 121.395 221.16 118.188C220.837 117.057 220.468 115.926 219.961 114.819C219.5 113.688 218.969 112.558 218.37 111.45C218.716 110.804 219.015 110.135 219.338 109.443C219.938 108.081 220.468 106.674 220.883 105.243L220.837 105.197ZM184.317 163.136H109.18V131.455H184.317V163.136ZM184.317 93.5678H109.203V61.8874H184.317V93.5678Z" fill="#D2162C"/>
</svg>
