<svg width="400" height="225" viewBox="0 0 400 225" fill="none" xmlns="http://www.w3.org/2000/svg">
<path d="M269.198 142.086C300.664 122.837 314.696 103.254 314.696 78.5385C314.696 46.0396 287.33 24.225 246.602 24.225C203.698 24.225 177.643 46.4581 176.918 83.6992L176.806 89.7526H223.56L223.644 83.8945C223.839 70.1697 231.705 62.9167 246.379 62.9167C267.273 62.9167 267.273 75.8883 267.273 80.1564C267.273 90.5337 257.621 100.827 232.821 116.923L179.903 151.486V201.225H313.775V159.772H240.493L269.198 142.086ZM307.834 165.686V195.283H185.817V154.694L236.057 121.889C262.196 104.928 273.215 93.4628 273.215 80.1564C273.215 64.7857 263.116 57.0028 246.379 57.0028C228.023 57.0028 217.953 67.1011 217.702 83.8387H182.832C183.529 48.2992 208.524 30.1668 246.602 30.1668C284.68 30.1668 308.754 49.443 308.754 78.5664C308.754 102.417 293.858 120.076 266.101 137.036L228.497 160.19V165.686H307.862H307.834Z" fill="white"/>
<path d="M149.384 24.225H118.894L85.4741 52.3162V90.0874H95.6562L126.286 65.9853H128.657V201.225H170.892V45.7328C170.892 39.6515 168.883 34.4907 164.866 30.4458C160.849 26.3172 155.66 24.2529 149.44 24.2529L149.384 24.225ZM165.061 195.423H134.459V60.155H124.277L93.6755 84.285H91.3044V55.0222L121.041 30.0553H149.384C154.07 30.0553 157.78 31.5058 160.682 34.4907C163.639 37.4756 165.061 41.1579 165.061 45.7328V195.423Z" fill="white"/>
</svg>
