<svg width="400" height="225" viewBox="0 0 400 225" fill="none" xmlns="http://www.w3.org/2000/svg">
<path d="M305.885 56.4185C305.54 51.5108 304.181 46.6492 301.787 42.1101C298.034 35.0135 292.187 29.3685 285.188 26.3732C281.665 24.8525 277.867 24.023 273.907 24.023H234.608C242.85 29.1842 249.273 37.1563 252.427 46.9487L252.496 47.1561C252.726 47.9164 253.003 48.815 253.256 49.7597C253.509 50.7965 253.739 51.8334 253.923 52.8933L253.992 53.4002V53.5154C254.177 54.5061 254.292 55.4278 254.361 56.3494C254.43 57.1097 254.476 57.9162 254.499 58.8608V59.1373C254.522 59.4829 254.545 59.8055 254.545 60.1511V61.6949H268.704V199.917H306V56.5568L305.885 56.3955V56.4185Z" fill="#D2162C"/>
<path d="M246.556 58.9991C246.556 58.2618 246.51 57.5475 246.441 56.8332C246.372 56.0268 246.257 55.2434 246.142 54.46C246.119 54.2757 246.096 54.0914 246.05 53.9071C245.889 53.0315 245.704 52.1559 245.497 51.2804C245.313 50.52 245.083 49.7827 244.853 49.0454C244.853 48.9993 244.83 48.9302 244.807 48.8841C240.156 34.4606 226.688 24 210.733 24H131.122C111.323 24 95 40.0825 95 59.8977V75.7498H132.849V61.8792H208.316V93.5604H150.806V131.44H208.754V163.121H132.849V149.25H95V165.102C95 184.917 111.323 201 131.122 201H210.733C214.141 201 217.433 200.47 220.564 199.571C220.702 199.571 220.84 199.502 220.978 199.456C221.6 199.272 222.222 199.065 222.82 198.857C223.119 198.742 223.442 198.627 223.741 198.489C224.8 198.074 225.859 197.59 226.872 197.083C227.194 196.922 227.54 196.737 227.862 196.576C228.415 196.277 228.944 195.977 229.474 195.631C229.888 195.378 230.279 195.102 230.671 194.848C231.361 194.387 232.052 193.903 232.697 193.373C233.18 192.982 233.664 192.613 234.147 192.198C234.469 191.922 234.792 191.622 235.114 191.346C235.874 190.655 236.588 189.94 237.278 189.18C237.324 189.111 237.393 189.065 237.439 188.996C237.992 188.374 238.521 187.751 239.028 187.106C239.189 186.876 239.373 186.669 239.534 186.438C239.949 185.885 240.363 185.332 240.732 184.756C241.169 184.088 241.583 183.397 241.998 182.683C242.09 182.521 242.205 182.36 242.297 182.199C242.827 181.208 243.333 180.194 243.771 179.134C243.794 179.065 243.817 179.019 243.84 178.95C244.254 177.936 244.645 176.899 244.968 175.839C244.968 175.793 244.991 175.747 245.014 175.678C246.027 172.406 246.602 168.95 246.602 165.379V128.076C246.602 124.781 246.027 121.417 245.037 118.145C244.714 116.993 244.346 115.864 243.886 114.758C243.448 113.583 242.965 112.454 242.435 111.371C242.919 110.403 243.333 109.413 243.724 108.399C244.139 107.362 244.484 106.325 244.83 105.288C245.474 103.168 246.004 101.003 246.28 98.8368C246.487 97.3852 246.602 95.8875 246.602 94.436V60.059C246.602 59.6903 246.556 59.3447 246.556 58.976V58.9991Z" fill="#D2162C"/>
</svg>
