<svg width="400" height="400" viewBox="0 0 400 400" fill="none" xmlns="http://www.w3.org/2000/svg">
<path d="M195.378 228.097H181.367C181.101 228.097 180.885 227.881 180.885 227.615V181.906C180.885 181.433 180.727 180.984 180.444 180.61L142.066 131.012C141.733 130.588 141.068 130.671 140.861 131.162L99.241 227.374C99.241 227.535 99.1607 227.695 99 227.856V252.256C99 252.788 99.4322 253.22 99.964 253.22H150.451C150.717 253.22 150.933 253.436 150.933 253.702V287.036C150.933 287.568 151.365 288 151.897 288H179.921C180.453 288 180.885 287.568 180.885 287.036V253.702C180.885 253.436 181.101 253.22 181.367 253.22H189.819C190.301 253.22 191.024 252.738 191.024 252.256L196.334 229.069C196.575 228.587 195.852 228.105 195.37 228.105L195.378 228.097ZM150.933 227.374C150.933 227.615 150.692 227.856 150.451 227.856H127.264C127.023 227.856 127.023 227.615 127.023 227.374L150.451 165.534C150.692 165.293 150.933 165.052 150.933 165.534V227.374Z" fill="white"/>
<path d="M213.753 161.977H240.081C240.613 161.977 241.045 161.545 241.045 161.013V156.908C241.045 138.791 249.256 136.372 255.298 136.372C265.204 136.372 269.792 142.414 269.792 155.454C269.792 176.471 263.268 179.122 242.741 179.122C242.018 179.122 241.777 179.604 241.777 180.086V206.655C241.777 207.137 242.018 207.619 242.741 207.619C265.204 207.619 271.969 209.556 271.969 232.502C271.969 239.399 272.052 246.347 270.881 252.04C270.748 252.68 271.487 253.137 272.003 252.738L301.223 230.125C301.638 229.801 301.879 229.294 301.863 228.762C301.023 205.716 291.092 194.015 277.762 192.885C277.762 192.644 278.003 192.403 278.244 192.403C293.461 190.466 298.779 172.357 298.779 157.623C298.779 128.876 285.25 111 255.057 111C224.865 111 212.789 127.912 212.789 156.65V160.997C212.789 161.529 213.221 161.961 213.753 161.961V161.977Z" fill="white"/>
<path d="M231.289 284.244L254.467 266.309C254.982 265.91 254.725 265.096 254.077 265.046C240.04 264.032 239.591 251.666 239.591 231.538V228.155C239.591 227.623 239.159 227.191 238.627 227.191H212.058C211.526 227.191 211.094 227.623 211.094 228.155V239.989C210.737 252.987 212.49 274.121 229.976 284.335C230.391 284.576 230.906 284.534 231.28 284.244H231.289Z" fill="white"/>
</svg>
