<svg width="400" height="225" viewBox="0 0 400 225" fill="none" xmlns="http://www.w3.org/2000/svg">
<path d="M168.986 80.6886C168.993 73.6711 168.09 70.7904 167.703 69.8796C167.073 68.4032 165.445 67.0369 163.243 66.1336C159.957 64.79 155.076 64.1069 148.745 64.1069C142.415 64.1069 137.044 64.9267 133.481 66.5397C130.281 67.9895 127.958 70.502 126.581 74.0013C125.165 77.5916 124.448 82.9165 124.44 89.8163V94.4618H98.169L98.1765 85.52C98.1879 70.8739 99.9452 58.9604 103.391 50.1136C106.853 41.2288 112.276 34.716 119.518 30.7537C126.497 26.9356 135.746 25 147.011 25C158.275 25 166.264 26.7231 172.986 30.2641C180.421 34.1809 186.095 40.7961 189.852 49.9162C193.496 58.7745 195.261 69.8037 195.249 83.6338C195.238 96.9022 193.602 107.632 190.384 115.533C187.161 123.454 181.992 129.238 175.028 132.734C168.356 136.081 159.236 137.778 147.925 137.778C140.885 137.778 135.522 138.681 131.981 140.465C128.812 142.059 126.573 144.784 125.321 148.56C124.531 150.936 123.973 154.037 123.643 157.836H195.185L195.151 197.14H97L97.0304 162.481C97.0455 147.27 98.6699 134.958 101.866 125.883C105.107 116.672 110.382 109.947 117.544 105.889C124.425 101.995 133.811 100.022 145.44 100.022C152.059 100.022 157.19 99.3805 160.685 98.1091C163.782 96.9857 165.965 95.0918 167.175 92.4768C168.375 89.8884 168.982 85.9223 168.989 80.6886H168.986ZM229.312 132.309H203.371V136.954C203.352 152.196 205.045 164.193 208.544 173.636C212.252 183.655 218.127 190.92 226.006 195.227C233.107 199.11 242.36 201 254.289 201C265.599 201 274.814 199.235 281.668 195.759C288.8 192.142 294.121 186.206 297.487 178.114C300.854 170.015 302.569 159.107 302.581 145.699C302.592 134.282 301.389 125.029 298.907 117.416C296.205 109.138 291.95 102.819 286.253 98.6404C283.851 96.8794 281.141 95.4562 278.082 94.3593L299.962 63.9361L299.992 28.8712H206.798L206.764 68.1755H257.686L238.592 94.587L238.561 126.566H243.806C254.259 126.566 262.111 127.193 267.144 128.43C273.19 129.921 274.848 132.438 275.015 132.715C275.323 133.227 276.325 135.402 276.321 141.793C276.317 146.864 275.679 150.739 274.435 153.316C273.14 155.984 270.829 157.973 267.558 159.221C263.929 160.61 258.665 161.312 251.913 161.312C244.733 161.312 239.294 160.538 235.741 159.016C234.003 158.272 231.741 156.898 230.819 154.572C230.363 153.422 229.305 149.824 229.312 141.254L229.32 132.312L229.312 132.309Z" fill="white"/>
</svg>
