<svg width="400" height="225" viewBox="0 0 400 225" fill="none" xmlns="http://www.w3.org/2000/svg">
<path d="M301.023 84.3258L244.106 181.49L241.985 185H202.038L204.047 181.471L207.2 175.952C210.654 169.889 214.822 162.736 219.346 155.002C220.247 153.463 221.167 151.886 222.086 150.309C222.987 148.77 223.907 147.212 224.827 145.654C241.215 117.815 260.325 85.8275 268.284 71.8048H224.827V71.1478C224.827 58.5143 218.445 47.3262 208.758 41H278.759C288.483 41 297.005 47.1009 301.623 55.8299C306.41 64.8968 306.204 75.5405 301.023 84.3258Z" fill="#D2162C"/>
<path d="M126.105 97.5413V97.5976H187.264V97.5413H126.105ZM214.953 112.108C215.235 111.583 215.479 111.038 215.723 110.475C215.46 111.038 215.216 111.583 214.934 112.108H214.953ZM165.977 71.8236H164.156Z" fill="#D2162C"/>
<path d="M216.999 107.059C217.9 104.13 218.351 101.07 218.351 98.3297V71.1666C218.37 55.5858 206.524 41.9198 191 41H124.153C108.103 41 95 54.3093 95 70.3594V98.3297C95 99.5123 95.0939 100.733 95.2628 101.915C95.5068 103.698 95.9198 105.444 96.4454 107.171C96.727 108.016 97.0086 108.861 97.3465 109.706C97.6656 110.531 98.0035 111.339 98.3977 112.127C97.9847 113.009 97.5718 113.929 97.2339 114.868C96.8584 115.769 96.5581 116.689 96.2953 117.609C95.4881 120.255 95.0188 123.015 95.0188 125.68V156.035C95.0188 171.822 108.178 185 124.172 185H189.217C191.225 185 193.196 184.794 195.074 184.399L196.819 181.49L218.388 144.678V125.699C218.388 122.902 218.032 120.237 217.262 117.627C216.999 116.707 216.699 115.788 216.286 114.887C215.91 113.967 215.479 113.047 214.991 112.146C215.272 111.62 215.516 111.076 215.779 110.513C216.267 109.405 216.699 108.26 217.037 107.096L216.999 107.059ZM187.264 154.195H126.086V128.421H187.264V154.195ZM187.264 97.5976H126.105V71.8236H187.264V97.5976Z" fill="#D2162C"/>
</svg>
