<svg width="400" height="225" viewBox="0 0 400 225" fill="none" xmlns="http://www.w3.org/2000/svg">
<path fill-rule="evenodd" clip-rule="evenodd" d="M309.798 107.117C302.977 100.994 294.556 96.5781 285.235 94.1334L317.947 77.2614V49.4854C317.947 35.5237 307.222 25 293.004 25H155.785C128.001 25 106.682 34.119 92.4176 52.093C79.5346 68.3287 73 91.1145 73 119.806C73 144.711 79.3173 164.509 91.7657 178.657C104.819 193.488 123.608 201 147.62 201C162.987 201 177.104 197.934 188.458 192.137C193.138 189.747 197.29 186.868 200.953 183.6C201.729 184.299 202.536 184.974 203.366 185.634C216.001 195.684 233.905 201 255.147 201C276.388 201 293.407 195.723 306.104 185.742C319.352 175.327 326.36 160.605 326.36 143.166C326.36 129.5 320.485 116.694 309.814 107.117H309.798ZM205.671 69.4385H249.489L212.959 91.8906V117.641C209.8 111.331 205.33 105.806 199.571 101.219C188.365 92.2941 172.657 87.3815 155.335 87.3815H132.619L128.249 91.7509C132.588 76.594 141.536 69.4385 155.792 69.4385H205.679H205.671ZM147.62 188.777C107.388 188.777 85.2311 164.284 85.2311 119.806C85.2311 82.1352 97.4699 37.2233 155.792 37.2233H190.592V57.2074H155.792C141.613 57.2074 130.741 62.5391 123.461 73.055C118.23 80.6218 115.017 90.6566 113.643 103.741L112.937 110.485H126.79L137.679 99.5971H155.335C177.608 99.5971 203.39 109.709 206.331 137.726H182.792L183.025 144.067C183.452 155.661 186.828 165.991 192.889 174.582C182.466 183.724 166.766 188.761 147.62 188.761V188.777ZM255.139 188.777C234.883 188.777 218.981 183.561 208.651 174.078C207.961 173.441 207.293 172.782 206.649 172.114C206.579 172.037 206.502 171.967 206.432 171.889C206.137 171.571 205.85 171.253 205.563 170.935C205.462 170.826 205.369 170.71 205.276 170.601C204.779 170.019 204.298 169.429 203.832 168.824C203.739 168.699 203.638 168.583 203.545 168.459C203.32 168.156 203.102 167.854 202.885 167.551C202.753 167.357 202.614 167.163 202.482 166.969C202.28 166.666 202.07 166.371 201.876 166.069C198.857 161.35 196.816 155.964 195.846 149.973H222.466C226.408 164.423 237.871 172.883 253.998 172.883C273.835 172.883 286.648 161.668 286.648 144.315C286.648 136.407 283.047 118.013 249.683 118.013H225.174V98.7356L271.677 70.1525V57.2229H208.76V37.2233H293.012C300.377 37.2233 305.724 42.3842 305.724 49.4854V69.8032L262.628 92.0303V104.044L268.65 104.137C294.145 104.525 314.121 121.669 314.121 143.166C314.121 170.872 290.963 188.777 255.131 188.777H255.139ZM217.32 130.229H249.691C260.975 130.229 274.432 132.674 274.432 144.307C274.432 158.525 261.635 160.651 254.006 160.651C245.756 160.651 235.512 157.594 233.525 143.027L232.803 137.742H218.43C218.213 135.165 217.84 132.658 217.32 130.229Z" fill="white"/>
<path fill-rule="evenodd" clip-rule="evenodd" d="M142.172 118.006H112.86L112.929 124.183C113.1 139.984 113.457 172.875 147.17 172.875C166.588 172.875 179.137 161.66 179.137 144.307C179.137 136.399 175.536 118.006 142.172 118.006ZM147.162 160.644C130.632 160.644 126.177 150.004 125.308 130.221H142.172C153.456 130.221 166.914 132.666 166.914 144.299C166.914 159.053 153.107 160.644 147.17 160.644H147.162Z" fill="white"/>
</svg>
