<svg width="400" height="225" viewBox="0 0 400 225" fill="none" xmlns="http://www.w3.org/2000/svg">
<path d="M140 186.161V150.258C160.774 162 177.032 164.935 189.903 164.935C213.387 164.935 225.806 155.226 225.806 140.774C225.806 126.323 212.71 116.613 189.903 116.613C177.258 116.613 161.903 119.774 142.032 125.645L152.645 29H247.484V60.6129H178.839L175.677 88.8387C183.581 86.5806 191.032 85.2258 198.935 85.2258C230.323 85.2258 259.677 105.774 259.677 140.774C259.677 175.774 233.032 197 192.161 197C174.097 197 154.677 192.71 140 186.161Z" fill="white"/>
</svg>
