<svg width="400" height="225" viewBox="0 0 400 225" fill="none" xmlns="http://www.w3.org/2000/svg">
<path d="M182.185 60.1739V174.86C182.185 189.439 188.261 201.103 198.932 208.668C199.595 209.137 200.499 209.102 201.142 208.606L226.664 188.858C227.157 188.478 227.021 187.729 226.447 187.493C220.732 185.155 217.246 179.575 217.246 171.87V63.1635C217.246 52.8376 223.496 46.3156 233.008 46.3156C242.52 46.3156 248.77 52.8376 248.77 63.1635V170.133C248.77 170.792 249.53 171.165 250.054 170.761L282.799 145.422C283.447 144.921 283.827 144.146 283.827 143.324V60.1739C283.827 40.5536 272.826 26.2106 254.428 20.0453C252.047 19.2466 249.561 18.7696 247.06 18.5602L229.379 17.079C228.161 16.9782 226.928 16.9666 225.711 17.0868C198.944 19.7584 182.181 35.9471 182.181 60.1778L182.185 60.1739Z" fill="white"/>
<path d="M164.651 190.579V21.5847C164.651 20.9876 164.162 20.499 163.565 20.499H120.354C119.811 20.499 119.268 20.7704 119.268 21.5847L116.007 47.6728C116.007 48.2156 116.55 48.7585 117.093 48.7585H130.408C130.707 48.7585 130.951 49.0028 130.951 49.3013V173.576C130.951 174.639 131.548 175.612 132.495 176.097C142.735 181.339 152.89 186.551 162.86 191.677C163.682 192.099 164.647 191.498 164.647 190.575L164.651 190.579Z" fill="white"/>
</svg>
