<svg width="400" height="225" viewBox="0 0 400 225" fill="none" xmlns="http://www.w3.org/2000/svg">
<path d="M343.673 41H314.433C308.139 41 301.958 42.6935 296.567 45.911L207.915 98.5492L180.537 114.75L210.145 90.3359C211.838 88.953 213.193 87.2031 214.124 85.1991L234.756 41H205.516C199.222 41 193.041 42.6935 187.65 45.911L73.7087 113.508C71.2532 114.976 69.3058 117.177 68.1486 119.774L57 144.95H147.261L128.238 185H167.244L183.134 151.695C183.896 150.087 182.852 148.167 181.074 147.97L153.95 144.922H256.207L237.183 184.972H276.189L292.221 151.3C292.983 149.691 291.938 147.772 290.16 147.575L266.226 144.893H319.796L333.146 115.286H308.986L343.673 41ZM161.176 115.343H109.187L179.013 77.2681L161.176 115.343ZM270.093 115.343H218.104L287.959 77.2681L270.065 115.343H270.093Z" fill="white"/>
</svg>
