<svg width="400" height="225" viewBox="0 0 400 225" fill="none" xmlns="http://www.w3.org/2000/svg">
<path d="M234.469 65.1903L233.553 83.5606C235.276 82.4469 237.096 81.4962 239.005 80.7046C244.023 78.6401 250.166 77.5924 257.275 77.5924C267.954 77.5924 276.456 79.618 283.262 83.7857C290.794 88.4229 296.46 95.9743 300.108 106.246C303.546 115.92 305.214 127.771 305.199 142.482C305.183 156.549 303.433 168.012 299.983 176.549C296.534 185.094 291.113 191.407 283.864 195.319C276.875 199.087 267.539 201 256.111 201C244.683 201 235.148 199.18 227.884 195.431C219.855 191.303 213.805 184.399 209.902 174.904C206.126 165.726 204.29 160.297 204.302 146.161V141.411H230.973V144.644C230.965 151.788 231.958 154.426 232.261 155.063C232.618 155.819 233.817 157.678 237.387 158.997C240.984 160.332 246.421 161.008 253.549 161.008C260.678 161.008 266.111 160.263 269.696 158.792C272.843 157.488 275.059 155.261 276.281 152.179C277.55 148.966 278.198 143.895 278.202 137.092C278.21 128.054 277.217 123.86 276.623 122.16C275.936 120.2 274.368 118.625 271.966 117.488C268.454 115.839 263.061 114.997 255.955 114.997C248.85 114.997 243.848 115.978 240.294 117.915C236.867 119.781 233.635 123.39 230.693 128.64L229.913 130.03H204.403L209.607 25H299.661L299.623 65.1903H234.469ZM125.175 65.1903L124.259 83.5606C125.982 82.4469 127.802 81.4962 129.711 80.7046C134.729 78.6401 140.871 77.5924 147.98 77.5924C158.66 77.5924 167.162 79.618 173.968 83.7857C181.5 88.4229 187.166 95.9743 190.813 106.246C194.252 115.92 195.92 127.771 195.905 142.482C195.889 156.549 194.139 168.012 190.689 176.549C187.239 185.094 181.818 191.407 174.57 195.319C167.581 199.087 158.244 201 146.816 201C135.388 201 125.854 199.18 118.59 195.431C110.561 191.303 104.511 184.399 100.607 174.904C96.8239 165.726 94.9884 160.297 95.0001 146.161V141.411H121.671V144.644C121.663 151.788 122.656 154.426 122.959 155.063C123.316 155.819 124.515 157.678 128.085 158.997C131.682 160.332 137.119 161.008 144.247 161.008C151.376 161.008 156.809 160.263 160.394 158.792C163.541 157.488 165.757 155.261 166.979 152.179C168.248 148.966 168.896 143.895 168.9 137.092C168.908 128.054 167.915 123.86 167.321 122.16C166.634 120.2 165.066 118.625 162.664 117.488C159.152 115.839 153.759 114.997 146.653 114.997C139.548 114.997 134.546 115.978 130.992 117.915C127.565 119.781 124.333 123.39 121.391 128.64L120.611 130.03H95.1126L100.312 25H190.367L190.328 65.1903H125.175Z" fill="white"/>
</svg>
