<svg width="400" height="225" viewBox="0 0 400 225" fill="none" xmlns="http://www.w3.org/2000/svg">
<path d="M136.244 34.8345L108.867 52.5872L112.028 81.827L130.345 70.1706V191.165H159.105V34.8345H136.244Z" fill="white"/>
<path d="M264.407 108.781C270.137 105.958 274.85 101.979 278.491 96.842C282.979 90.5199 285.236 83.3228 285.236 75.392C285.236 67.066 282.979 59.6149 278.491 53.2082C274.06 46.886 267.851 41.8622 260.089 38.3061C252.384 34.7781 243.409 33 233.361 33C223.314 33 214.564 34.7781 206.859 38.3061C199.098 41.8622 192.917 46.886 188.457 53.2082C183.97 59.5867 181.712 67.0378 181.712 75.392C181.712 83.2664 183.716 90.4634 187.667 96.7573C190.969 102.007 195.429 106.325 200.961 109.655C193.284 113.155 187.187 117.925 182.813 123.796C177.761 130.597 175.192 138.698 175.192 147.899C175.192 157.099 177.648 164.974 182.474 171.748C187.272 178.521 194.102 183.827 202.795 187.496C211.403 191.137 221.592 193 233.136 193C244.679 193 255.122 191.109 263.815 187.384C272.564 183.63 279.422 178.295 284.249 171.522C289.075 164.72 291.53 156.62 291.53 147.447C291.53 129.779 282.414 116.768 264.407 108.752V108.781ZM233.813 96.4186C227.35 94.8098 222.298 92.2979 218.77 88.8829C215.27 85.496 213.548 81.5165 213.548 76.662C213.548 71.8076 215.298 67.6022 218.883 64.4976C222.523 61.3648 227.463 59.7843 233.559 59.7843C239.655 59.7843 244.538 61.3648 248.094 64.4694C251.622 67.574 253.344 71.5535 253.344 76.6338C253.344 86.9919 246.937 93.4551 233.785 96.3904L233.813 96.4186ZM232.769 122.017C241.038 123.767 247.501 126.618 251.933 130.456C256.307 134.267 258.452 139.065 258.452 145.133C258.452 151.201 256.335 156.337 251.961 160.007C247.558 163.704 241.377 165.567 233.587 165.567C225.797 165.567 219.221 163.619 214.818 159.809C210.444 155.999 208.299 151.06 208.299 144.709C208.299 133.194 216.286 125.771 232.74 122.017H232.769Z" fill="white"/>
</svg>
