<svg width="400" height="225" viewBox="0 0 400 225" fill="none" xmlns="http://www.w3.org/2000/svg">
<path fill-rule="evenodd" clip-rule="evenodd" d="M265.522 141.374C280.119 132.122 290.125 123.641 297.004 114.692C305.127 104.126 309.08 92.6408 309.08 79.5764C309.08 63.3451 302.349 49.5804 289.612 39.7529C277.092 30.1044 259.452 25 238.584 25C213.241 25 193.874 31.9952 181.712 44.974C178.84 34.524 169.441 27.2721 157.622 27.2721H125.167L91 55.5329V99.3403H105.698L131.251 78.2225V201H307.936V156.204L241.68 156.407L265.514 141.374H265.522ZM170.141 150.633V188.753H143.507V64.3411H128.808L103.255 85.4589V61.2987L129.579 39.5273H157.622C165.006 39.5273 170.367 44.7017 170.367 51.8213V64.131C168.258 70.3792 167.099 77.3199 166.951 84.9064L166.834 91.1546H170.367V150.478L170.141 150.625M295.681 168.498V188.745H182.63V157.091L238.521 120.404L239.159 119.984C250.341 112.7 269.046 100.515 269.046 80.9303C269.046 64.131 257.569 54.109 238.358 54.109C220.601 54.109 209.093 63.2517 206.588 78.8995H179.619C183.478 44.6783 213.388 37.2552 238.584 37.2552C256.713 37.2552 271.77 41.4725 282.119 49.4559C291.736 56.8713 296.817 67.2901 296.817 79.5686C296.817 99.068 285.846 113.977 258.97 131.017L222.228 154.197V168.732L295.689 168.506L295.681 168.498ZM182.63 142.432V91.1546H218.244L218.337 85.1165C218.524 72.5034 225.076 66.3642 238.366 66.3642C256.799 66.3642 256.799 77.3277 256.799 80.9303C256.799 93.8702 242.163 103.41 232.483 109.72L182.638 142.432H182.63Z" fill="white"/>
</svg>
