<svg width="400" height="225" viewBox="0 0 400 225" fill="none" xmlns="http://www.w3.org/2000/svg">
<path d="M105.813 167.59C105.813 168.145 106.243 168.603 106.769 168.603H156.686C156.949 168.603 157.165 168.83 157.165 169.108V203.99C157.165 204.546 157.595 205 158.121 205H185.827C186.354 205 186.783 204.546 186.783 203.99V169.108C186.783 168.83 186.999 168.603 187.259 168.603H195.618C196.094 168.603 196.812 168.098 196.812 167.59L202.066 143.324C202.304 142.815 201.586 142.31 201.11 142.31H187.259C186.996 142.31 186.783 142.083 186.783 141.805V93.9768C186.783 93.4827 186.628 93.0103 186.347 92.6173L148.399 40.7316C148.074 40.2881 147.414 40.3746 147.205 40.8903L106.477 140.522C106.041 141.589 105.813 142.743 105.813 143.904V167.59ZM157.165 76.7609V141.239C157.165 141.69 156.816 142.058 156.39 142.058H134.41C133.891 142.058 133.534 141.51 133.718 140.998L156.751 76.6744C156.834 76.44 157.165 76.5049 157.165 76.7573" fill="white"/>
<path d="M232.466 147.114V143.572C232.466 143.017 232.037 142.563 231.51 142.563H205.239C204.713 142.563 204.284 143.017 204.284 143.572V155.96C203.988 167.287 205.149 184.513 215.528 196.132C216.097 196.771 217.01 196.915 217.745 196.511C225.784 192.126 234.045 187.625 242.455 183.053C243.201 182.645 243.097 181.513 242.3 181.221C232.834 177.791 232.462 165.592 232.462 147.114" fill="white"/>
<path d="M292.072 156.172C293.241 155.545 294.002 154.297 294.038 152.912C294.07 151.755 294.085 150.583 294.085 149.389C294.564 121.838 284.294 107.936 270.201 106.674C270.201 106.422 270.439 106.166 270.68 106.166C285.725 104.146 290.98 85.1885 290.98 69.7685C290.98 40.2953 278.138 21.7415 249.523 21.0131C225.517 20.4 205.953 41.4024 205.953 66.8151V73.3134C205.953 73.8688 206.382 74.3231 206.909 74.3231H232.942C233.468 74.3231 233.897 73.8688 233.897 73.3134V69.0148C233.897 50.0572 242.019 47.5293 247.99 47.5293C257.785 47.5293 262.321 53.8509 262.321 67.5003C262.321 89.4871 255.874 92.2674 235.571 92.2674C234.853 92.2674 234.615 92.7723 234.615 93.2808V121.084C234.615 121.589 234.853 122.094 235.571 122.094C257.781 122.094 264.471 124.117 264.471 148.127C264.471 155.999 264.568 163.922 263.046 170.15C262.859 170.925 263.623 171.564 264.294 171.199C273.493 166.212 282.783 161.189 292.069 156.172" fill="white"/>
</svg>
