<svg width="400" height="225" viewBox="0 0 400 225" fill="none" xmlns="http://www.w3.org/2000/svg">
<path d="M168.733 53C177.729 53 184.927 55.2156 190.324 59.6445C195.722 64.0756 199.044 69.4372 200.291 75.7339C201.535 82.0351 200.463 88.6072 197.073 95.4572C193.678 102.309 187.693 108.157 179.116 113.001C183.544 117.983 185.828 123.901 185.965 130.753C186.101 137.603 184.062 144.177 179.84 150.476C175.617 156.775 169.149 162.101 160.431 166.462C151.711 170.821 140.708 173 127.421 173H45L59.3256 137.083H124.93C127.972 137.083 130.255 136.356 131.78 134.904C133.302 133.452 134.063 131.893 134.063 130.233C134.063 128.573 133.264 127.015 131.676 125.563C130.084 124.108 127.627 123.381 124.304 123.381H64.7211L72.8177 102.621H136.139C138.905 102.621 141.121 101.998 142.783 100.751C144.446 99.5067 145.55 98.0884 146.106 96.4961C146.659 94.9062 146.589 93.4856 145.9 92.2389C145.207 90.9945 143.89 90.3711 141.954 90.3711H77.5944L92.3333 53H168.733Z" fill="#0056A7"/>
<path d="M293.508 105.318C294.617 102.411 294.339 99.7122 292.679 97.2211C291.019 94.73 288.663 93.4833 285.619 93.4833H269.22C266.864 93.4833 264.757 94.1428 262.887 95.455C261.019 96.7739 259.599 98.4655 258.632 100.541L250.741 120.885C249.632 123.657 249.912 126.283 251.572 128.774C253.234 131.265 255.653 132.512 258.838 132.512H275.241C277.592 132.512 279.704 131.889 281.572 130.642C283.442 129.398 284.79 127.668 285.619 125.452L293.508 105.316V105.318ZM329.84 53C334.269 53 338.248 54.005 341.778 56.0106C345.308 58.0183 348.143 60.6133 350.29 63.7956C352.434 66.9823 353.818 70.6162 354.442 74.695C355.065 78.7783 354.545 82.8278 352.885 86.8411L328.595 148.292C325.689 155.766 320.946 161.755 314.374 166.252C307.797 170.751 300.498 172.998 292.471 172.998H214.619C210.188 172.998 206.211 171.995 202.681 169.987C199.151 167.982 196.28 165.351 194.064 162.098C191.853 158.848 190.467 155.214 189.913 151.199C189.362 147.188 189.913 143.172 191.576 139.159L215.658 77.7055C218.564 70.2322 223.339 64.2472 229.981 59.7483C236.626 55.254 243.959 53.0023 251.988 53.0023H329.84V53Z" fill="#0056A7"/>
</svg>
