<svg width="400" height="225" viewBox="0 0 400 225" fill="none" xmlns="http://www.w3.org/2000/svg">
<path d="M281.048 72.1878H318.332C321.324 72.1878 324.09 70.4943 325.445 67.8412L338.795 41.7903H286.298C244.328 41.7903 207.044 65.5269 183.11 116.133C177.945 127.225 174.643 136.878 173.316 145.204C172.978 147.349 174.615 149.325 176.788 149.579L209.556 153.22H152.205L203.827 41H171.962C166.486 41 161.067 42.2983 156.184 44.7538L113.509 66.2889C109.642 68.2364 106.566 71.4539 104.788 75.4053L91.9459 103.968L131.319 86.4975L169.788 68.3493L145.205 85.9894C143.173 87.4571 141.564 89.4045 140.492 91.6625L111.421 153.191H74.9831L62 185H229.2C230.386 185 231.543 185 232.7 184.944C278.31 184.266 301.991 169.251 316.893 137.132C331.033 106.537 317.514 92.5939 276.702 92.5939C253.558 92.5939 242.183 98.267 226.293 114.552H224.515C241.196 81.9533 260.021 72.1595 281.02 72.1595L281.048 72.1878ZM256.324 118.475C276.137 118.475 282.967 124.572 276.278 138.486C269.646 152.401 258.441 158.3 238.204 158.3C217.967 158.3 209.782 151.837 216.471 137.922C223.132 124.007 235.297 118.475 256.296 118.475H256.324Z" fill="white"/>
</svg>
