<svg width="400" height="225" viewBox="0 0 400 225" fill="none" xmlns="http://www.w3.org/2000/svg">
<path d="M285.705 67.3744C285.424 63.3817 284.318 59.4265 282.369 55.7337C279.313 49.9602 274.552 45.3676 268.853 42.9307C265.985 41.6936 262.892 41.0187 259.668 41.0187H227.67C234.381 45.2177 239.611 51.7035 242.179 59.6701L242.235 59.8388C242.423 60.4574 242.648 61.1885 242.854 61.957C243.06 62.8006 243.248 63.6441 243.398 64.5064L243.454 64.9188V65.0125C243.604 65.8185 243.697 66.5683 243.754 67.3181C243.81 67.9367 243.847 68.5928 243.866 69.3614V69.5863C243.885 69.8675 243.904 70.1299 243.904 70.4111V71.667H255.432V184.119H285.799V67.4869L285.705 67.3556V67.3744Z" fill="#D2162C"/>
<path d="M237.399 69.4738C237.399 68.874 237.362 68.2929 237.305 67.7118C237.249 67.0557 237.155 66.4184 237.062 65.781C237.043 65.6311 237.024 65.4811 236.987 65.3312C236.856 64.6188 236.706 63.9065 236.537 63.1942C236.387 62.5756 236.199 61.9758 236.012 61.3759C236.012 61.3385 235.993 61.2822 235.974 61.2447C232.188 49.5103 221.222 41 208.232 41H143.411C127.29 41 114 54.0841 114 70.2049V83.1015H144.817V71.817H206.263V97.5915H159.438V128.408H206.62V154.183H144.817V142.898H114V155.795C114 171.916 127.29 185 143.411 185H208.232C211.006 185 213.687 184.569 216.236 183.838C216.348 183.838 216.461 183.782 216.573 183.744C217.079 183.594 217.586 183.425 218.073 183.257C218.317 183.163 218.579 183.069 218.823 182.957C219.685 182.619 220.547 182.226 221.372 181.813C221.634 181.682 221.916 181.532 222.178 181.401C222.628 181.157 223.059 180.914 223.49 180.632C223.828 180.426 224.146 180.201 224.465 179.995C225.027 179.62 225.59 179.227 226.115 178.795C226.508 178.477 226.902 178.177 227.295 177.839C227.558 177.614 227.82 177.371 228.083 177.146C228.701 176.583 229.282 176.002 229.845 175.384C229.882 175.328 229.939 175.29 229.976 175.234C230.426 174.728 230.857 174.222 231.269 173.697C231.401 173.509 231.551 173.341 231.682 173.153C232.019 172.703 232.357 172.253 232.657 171.785C233.013 171.241 233.35 170.679 233.688 170.098C233.763 169.966 233.856 169.835 233.931 169.704C234.362 168.898 234.775 168.073 235.131 167.211C235.15 167.155 235.168 167.117 235.187 167.061C235.525 166.236 235.843 165.393 236.106 164.53C236.106 164.493 236.124 164.455 236.143 164.399C236.968 161.737 237.437 158.926 237.437 156.02V125.672C237.437 122.991 236.968 120.254 236.162 117.593C235.9 116.655 235.6 115.737 235.225 114.837C234.869 113.881 234.475 112.963 234.044 112.081C234.437 111.294 234.775 110.488 235.093 109.663C235.431 108.82 235.712 107.976 235.993 107.133C236.518 105.408 236.949 103.646 237.174 101.884C237.343 100.703 237.437 99.4848 237.437 98.3038V70.3361C237.437 70.0362 237.399 69.755 237.399 69.4551V69.4738Z" fill="#D2162C"/>
</svg>
