<svg width="400" height="225" viewBox="0 0 400 225" fill="none" xmlns="http://www.w3.org/2000/svg">
<g clip-path="url(#clip0_3203_431)">
<path d="M119.343 196.091L100.994 179.821V156.654H126.468V170.618H165.64V125.725H130.677V100.145H165.64V55.2524H126.468V68.2251H100.994V46.1604L119.56 29.7789H172.76L191.22 46.1551V96.6887L178.104 112.996L191.22 129.187V179.816L172.765 196.091H119.343Z" fill="white"/>
<path d="M233.419 170.618H273.917V55.2524H233.419V170.618ZM226.194 196.091L207.951 179.832V46.1657L226.623 29.7789H280.719L299.391 46.1657V179.805L280.724 196.086H226.199L226.194 196.091Z" fill="white"/>
<path d="M117.54 24.435L95.6504 43.7482V73.569H131.812V60.5963H160.296V94.8013H125.333V131.069H160.296V165.274H131.812V151.31H95.6504V182.228L117.317 201.435H174.785L196.569 182.228V127.294L184.975 112.985L196.569 98.5707V43.7535L174.791 24.435H117.54Z" fill="#2D4899"/>
<path d="M119.343 196.091L100.994 179.821V156.654H126.468V170.618H165.64V125.725H130.677V100.145H165.64V55.2524H126.468V68.2251H100.994V46.1604L119.56 29.7789H172.76L191.22 46.1551V96.6887L178.104 112.996L191.22 129.187V179.816L172.765 196.091H119.343Z" fill="white"/>
<path d="M238.763 60.5963H268.574V165.274H238.763V60.5963ZM224.609 24.435L202.607 43.7429V182.222L224.158 201.435H282.723L304.73 182.238V43.7429L282.728 24.435H224.609Z" fill="#2D4899"/>
<path d="M233.419 170.618H273.917V55.2524H233.419V170.618ZM226.194 196.091L207.951 179.832V46.1657L226.623 29.7789H280.719L299.391 46.1657V179.805L280.724 196.086H226.199L226.194 196.091Z" fill="white"/>
</g>
<defs>
<clipPath id="clip0_3203_431">
<rect width="209.079" height="177" fill="white" transform="translate(95.6504 24.435)"/>
</clipPath>
</defs>
</svg>
