<svg width="400" height="225" viewBox="0 0 400 225" fill="none" xmlns="http://www.w3.org/2000/svg">
<path d="M187.069 200.986C171.143 200.986 157.786 198.461 147 193.403C136.214 188.353 128.372 181.762 123.482 173.645C118.586 165.528 116.974 156.662 118.627 147.046C118.961 145.554 119.746 144.271 120.989 143.196C122.232 142.12 123.6 141.579 125.094 141.579H166.656C169.142 141.579 171.011 142.079 172.261 143.071C173.504 144.063 174.206 145.055 174.372 146.054C175.199 148.878 176.317 151.236 177.734 153.137C179.144 155.045 180.971 156.453 183.207 157.369C185.45 158.285 188.222 158.736 191.542 158.736C195.188 158.736 198.8 157.952 202.37 156.377C205.933 154.802 209.003 152.485 211.579 149.412C214.149 146.345 215.934 142.578 216.928 138.103C218.087 132.47 217.303 127.745 214.566 123.937C211.829 120.128 207.308 118.22 201.001 118.22C197.681 118.22 194.903 118.595 192.66 119.337C190.423 120.086 188.465 120.954 186.812 121.946C185.152 122.938 183.658 123.812 182.332 124.554C181.005 125.303 179.679 125.671 178.352 125.671H137.297C135.637 125.671 134.435 125.012 133.685 123.687C132.935 122.362 132.81 120.87 133.31 119.212L161.433 31.9505C162.259 29.3004 163.676 27.3093 165.663 25.9842C167.656 24.6591 169.726 24 171.886 24H277.659C279.312 24 280.681 24.6175 281.764 25.8662C282.841 27.1081 283.216 28.6482 282.882 30.4659L276.659 59.7982C276.166 61.4563 275.166 62.9479 273.672 64.273C272.179 65.5981 270.519 66.2572 268.693 66.2572H196.272L188.305 91.1147C192.952 88.298 197.8 86.189 202.863 84.7807C207.926 83.3723 214.601 82.6647 222.901 82.6647C230.694 82.6647 237.959 84.1563 244.675 87.1395C251.398 90.1226 257.08 94.2644 261.726 99.5717C266.366 104.879 269.602 111.13 271.429 118.338C273.256 125.546 273.256 133.379 271.429 141.836C269.102 153.269 264.588 163.426 257.864 172.285C251.141 181.151 241.931 188.158 230.235 193.292C218.539 198.433 204.141 201 187.055 201L187.069 200.986Z" fill="white"/>
</svg>
