<svg width="400" height="225" viewBox="0 0 400 225" fill="none" xmlns="http://www.w3.org/2000/svg">
<path d="M89.7892 185.148C144.825 185.148 172.693 170.814 184.997 137.009C196.982 104.094 181.938 88.5208 138.228 88.5208C118.407 88.5208 103.553 91.8793 91.8483 96.8371L102.544 73.2975H199.171L211.265 40.0322H71.2874L33.9939 123.025H79.8236C87.3103 117.538 93.8374 116.129 112.069 116.129C140.557 116.129 145.225 119.847 139.817 134.71C134.469 149.394 127.363 152.402 100.634 152.402C73.9062 152.402 68.1588 149.744 72.5968 137.539H27.8366C15.662 170.984 32.2747 185.138 89.7892 185.138V185.148Z" fill="white"/>
<path d="M254.606 185.148C309.642 185.148 337.51 170.814 349.814 137.009C361.799 104.094 346.755 88.5208 303.045 88.5208C283.224 88.5208 268.37 91.8793 256.665 96.8371L267.361 73.2975H363.988L376.083 40.0322H236.104L198.821 123.025H244.651C252.137 117.538 258.664 116.129 276.896 116.129C305.384 116.129 310.052 119.847 304.644 134.71C299.296 149.394 292.19 152.402 265.461 152.402C238.733 152.402 232.986 149.744 237.424 137.539H192.654C180.479 170.984 197.092 185.138 254.606 185.138V185.148Z" fill="white"/>
</svg>
