<svg width="400" height="225" viewBox="0 0 400 225" fill="none" xmlns="http://www.w3.org/2000/svg">
<path d="M138.849 201.031C116.85 201.031 99.9109 194.123 88.4952 180.502C74.5318 163.836 69.845 137.749 75.2981 107.049C79.6893 82.1287 89.1642 62.2689 103.466 48.0255C119.452 32.1057 140.774 24.035 166.838 24.035H218.07V29.7798H215.842L210.925 57.7182H212.143V63.463H164.232C143.528 63.463 130.265 75.6372 123.765 100.651H123.796L137.079 89.266H153.559C174.768 89.266 191.591 95.3297 202.197 106.8C211.131 116.461 215.235 129.511 214.06 144.544L213.854 147.193H181.68C182.283 160.961 186.511 171.868 194.263 179.643L196.499 181.883L194.053 183.89C180.587 194.948 160.984 201.035 138.857 201.035L138.849 201.031ZM166.838 29.7798C142.349 29.7798 122.392 37.2905 107.519 52.0978C94.0727 65.4894 85.1346 84.3147 80.9534 108.052C75.7998 137.053 80.0433 161.475 92.8981 176.815C103.17 189.075 118.627 195.29 138.845 195.29C158.343 195.29 175.647 190.351 187.985 181.319C180.043 172.101 175.966 159.678 175.854 144.338L175.834 141.444H208.475C208.879 129.176 205.274 118.585 197.973 110.693C188.479 100.429 173.119 95.0069 153.551 95.0069H139.195L125.912 106.392H116.515L117.301 102.891C124.038 72.9145 139.825 57.7182 164.22 57.7182H205.083L210.004 29.7798H166.83H166.838ZM141.459 170.673C132.073 170.673 124.909 167.97 120.171 162.634C111.692 153.089 112.388 136.878 113.94 123.82L114.24 121.288H142.17C155.69 121.288 164.158 123.875 168.814 129.429C172.602 133.949 173.734 140.145 172.275 148.379C169.883 161.922 157.787 170.677 141.459 170.677V170.673ZM119.358 127.029C117.733 142.949 119.37 153.085 124.461 158.818C128.114 162.929 133.672 164.929 141.455 164.929C154.858 164.929 164.733 158.04 166.616 147.379C167.76 140.919 167.04 136.255 164.411 133.12C160.93 128.966 153.862 127.033 142.17 127.033H119.362L119.358 127.029Z" fill="white"/>
<path d="M244.908 201.031C221.676 201.031 204.045 195.924 192.497 185.854C181.583 176.337 175.986 162.369 175.857 144.338L175.838 141.444H221.925V144.314C221.925 158.569 229.377 164.925 246.094 164.925C259.498 164.925 269.373 158.036 271.252 147.375C272.395 140.915 271.676 136.251 269.046 133.116C265.565 128.962 258.498 127.029 246.806 127.029H210.385L216.95 91.4558L268.163 63.4591H204.08L211.023 24.035H308.474C314.76 24.035 320.147 26.3259 323.647 30.4877C327.167 34.6767 328.513 40.4021 327.432 46.6097L322.663 73.2218L275.997 95.3259C291.275 98.7759 303.173 106.065 310.614 116.601C317.689 126.617 320.139 138.842 317.704 151.953C315.02 166.726 306.584 179.176 293.309 187.951C280.369 196.508 263.632 201.027 244.908 201.027V201.031ZM181.672 147.189C182.326 162.097 187.227 173.641 196.27 181.525C206.74 190.658 223.103 195.286 244.904 195.286C280.793 195.286 307.152 177.869 312.049 150.919C314.2 139.355 312.076 128.64 305.919 119.919C298.521 109.445 285.962 102.541 269.599 99.9505L266.643 99.4837L267.988 92.7627L317.525 69.2973L321.773 45.6101C322.554 41.1138 321.66 37.0493 319.248 34.1827C316.825 31.3006 313.099 29.7759 308.47 29.7759H215.838L210.918 57.7143H276.646L275.546 65.9678L222.1 95.1858L217.281 121.284H246.798C260.318 121.284 268.786 123.871 273.441 129.425C277.23 133.945 278.362 140.141 276.903 148.375C274.515 161.918 262.419 170.67 246.087 170.67C227.355 170.67 217.339 162.774 216.27 147.189H181.668H181.672Z" fill="white"/>
</svg>
