<svg width="64" height="64" viewBox="0 0 64 64" fill="none" xmlns="http://www.w3.org/2000/svg">
<rect width="64" height="64" fill="#229971"/>
<path d="M22.0098 32.5439H22.6097L22.3097 31.6869L22.0098 32.5439ZM21.3841 33.3847L22.2574 31.0931H22.4844L23.3577 33.3847H22.9008L22.6996 32.8104H21.9162L21.712 33.3847H21.3841ZM23.4837 33.2791L23.449 32.8648C23.6488 33.0508 23.8595 33.1442 24.0806 33.1442C24.2066 33.1442 24.3017 33.1166 24.3658 33.0622C24.4881 32.9582 24.4881 32.7746 24.399 32.6577C24.3231 32.5586 24.1912 32.4985 23.8765 32.3319C23.5972 32.1841 23.4572 31.9696 23.4572 31.6869C23.4572 31.4904 23.5183 31.3336 23.6407 31.2166C23.9089 30.9607 24.3518 31.0582 24.396 31.0672C24.4808 31.0842 24.5626 31.111 24.6422 31.1476L24.6768 31.5424C24.5817 31.4676 24.4926 31.4132 24.4108 31.3783C24.127 31.2605 23.8242 31.3401 23.8242 31.6098C23.8242 31.7414 23.9008 31.8315 24.06 31.9209C24.4255 32.124 24.5972 32.2036 24.7284 32.3847C24.8883 32.6073 24.8964 33.037 24.64 33.2612C24.5058 33.3782 24.3209 33.4359 24.0836 33.4359C23.7733 33.4359 23.5655 33.3303 23.4837 33.2791ZM25.4631 33.3847V31.3726C25.2929 31.3766 25.1131 31.3896 24.8397 31.427L24.8633 31.0931H26.4617L26.4853 31.427C26.1404 31.3799 25.9547 31.3742 25.8596 31.3726V33.3847H25.4631ZM27.5421 33.1572C27.8656 33.1572 28.1597 32.8721 28.1597 32.2393C28.1597 32.1865 28.1714 31.6788 27.87 31.4335C27.7779 31.3588 27.6688 31.3214 27.5428 31.3214C27.111 31.3214 26.9253 31.7633 26.9253 32.2393C26.9253 32.8681 27.2164 33.1572 27.5421 33.1572ZM27.5421 33.4359C26.9216 33.4359 26.4941 32.9395 26.4941 32.2385C26.4941 31.5375 26.926 31.0412 27.5421 31.0412C28.1582 31.0412 28.59 31.5269 28.59 32.2385C28.59 32.9501 28.1626 33.4359 27.5421 33.4359ZM28.9106 33.3847V31.0931H29.1258L30.369 32.6495V31.0931H30.6631V33.3847H30.4449L29.2047 31.825V33.3847H28.9106ZM31.7707 33.3847L32.0036 31.0931H32.2158L32.9557 32.6918L33.6691 31.0931H33.8814L34.1142 33.3847H33.692L33.5726 31.9696L32.9904 33.2921H32.798L32.207 31.9859L32.0876 33.3855L31.7707 33.3847ZM34.9182 32.5439H35.5181L35.2182 31.6869L34.9182 32.5439ZM34.2926 33.3847L35.1659 31.0931H35.3928L36.2661 33.3847H35.8092L35.608 32.8104H34.8247L34.6205 33.3847H34.2926ZM36.8491 32.1362C36.9051 32.1467 36.9603 32.1524 37.0149 32.1524C37.3539 32.1524 37.4372 31.938 37.4372 31.7511C37.4372 31.4701 37.2566 31.3531 36.9972 31.3531C36.9508 31.3531 36.9014 31.3563 36.8483 31.3628L36.8491 32.1362ZM36.4526 33.3847V31.1126C36.5683 31.0964 36.7068 31.0834 36.9183 31.0834C37.1048 31.0834 37.2669 31.1078 37.4047 31.1557C37.6044 31.2256 37.8417 31.3831 37.8417 31.7284C37.8417 31.8722 37.8012 31.9997 37.7209 32.1118C37.6406 32.2239 37.5285 32.3043 37.3848 32.3514L38.1159 33.3847H37.6354L36.9832 32.4058H36.8491V33.3847H36.4526ZM38.6045 33.3847V31.3726C38.4343 31.3766 38.2544 31.3896 37.981 31.427L38.0046 31.0931H39.6031L39.6266 31.427C39.2825 31.3799 39.0968 31.3742 39.001 31.3726V33.3847H38.6045ZM39.8971 31.0931H40.2928V33.3847H39.8971V31.0931ZM40.7011 33.3847V31.0931H40.9163L42.1595 32.6495V31.0931H42.4536V33.3847H42.2355L40.9952 31.825V33.3847H40.7011Z" fill="white"/>
<path d="M57.2838 28.4118C57.1496 28.1503 56.8851 28 56.5593 28H36.1096C35.7647 28 35.243 28 34.7006 28.5979C34.523 28.7936 34.4242 28.9878 34.3372 29.1592C34.1692 29.4906 34.0476 29.731 33.4883 29.731H30.5088C29.9494 29.731 29.8278 29.4914 29.6598 29.1592C29.5728 28.9878 29.4741 28.7936 29.2965 28.5979C28.7541 28 28.2331 28 27.8874 28H7.43919C7.11346 28 6.84889 28.1503 6.71476 28.4118C6.58064 28.6734 6.59759 29.0073 6.76046 29.3054L7.12893 29.9829C7.32717 30.3573 7.58953 30.4158 7.7804 30.4581C7.95432 30.4962 8.05897 30.5198 8.19309 30.7789L8.51735 31.4077C8.76865 31.9219 9.07154 31.9852 9.29263 32.0315C9.46286 32.0665 9.62352 32.0827 9.83945 32.5165C10.0502 32.9389 10.3686 33.5782 11.1409 33.8316C11.2168 33.856 18.761 36.2808 18.7706 36.284C19.565 36.5675 19.7736 36.8908 20.0219 37.2953C20.1693 37.535 20.5606 38.1718 21.5305 38.4594L28.7858 40.6202C29.5618 40.8509 30.0526 40.4325 30.2788 40.2116L31.595 38.8379C31.7756 38.6495 31.8891 38.5756 32.0004 38.5756C32.1116 38.5756 32.2244 38.6495 32.4057 38.8379L33.7219 40.2116C33.9496 40.4333 34.4412 40.8492 35.215 40.6193L42.4703 38.4586C43.4401 38.171 43.8314 37.5342 43.9788 37.2945C44.2257 36.8949 44.4291 36.5691 45.2294 36.2832C45.239 36.2799 52.7832 33.8552 52.8591 33.8308C53.6314 33.5774 53.9498 32.9381 54.1606 32.5157C54.3676 32.1006 54.5224 32.0689 54.686 32.0356C54.9041 31.9909 55.2225 31.9397 55.4826 31.4077L55.8069 30.7789C55.941 30.5198 56.0457 30.4971 56.2196 30.4581C56.4112 30.4158 56.6728 30.3582 56.8711 29.9829L57.2395 29.3054C57.4024 29.0073 57.4194 28.6726 57.2852 28.4118H57.2838ZM43.317 30.2647V34.2126H20.6815V30.2647H43.317ZM35.1987 40.0142C34.6401 40.0142 34.4471 39.487 34.3056 39.0719C34.1442 38.5999 33.2466 35.4961 32.9989 34.6431H34.1147C34.7227 35.7674 35.8185 37.7868 36.2968 38.6145C36.3823 38.7616 36.624 39.2205 37.0654 39.5008C35.3454 40.0134 35.3889 40.0142 35.1987 40.0142ZM37.8385 39.2181C37.2128 39.2181 36.8849 38.6852 36.6852 38.3408C36.2754 37.6333 35.3469 35.9298 34.6512 34.6431H35.8907C36.6719 35.5594 38.3264 37.4919 38.9764 38.2092C39.0744 38.3172 39.2844 38.5634 39.588 38.7494C38.081 39.1986 38.0736 39.2181 37.8385 39.2181ZM40.3736 38.4732C39.8865 38.4732 39.5453 38.1174 39.3028 37.8493C38.7302 37.2182 37.3698 35.6325 36.5245 34.6431H37.8805C38.7428 35.3417 40.7325 36.9493 41.5137 37.5374C41.6574 37.6463 41.9397 37.8372 42.2705 37.9501C40.521 38.4716 40.5579 38.4732 40.3736 38.4732ZM43.5646 36.9875C43.3399 37.3538 43.1748 37.535 42.796 37.535C42.4482 37.535 42.0716 37.3416 41.7738 37.1174C41.1261 36.6292 39.6352 35.4311 38.6602 34.6431H40.2734C42.2507 35.7316 43.0812 36.2174 43.6494 36.3994C43.7518 36.4318 43.8454 36.4546 43.9339 36.4692C43.7865 36.6333 43.6818 36.7998 43.5646 36.9875ZM44.1645 35.9802C43.712 35.9802 43.1239 35.6504 41.3037 34.6431H43.0672L45.5397 35.3385C45.7084 35.3872 45.8632 35.4278 46.0076 35.4611C44.6229 35.9063 44.4121 35.9802 44.1645 35.9802ZM48.9975 34.5002C47.5353 34.9705 47.2988 35.0728 46.8853 35.0728C46.6097 35.0728 46.2471 35.016 45.6554 34.8462H45.6539L43.7061 34.2979V33.5311L48.9975 34.5002ZM50.5075 34.0152C50.041 34.1436 49.6077 34.1013 48.923 33.9713H48.9216L43.7069 33.0161V32.4052L52.2334 33.4612L50.5075 34.0152ZM53.7228 32.2517C53.6572 32.3841 53.5909 32.5108 53.5179 32.6286C53.2209 33.0721 53.0374 33.0494 52.1236 32.934L43.7069 31.8918V31.3167L53.4125 31.9438C53.4862 31.9487 53.6815 31.9625 53.8812 31.9763C53.8282 32.0543 53.7759 32.1444 53.7228 32.2517ZM55.3728 30.5068C55.3728 30.5068 55.1938 30.8545 55.1016 31.0324C54.8201 31.5368 54.6786 31.5287 53.8562 31.4653L43.7069 30.8066V30.3427H55.4686C55.4362 30.3906 55.4038 30.4459 55.3728 30.5068ZM56.8114 29.0227L56.5453 29.5125C56.3589 29.835 56.2859 29.835 55.6573 29.835H34.5281C34.7544 29.5507 34.8118 29.2526 35.0536 28.9853C35.4515 28.5467 35.7957 28.5483 36.1104 28.5483H56.5601C56.7016 28.5483 56.8077 28.5971 56.8512 28.6815C56.8954 28.7685 56.8806 28.8968 56.8114 29.0227ZM29.8485 39.8915C29.9362 39.7494 30.018 39.5633 30.1248 39.2514C30.2906 38.7673 31.2199 35.5529 31.4838 34.6431H32.5133C32.7779 35.5529 33.7064 38.7673 33.8722 39.2514C33.9791 39.5633 34.0609 39.7485 34.1486 39.8915C34.1176 39.8655 34.0859 39.8371 34.055 39.807L32.7454 38.4407C32.5398 38.2263 32.3077 38.0281 31.9982 38.0281C31.6886 38.0281 31.4565 38.2263 31.2509 38.4407L29.9413 39.807C29.9096 39.8371 29.8794 39.8655 29.8485 39.8915ZM26.9331 39.5008C27.3745 39.2205 27.6162 38.7616 27.7017 38.6145C28.1807 37.7876 29.2766 35.7682 29.8838 34.6431H30.9996C30.752 35.4961 29.8544 38.5999 29.693 39.0719C29.5515 39.4862 29.3584 40.0142 28.7998 40.0142C28.6096 40.0142 28.6531 40.0134 26.9331 39.5008ZM24.4105 38.7486C24.7141 38.5626 24.9241 38.3164 25.0222 38.2084C25.6722 37.4919 27.3266 35.5586 28.1078 34.6423H29.3473C28.6509 35.929 27.7231 37.6325 27.3133 38.34C27.1136 38.6844 26.7857 39.2173 26.16 39.2173C25.9249 39.2173 25.9183 39.1978 24.4105 38.7486ZM21.7287 37.9501C22.0596 37.8372 22.3419 37.6463 22.4856 37.5374C23.2667 36.9493 25.2565 35.3417 26.1187 34.6431H27.4747C26.6295 35.6325 25.269 37.2182 24.6964 37.8493C24.454 38.1174 24.1128 38.4732 23.6256 38.4732C23.4407 38.4732 23.4775 38.4716 21.7287 37.9501ZM20.0647 36.4692C20.1531 36.4546 20.2467 36.4327 20.3491 36.3994C20.9173 36.2174 21.7479 35.7316 23.7251 34.6431H25.3383C24.3633 35.4311 22.8725 36.6292 22.2247 37.1174C21.927 37.3416 21.5504 37.535 21.2025 37.535C20.8237 37.535 20.6587 37.3538 20.4339 36.9875C20.3167 36.7998 20.2121 36.6341 20.0647 36.4692ZM17.9909 35.4611C18.1353 35.4278 18.2901 35.3872 18.4589 35.3385L20.9313 34.6431H22.6949C20.8746 35.6504 20.2865 35.9802 19.834 35.9802C19.5864 35.9802 19.3756 35.9071 17.9909 35.4611ZM20.2917 33.5311V34.2979L18.3439 34.8454H18.3424C17.7506 35.016 17.3881 35.0728 17.1124 35.0728C16.699 35.0728 16.4624 34.9705 15.0003 34.5002L20.2917 33.5311ZM11.7651 33.4596L20.2917 32.4036V33.0144L15.077 33.9697H15.0755C14.3901 34.0997 13.9575 34.1419 13.491 34.0144L11.7651 33.4596ZM10.1165 31.9763C10.3163 31.9625 10.5115 31.9487 10.5852 31.9438L20.2909 31.3167V31.8918L11.8742 32.934C10.9604 33.0494 10.7769 33.0721 10.4799 32.6286C10.4069 32.5108 10.3413 32.3833 10.275 32.2517C10.2219 32.1453 10.1696 32.0543 10.1165 31.9763ZM8.52914 30.3435H20.2909V30.8074L10.1416 31.4662C9.31842 31.5287 9.17766 31.5368 8.89615 31.0332C8.80403 30.8553 8.62642 30.5109 8.62495 30.5076C8.59326 30.4467 8.56157 30.3923 8.52914 30.3435ZM7.14809 28.6823C7.19157 28.5979 7.29769 28.5491 7.43919 28.5491H27.8889C28.2036 28.5491 28.5477 28.5475 28.9457 28.9862C29.1882 29.2534 29.2449 29.5515 29.4711 29.8358H8.34196C7.71334 29.8358 7.63964 29.8358 7.45393 29.5133L7.18789 29.0235C7.11861 28.8968 7.10314 28.7693 7.14809 28.6823Z" fill="white"/>
</svg>
