<svg width="64" height="64" viewBox="0 0 64 64" fill="none" xmlns="http://www.w3.org/2000/svg">
<rect width="64" height="64" fill="#E8002D"/>
<path d="M17 15.6699V16.4249L32 13.9189L47 16.4279V15.6699L32 12.9427L17 15.6699Z" fill="white"/>
<path d="M47 16.4186L32 13.9141L17 16.4186L17.0373 18.8895C17.0373 18.8895 24.5753 15.6773 32 15.6773C39.4247 15.6773 46.9627 18.8895 46.9627 18.8895L47 16.4186Z" fill="black"/>
<path d="M31.9975 15.5797C22.6266 15.5797 17.0348 18.8331 17.0348 18.8331L17.1482 26.2444C17.1482 29.6457 18.2805 44.1205 31.9991 52C45.7238 44.119 46.85 29.6503 46.85 26.2428L46.9634 18.8331C46.9634 18.8331 41.3747 15.5797 32.0006 15.5797H31.9975Z" fill="black"/>
<path d="M46.4001 19.3654C46.4001 19.3654 41.5259 16.3164 31.9996 16.3164C22.4734 16.3164 17.5992 19.3654 17.5992 19.3654L17.7499 26.2444C17.7499 28.9395 18.2749 43.3761 31.9996 51.2114C45.7244 43.3777 46.2494 28.941 46.2494 26.2444L46.4001 19.3654Z" fill="white"/>
<path d="M31.6613 17.4559C31.6613 17.4559 31.6458 17.6146 31.6069 17.7076C31.5728 17.793 31.4765 17.8525 31.4827 17.9089C31.4889 17.9669 31.551 18.034 31.6458 18.0813C31.7405 18.1286 31.7778 18.1667 31.8741 18.1896C31.9626 18.2109 32.076 18.2765 32.1087 18.2018C32.1413 18.1286 32.0916 18.0371 32.0372 17.9486C31.944 17.7976 31.8959 17.761 31.7576 17.552C31.7281 17.5078 31.7048 17.459 31.6629 17.4529L31.6613 17.4559Z" fill="#231F20"/>
<path d="M30.9575 33.8295C30.9668 33.8036 31.1889 33.9408 31.3038 34.0079C31.5462 34.1498 31.6564 34.2352 31.8708 34.3938C32.0401 34.5189 32.1224 34.586 32.2933 34.7294C32.503 34.9063 32.6164 35.0573 32.6723 35.0222C32.753 34.9262 32.5387 34.6455 32.3492 34.493C32.1644 34.345 31.9733 34.2215 31.8242 34.1254C31.6347 34.0034 31.6176 33.9729 31.3334 33.7868C31.0289 33.5854 30.7649 33.3338 30.7649 33.3338L30.4682 33.1035L30.0037 32.7176L29.4881 32.2493L29.0966 31.8222C29.0966 31.8222 28.7937 31.4577 28.7456 31.3875C28.6974 31.3174 28.5545 31.0916 28.4365 30.901C28.3309 30.7302 28.1258 30.4632 28.1072 30.4404C27.9969 30.3092 27.7437 30.3626 27.4517 30.1933C27.0945 29.9873 27.0106 29.7997 27.0106 29.7997C27.0106 29.7997 26.9966 29.7723 26.9842 29.757C26.9702 29.7418 26.9438 29.7235 26.9438 29.7235L26.759 29.5954L26.6518 29.5252C26.6518 29.5252 26.571 29.4596 26.4685 29.4169C26.366 29.3727 26.1392 29.243 26.1392 29.243L25.7322 28.9883C25.7322 28.9883 25.5722 28.8617 25.5194 28.8205C25.4666 28.7793 25.3657 28.7229 25.3657 28.7229C25.3657 28.7229 25.302 28.6909 25.2833 28.6893C25.2631 28.6893 25.1793 28.6802 25.1793 28.6802C25.1793 28.6802 25.1016 28.6604 25.0208 28.7519C24.9416 28.8434 24.9603 28.7946 25.0892 29.3132C25.1404 29.5176 25.1358 30.2405 25.1901 30.4587C25.2616 30.7424 25.462 31.1069 25.4822 31.1496C25.5023 31.1923 25.5163 31.3494 25.5163 31.3494C25.5163 31.3494 25.5086 31.4775 25.521 31.5584C25.5831 31.9305 26.1376 31.6865 26.2603 32.1975C26.3815 32.7008 26.1889 33.2057 26.1889 33.2057C26.1889 33.2057 26.0693 33.4558 25.9 33.4955C25.7322 33.5351 25.4713 33.169 25.2818 32.8716C25.0954 32.5803 24.9432 32.1975 24.8935 32.077C24.8438 31.9565 24.8189 31.929 24.763 31.8405C24.6791 31.7109 24.6123 31.7338 24.5191 31.5263C24.4259 31.3204 24.5083 31.2365 24.4663 31.0566C24.443 30.9559 24.4197 30.9452 24.3886 30.8034C24.3576 30.66 24.3156 30.207 24.3156 30.207L24.2566 29.7845C24.2566 29.7845 24.2364 29.5923 24.2085 29.4718C24.1137 29.0508 24.0827 28.6421 24.0827 28.6421L24.0656 28.4743L24.0578 28.3004C24.0578 28.3004 24.0531 28.2165 24.0733 28.1311C24.0935 28.0457 24.137 27.974 24.137 27.974C24.137 27.974 24.2224 27.8306 24.238 27.7971C24.2535 27.762 24.4306 27.5606 24.4306 27.5606C24.4306 27.5606 24.5222 27.4859 24.6745 27.3944C24.8267 27.3029 24.9618 27.3105 24.9618 27.3105C24.9618 27.3105 25.0006 27.3059 25.2694 27.3395C25.5381 27.373 26.091 27.5164 26.2293 27.5515C26.3675 27.5881 26.5306 27.6445 26.6393 27.7025C26.9453 27.8672 27.0385 27.7971 26.7947 27.6095C26.63 27.4829 26.5834 27.4264 26.4514 27.3075C26.3396 27.2068 26.251 27.1397 26.1687 27.0466C26.0864 26.9536 25.8472 26.6074 25.8472 26.6074L25.6981 26.3923C25.6981 26.3923 25.6173 26.3054 25.6049 26.2977C25.5924 26.2901 25.5521 26.2596 25.5521 26.2596C25.5521 26.2596 25.4542 26.2657 25.3517 26.2459C25.2492 26.226 25.201 26.3664 25.201 26.3664C25.201 26.3664 24.9789 26.7706 24.7552 27.0192C24.3918 27.4219 24.1308 27.6964 23.9972 27.9099C23.8108 28.2074 23.8512 28.5322 23.7549 28.6832C23.699 28.7717 23.6679 28.7839 23.6369 28.8617C23.5421 29.0951 23.8854 29.2232 23.8062 29.4825C23.6819 29.8913 22.7018 30.2985 22.5713 30.2314C22.4377 30.1612 22.5465 29.606 22.5931 29.4261C22.6381 29.2461 22.7763 28.9807 22.7888 28.9669C22.8012 28.9532 22.8338 28.8907 22.8447 28.8373C22.8556 28.7839 22.8587 28.6649 22.8649 28.5978C22.8711 28.5307 22.8991 28.4255 22.8991 28.4255C22.8991 28.4255 22.9037 28.4041 22.9891 28.218C23.0761 28.032 23.3946 27.6018 23.6244 27.19C23.7736 26.9216 23.8372 26.7584 23.9879 26.4899C24.1277 26.2428 24.3638 25.8661 24.3638 25.8661C24.3638 25.8661 24.4648 25.6739 24.5129 25.6022C24.5595 25.5305 24.6605 25.3902 24.7537 25.2544C24.8484 25.1172 24.8717 25.015 24.996 24.9036C25.0985 24.8106 25.1684 24.7603 25.302 24.7176C25.5023 24.6535 25.6375 24.6886 25.841 24.7435C26.0522 24.7999 26.1982 24.896 26.3349 25.0074C26.4716 25.1202 26.5741 25.2453 26.5741 25.2453L26.6409 25.3414L26.6813 25.3658L26.8102 25.4466L27.1038 25.6373C27.1038 25.6373 27.7996 26.1025 27.8369 26.1269C27.8742 26.1513 27.9985 26.252 28.0233 26.2596C28.0482 26.2672 28.233 26.0705 28.5965 25.8234C29.0174 25.5381 29.1665 25.5595 29.3048 25.4848C29.443 25.41 29.5005 25.3475 29.6077 25.2422C29.7708 25.0821 29.7723 24.9967 29.9571 24.7725C30.1435 24.5483 30.3175 24.4247 30.3175 24.4247C30.3175 24.4247 30.3439 24.3988 30.6748 24.0312C31.0072 23.6636 31.1532 23.386 31.1532 23.386L31.3349 23.0276C31.3349 23.0276 31.599 22.4708 31.6828 22.2512C31.7667 22.03 31.7667 21.9568 31.7667 21.9568C31.7667 21.9568 31.7791 21.8989 31.7139 21.7875C31.6487 21.6762 31.5803 21.7265 31.4561 21.7524C31.2138 21.8028 31.0677 21.7402 30.8239 21.6991C30.6002 21.6609 30.4837 21.5969 30.26 21.5587C30.0333 21.5206 29.8997 21.4855 29.6729 21.5069C29.6372 21.5099 29.5688 21.5237 29.5347 21.5359C29.4073 21.5786 29.37 21.5877 29.2753 21.6411C29.165 21.6914 29.092 21.7082 28.9693 21.7113C28.8854 21.7128 28.8326 21.7158 28.7549 21.6853C28.7005 21.6655 28.671 21.6502 28.6275 21.6121C28.6011 21.5892 28.5872 21.574 28.5685 21.545C28.5654 21.5206 28.5592 21.5221 28.5809 21.484C28.6042 21.4459 28.6338 21.4398 28.6338 21.4398L28.7378 21.4138C28.7378 21.4138 28.8838 21.3757 28.8978 21.3727C28.9102 21.3696 29.0516 21.3254 29.1122 21.3055C29.1743 21.2857 29.2426 21.2506 29.2426 21.2506C29.2426 21.2506 29.2799 21.1927 29.2659 21.1576C29.2489 21.1195 29.165 21.1164 29.165 21.1164C29.165 21.1164 29.0485 21.1576 29.0345 21.1606C29.0221 21.1637 28.8357 21.2216 28.8357 21.2216C28.8357 21.2216 28.6897 21.2537 28.5747 21.2796C28.4613 21.3055 28.2982 21.3177 28.2982 21.3177L28.2485 21.3055C28.2485 21.3055 28.1926 21.2689 28.1833 21.2323C28.1755 21.1988 28.1693 21.1728 28.1631 21.1332C28.1398 20.9913 28.1103 20.9059 28.1445 20.7656C28.1585 20.7076 28.1724 20.6756 28.1973 20.6207C28.219 20.5749 28.233 20.549 28.261 20.5063L28.3526 20.3629L28.5219 20.1174C28.5794 20.0594 28.6182 20.0304 28.6912 19.9908C28.8 19.9313 28.8621 19.9145 28.9972 19.8992C29.1308 19.8855 29.1463 19.887 29.3358 19.8443C29.5253 19.8032 29.6574 19.7299 29.6574 19.7299C29.6574 19.7299 30.1078 19.5667 30.3827 19.434C30.6701 19.2952 30.7975 19.1473 31.0957 19.0329C31.2215 18.9841 31.2945 18.9612 31.425 18.9292C31.4405 18.92 31.4498 18.9093 31.4545 18.891C31.4685 18.8438 31.3939 18.8224 31.3442 18.827C31.3007 18.8316 31.1967 18.8773 31.1734 18.827C31.1547 18.7873 31.2666 18.7644 31.2666 18.7644C31.2666 18.7644 31.3194 18.74 31.3209 18.7111C31.3209 18.6684 31.2448 18.6958 31.2106 18.6928C31.0367 18.6745 31.0227 18.6424 30.9015 18.6134C30.7586 18.5784 30.681 18.5357 30.5334 18.5296C30.4014 18.5235 30.2802 18.5524 30.1979 18.5707C30.1171 18.5906 30.114 18.5128 30.1451 18.4975C30.375 18.3923 30.3796 18.3831 30.5412 18.377C30.6297 18.3725 30.754 18.3923 30.7664 18.3984C30.7788 18.4045 30.9575 18.3953 31.0025 18.3511C31.0476 18.3069 30.8565 18.3084 30.7664 18.2733C30.6841 18.2413 30.5567 18.2321 30.5598 18.1787C30.5629 18.1238 30.6251 18.1543 30.6686 18.1437C30.7229 18.1299 30.7555 18.1315 30.813 18.1238C30.914 18.1101 30.9233 18.101 31.074 18.0888C31.2231 18.075 31.439 18.136 31.439 18.136C31.439 18.136 31.6642 18.2352 31.7745 18.287C31.8848 18.3389 32.0183 18.3633 32.0183 18.3633C32.0183 18.3633 32.1752 18.3862 32.2948 18.3114C32.416 18.2382 32.3476 18.1909 32.3042 18.1238C32.2622 18.0598 32.211 17.9698 32.2886 17.7974C32.357 17.6464 32.3927 17.4725 32.4113 17.4558C32.4346 17.4359 32.5309 17.5717 32.5915 17.6266C32.8105 17.8279 33.1025 17.9286 33.3759 18.3511C33.3977 18.3847 33.5002 18.3313 33.8201 18.3786C34.1386 18.4274 34.4151 18.7614 34.4881 18.8422C34.5595 18.9215 34.6543 18.9185 34.6543 18.9185L34.8065 18.9383L35.3626 18.9475C35.3626 18.9475 35.6142 18.9032 35.7602 18.9566C35.8612 18.9948 36.2013 19.2159 36.046 19.3013C35.9373 19.3608 35.8363 19.2312 35.7384 19.2236C35.6235 19.2159 35.5722 19.2373 35.4697 19.2632C35.2538 19.3166 34.7909 19.4539 34.9587 19.5088C34.9727 19.5134 34.9944 19.5179 34.9944 19.5179L35.0783 19.5301C35.0783 19.5301 35.2818 19.5759 35.4045 19.6232C35.5909 19.6964 35.6763 19.7757 35.8503 19.8733C35.9466 19.9282 35.9901 19.9847 36.0973 20.0152C36.1951 20.0426 36.2572 20.0152 36.3582 20.0319C36.4902 20.0548 36.5648 20.0807 36.6844 20.1372C36.863 20.2226 36.9283 20.3248 37.0898 20.4377C37.1706 20.4941 37.2374 20.5032 37.2964 20.5795C37.3104 20.5963 37.3212 20.6054 37.3274 20.6253C37.3492 20.6954 37.2094 20.6542 37.1348 20.642C37.0541 20.6283 37.0183 20.5887 36.9438 20.5551C36.832 20.5048 36.7791 20.4468 36.658 20.4255C36.5695 20.4102 36.5166 20.4224 36.4265 20.4255C36.3396 20.43 36.2914 20.4422 36.2044 20.4438C36.0553 20.4453 35.9699 20.4331 35.8239 20.4026C35.6592 20.369 35.5785 20.305 35.4138 20.2729C35.2305 20.2363 34.9028 20.0807 34.9354 20.2348C34.9509 20.3095 35.1249 20.3721 35.1249 20.3721C35.1249 20.3721 35.2414 20.4361 35.3563 20.4834C35.4697 20.5307 35.5319 20.6054 35.5319 20.6054L35.6095 20.6634C35.6095 20.6634 35.6903 20.7717 35.7944 20.8937C35.8984 21.0157 36.0802 21.0112 36.0802 21.0112C36.0802 21.0112 36.1905 21.0112 36.4281 21.0584C36.6658 21.1073 36.9096 21.2506 36.9096 21.2506C36.9096 21.2506 37.096 21.3757 37.2032 21.5008C37.3104 21.6258 37.2482 21.6899 37.2358 21.7021C37.2234 21.7143 37.2265 21.7082 37.2125 21.7143C37.2001 21.7204 37.0665 21.5572 37.0665 21.5572L36.9718 21.4779C36.9718 21.4779 36.877 21.4138 36.7574 21.3757C36.6378 21.3376 36.5974 21.3635 36.5974 21.3635C36.5974 21.3635 36.3396 21.4337 36.119 21.4276C35.8984 21.4215 35.7804 21.3345 35.7804 21.3345L35.6406 21.2415C35.6406 21.2415 35.4293 21.0478 35.4231 21.1393C35.4185 21.2018 35.5163 21.2705 35.5163 21.2705C35.5163 21.2705 35.5847 21.3376 35.6297 21.3803C35.7136 21.4626 35.7493 21.5023 35.8472 21.5892C35.945 21.6762 36.0072 21.6747 36.0072 21.6747C36.0072 21.6747 36.06 21.6869 36.0786 21.6914C36.0988 21.6945 36.1345 21.7036 36.1345 21.7036C36.1345 21.7036 36.1672 21.7158 36.3194 21.7768C36.4731 21.8379 36.6347 21.969 36.6347 21.969C36.6347 21.969 36.6502 21.9812 36.6735 21.9843C36.6968 21.9873 36.7419 22.0102 36.7543 22.0133C36.7667 22.0163 36.8071 22.0163 36.8941 22.0285C36.9826 22.0407 36.95 22.0956 36.95 22.0956L36.9329 22.1185L36.8615 22.1658C36.8615 22.1658 36.7667 22.1917 36.7015 22.1948C36.6362 22.1978 36.5462 22.1627 36.5462 22.1627L36.3473 22.0895C36.3473 22.0895 36.1485 22.0392 36.1066 22.0316C36.0646 22.0255 35.8845 21.9904 35.8565 21.9843C35.827 21.9782 35.7353 21.9461 35.7136 21.9339C35.6903 21.9217 35.6453 21.9111 35.5381 21.8607C35.4309 21.8089 35.389 21.7494 35.2554 21.7067C35.1218 21.6655 35.041 21.6563 34.9401 21.725C34.7676 21.8424 35.201 21.8607 35.4185 21.966C35.7353 22.12 35.9155 22.2329 35.9916 22.4007C36.0677 22.5669 36.1454 22.6279 36.1454 22.6279C36.1454 22.6279 36.3691 22.7393 36.47 22.8552C36.5244 22.9177 36.5322 22.9696 36.5881 23.0337C36.7108 23.174 36.95 23.1679 36.9966 23.2869C37.0416 23.3997 36.804 23.3494 36.6782 23.3372C36.4545 23.3158 36.4017 23.116 36.1936 23.0337C36.0755 22.9879 35.9994 22.9864 35.8798 22.9467C35.6608 22.875 35.5583 22.782 35.3377 22.7149C35.2057 22.6752 34.9649 22.5029 34.9929 22.6356C34.9991 22.6676 35.0193 22.6935 35.0286 22.7118C35.0379 22.7317 35.0938 22.8018 35.0938 22.8018C35.0938 22.8018 35.1684 22.8979 35.201 22.9238C35.2336 22.9498 35.3765 23.055 35.5785 23.1633C35.7804 23.2716 35.9559 23.4806 35.9559 23.4806C35.9559 23.4806 36.0165 23.5645 36.0429 23.6239C36.074 23.6911 36.0522 23.7109 36.0988 23.8024C36.1439 23.8954 36.1656 23.9122 36.2262 23.9687C36.3737 24.109 36.5291 24.0815 36.717 24.1578C36.7683 24.1776 36.7729 24.1868 36.8273 24.2447C36.8832 24.3027 36.818 24.3271 36.818 24.3271C36.818 24.3271 36.6083 24.3789 36.4731 24.3683C36.2976 24.3545 36.22 24.3012 36.0475 24.2188C35.8751 24.1349 35.7835 23.9854 35.768 23.9763C35.7524 23.9671 35.7089 23.9214 35.6763 23.9C35.6437 23.8771 35.5598 23.8604 35.4837 23.839C35.4076 23.8192 35.3641 23.8146 35.288 23.7948C35.1839 23.7658 35.0768 23.7216 35.027 23.7048C34.9773 23.6895 34.8655 23.6697 34.7847 23.717C34.6216 23.8115 35.0379 23.8771 35.1684 24.0114C35.2352 24.08 35.2616 24.1288 35.3253 24.2005C35.3734 24.2554 35.3936 24.2951 35.4526 24.3378C35.493 24.3667 35.566 24.3988 35.566 24.3988C35.566 24.3988 35.667 24.443 35.813 24.5238C35.959 24.6032 36.1314 24.8274 36.1314 24.8274L36.2355 24.9845L36.2976 25.0745L36.3147 25.1157L36.338 25.166C36.338 25.166 36.4126 25.2621 36.4685 25.2941C36.5229 25.3261 36.5135 25.3551 36.5135 25.3551C36.5135 25.3551 36.5073 25.3749 36.4685 25.3963C36.4297 25.4192 36.4095 25.3993 36.3551 25.3841C36.2992 25.3673 36.2635 25.317 36.2153 25.2789C36.1672 25.2407 36.1143 25.1446 36.0227 25.0897C35.945 25.0424 35.841 25.0257 35.8021 25.0135C35.7633 25.0013 35.6654 24.9402 35.6266 24.9235C35.5878 24.9067 35.4868 24.8625 35.4868 24.8625C35.4868 24.8625 35.2911 24.7542 35.1839 24.7252C35.0767 24.6962 35.1451 24.7603 35.1451 24.7603C35.1451 24.7603 35.243 24.9082 35.3346 24.9677C35.4542 25.0455 35.6235 25.1157 35.5676 25.1782C35.5303 25.2209 35.4806 25.2056 35.4247 25.198C35.3346 25.1873 35.2259 25.0821 35.2259 25.0821C35.2259 25.0821 35.1808 25.0531 34.9789 24.9891C34.777 24.925 34.8515 25.0333 34.8981 25.0912C34.9432 25.1492 35.0053 25.1812 35.0053 25.1812L35.142 25.2422L35.2041 25.2621C35.2041 25.2621 35.2585 25.2712 35.4418 25.3124C35.6235 25.3536 35.7245 25.4405 35.7245 25.4405C35.7245 25.4405 35.8223 25.5305 35.959 25.6297C36.0957 25.7288 36.2324 25.7547 36.3069 25.7639C36.3815 25.773 36.3784 25.8249 36.3784 25.8249C36.3784 25.8249 36.3877 25.8722 36.3846 25.889C36.3815 25.9042 36.3644 25.9179 36.3489 25.9179C36.3334 25.9179 36.3256 25.924 36.3069 25.9332C36.2868 25.9423 36.2091 25.9561 36.2091 25.9561C36.2091 25.9561 36.0041 25.95 35.8441 25.9118C35.6841 25.8737 35.5443 25.7654 35.5319 25.7578C35.5179 25.7517 35.3688 25.6708 35.2678 25.6388C35.1668 25.6068 35.0069 25.619 34.9913 25.6266C34.9758 25.6327 34.9199 25.6434 34.8251 25.6678C34.7304 25.6937 34.8484 25.7288 34.8484 25.7288L34.9168 25.7349L35.0799 25.7471C35.0799 25.7471 35.2461 25.7669 35.389 25.8173C35.5319 25.8691 35.6235 25.9713 35.7183 26.0628C35.813 26.1559 35.9171 26.2154 35.9171 26.2154L35.9916 26.2642L36.0305 26.2932L36.0398 26.3191C36.0398 26.3191 36.0367 26.3313 36.0305 26.3481C36.0243 26.3648 36.001 26.377 36.001 26.377C36.001 26.377 35.9652 26.3709 35.9481 26.3709C35.9311 26.3709 35.8254 26.316 35.7462 26.281C35.6639 26.2459 35.622 26.2123 35.535 26.191C35.4589 26.1727 35.3594 26.165 35.3361 26.1711C35.3128 26.1772 35.1466 26.2001 35.0208 26.2093C34.8935 26.2184 34.7816 26.2199 34.631 26.2032C34.4151 26.1772 34.1308 26.011 34.0951 26.0583C34.0205 26.1544 34.2489 26.1833 34.3576 26.2459C34.5067 26.3313 34.7692 26.4091 34.7692 26.4091C34.7692 26.4091 34.9603 26.4503 35.0721 26.5021C35.316 26.6135 35.3905 26.7782 35.5862 26.9521C35.695 27.0497 35.7819 27.0909 35.9279 27.1122C36.0538 27.1305 36.0522 27.1153 36.2495 27.0771C36.4483 27.039 36.5695 26.8529 36.6269 26.92C36.6378 26.9338 36.6331 26.946 36.63 26.9643C36.6269 26.9841 36.6098 27.0192 36.6098 27.0192C36.6098 27.0192 36.5865 27.0512 36.5508 27.0863C36.5151 27.1214 36.3784 27.1946 36.3069 27.2236C36.2355 27.2525 36.06 27.2998 35.8379 27.2937C35.6157 27.2876 35.3066 27.1214 35.3066 27.1214L35.0814 27.0283C35.0814 27.0283 34.9773 26.9795 34.909 26.9551C34.7242 26.8865 34.6061 26.8926 34.4135 26.8422C34.2955 26.8117 34.2178 26.7782 34.1106 26.7568C34.0034 26.734 34.0625 26.7767 34.0749 26.7919C34.1261 26.859 34.1929 26.8789 34.2768 26.92C34.3902 26.9734 34.4694 26.9627 34.5859 27.01C34.7148 27.0619 34.8267 27.1351 34.8981 27.1793C34.9696 27.2236 35.0208 27.2739 35.0892 27.3456L35.3268 27.5439C35.3268 27.5439 35.3827 27.5881 35.389 27.6079C35.3952 27.6278 35.4216 27.675 35.4092 27.7513C35.3967 27.8276 35.3315 27.7742 35.3315 27.7742L35.2694 27.7361L35.2072 27.6781L35.1063 27.5973C35.1063 27.5973 35.0224 27.521 34.8748 27.4478C34.7288 27.3746 34.5517 27.3547 34.5517 27.3547C34.5517 27.3547 34.3964 27.3319 34.4026 27.3807C34.4088 27.428 34.4446 27.4325 34.5688 27.463C34.6931 27.4951 34.7739 27.5561 34.7739 27.5561C34.7739 27.5561 34.9012 27.6491 34.9913 27.7513C35.083 27.8535 35.1078 27.9526 35.1078 27.9526C35.1078 27.9526 35.1529 28.035 35.2709 28.1479C35.3874 28.2592 35.4495 28.2211 35.4433 28.276C35.4371 28.3309 35.3843 28.3401 35.3843 28.3401C35.3843 28.3401 35.3548 28.337 35.3424 28.337C35.3299 28.337 35.3004 28.3218 35.2678 28.308C35.2352 28.2958 35.1109 28.2119 35.1109 28.2119C35.1109 28.2119 34.9183 28.0594 34.8966 28.0426C34.8733 28.0274 34.6915 27.8932 34.6915 27.8932C34.6915 27.8932 34.5844 27.826 34.5051 27.7879C34.4275 27.7498 34.3234 27.7117 34.2644 27.6918C34.2054 27.672 34.0982 27.6659 34.0982 27.6659C34.0982 27.6659 33.9677 27.6476 33.89 27.6186C33.7658 27.5713 33.6213 27.4417 33.6042 27.4356C33.5887 27.4295 33.4707 27.3913 33.4489 27.3944C33.4256 27.3974 33.3744 27.6125 33.3619 27.7345C33.3091 28.2531 33.4489 28.5978 33.6664 29.0737C33.9817 29.7647 34.8593 30.6249 34.8593 30.6249C34.8593 30.6249 35.0799 30.7485 35.1731 30.8201C35.4356 31.023 35.8689 31.3067 36.2541 31.685C36.5834 32.0083 37.0215 32.5818 37.0215 32.5818C37.0215 32.5818 37.2746 32.9281 37.3911 33.1736C37.5356 33.4756 37.6505 33.9317 37.6505 33.9317C37.6505 33.9317 37.6614 34.0125 37.6707 34.0278C37.68 34.0446 37.7018 34.0644 37.7173 34.0644L37.8695 34.069C37.8851 34.069 38.059 34.0568 38.174 34.0278C38.2889 34.0003 38.5608 33.8783 38.7394 33.7853C38.918 33.6922 39.1339 33.5138 39.1339 33.5138C39.1339 33.5138 39.1743 33.4802 39.384 33.2499C39.5937 33.0211 39.7304 32.6764 39.7801 32.5467C39.8298 32.4171 39.8717 32.17 39.9028 31.7445C39.9338 31.3204 39.8748 30.8705 39.8748 30.8705C39.8748 30.8705 39.7956 30.2436 39.7475 30.0316C39.6993 29.818 39.5844 29.4733 39.5844 29.4733C39.5844 29.4733 39.5051 29.1637 39.4787 28.9685C39.4523 28.7732 39.4477 28.456 39.4477 28.456C39.4477 28.456 39.4477 28.2607 39.5129 27.9023C39.5781 27.5439 39.8018 27.1839 39.8018 27.1839C39.8018 27.1839 39.864 27.0619 40.1063 26.7782C40.3532 26.4884 40.4309 26.4411 40.6748 26.2703C40.8674 26.1345 41.119 25.9149 41.1998 25.9652C41.2899 26.0217 41.1112 26.133 41.0522 26.1894C40.9 26.3359 40.6157 26.5982 40.3859 26.9917C40.187 27.3319 40.1109 27.5576 40.0612 27.7803C40.0115 28.003 40.0317 28.2455 40.0379 28.3294C40.0441 28.4133 40.0907 28.3828 40.0907 28.3828C40.0907 28.3828 40.5785 27.9984 40.8441 27.7071C41.1314 27.3913 41.3862 26.83 41.4871 26.8255C41.5539 26.8224 41.5865 26.9719 41.571 27.0421C41.5073 27.3334 41.4856 27.37 41.3893 27.5622C41.279 27.7849 41.1765 27.884 41.0227 28.0869C40.8612 28.3019 40.7819 28.3843 40.653 28.668C40.4666 29.0768 40.5754 29.391 40.5754 29.391C40.5754 29.391 40.5987 29.5832 40.6856 29.5801C40.8332 29.5755 41.1547 29.1759 41.366 28.8495C41.5213 28.6085 41.5772 28.3324 41.6813 28.186C41.7729 28.0564 41.8553 28.395 41.8149 28.5948C41.7683 28.8312 41.6487 29.0447 41.3862 29.3803C41.1283 29.7082 41.1376 30.0209 41.1376 30.0209C41.1376 30.0209 41.1097 30.1643 41.0895 30.4739C41.0693 30.7835 41.1594 31.2533 41.1594 31.2533C41.1594 31.2533 41.2402 31.6453 41.2557 31.9427C41.2712 32.2402 41.2603 32.922 40.9777 33.4497C40.8643 33.6617 40.6204 33.9561 40.6204 33.9561C40.6204 33.9561 40.434 34.1452 40.2802 34.255C40.1265 34.3649 39.7583 34.5342 39.7583 34.5342C39.7583 34.5342 39.5051 34.6211 39.4679 34.6303C39.4321 34.6394 39.4073 34.6699 39.4073 34.6699C39.4073 34.6699 39.4321 34.7187 39.4399 34.7385C39.4492 34.7584 39.5207 34.9307 39.5207 34.9307C39.5207 34.9307 39.5968 35.1763 39.6263 35.3685C39.6558 35.5607 39.6216 35.6049 39.5937 35.7544C39.5657 35.8962 39.5036 35.8306 39.4865 36.1098C39.4725 36.3553 39.5875 36.4789 39.5657 36.7534C39.5564 36.8739 39.4166 36.6024 39.3514 36.4865C39.2069 36.2333 39.2426 35.8474 39.2395 35.7513C39.2364 35.6552 39.2287 35.55 39.1929 35.4264C39.1479 35.2709 39.0827 35.1473 39.0081 35.0528C38.9335 34.9582 38.8543 34.9033 38.8279 34.9124C38.8015 34.9216 38.8 34.9719 38.7984 34.9978C38.7984 35.0238 38.8497 35.1153 38.8621 35.1351C38.8745 35.1549 38.9693 35.3242 38.9693 35.3242C38.9693 35.3242 39.0112 35.4539 39.0267 35.7071C39.0438 35.9603 38.9646 36.2714 38.9646 36.2714C38.9646 36.2714 38.8621 36.6238 38.7534 36.8312C38.6322 37.06 38.365 37.3712 38.365 37.3712C38.365 37.3712 38.174 37.5435 38.0295 37.8272C37.8866 38.1094 38.0093 38.2345 37.9565 38.2695C37.9006 38.3061 37.7872 38.1079 37.7577 37.9721C37.7297 37.847 37.7437 37.7876 37.795 37.6457C37.8447 37.5115 37.9596 37.3162 37.9596 37.3162L38.132 37.028C38.132 37.028 38.3386 36.639 38.4039 36.3569C38.4691 36.0747 38.3961 35.762 38.3961 35.762C38.3961 35.762 38.3868 35.6598 38.3153 35.6629C38.2439 35.6659 38.1911 35.73 38.1631 35.8047C38.1041 35.9588 38.188 35.9313 38.0979 36.1891C38.0264 36.3919 38.0078 36.366 37.9705 36.485C37.9255 36.6299 37.9006 36.7778 37.9053 36.8678C37.9084 36.9578 37.8571 36.9212 37.8571 36.9212C37.8571 36.9212 37.7701 36.7595 37.7701 36.5612C37.7701 36.4529 37.7748 36.3919 37.7872 36.2836C37.8074 36.1098 37.8789 35.8428 37.8789 35.8428C37.8789 35.8428 37.9581 35.5805 37.9394 35.3395C37.9224 35.0985 37.8354 35.0543 37.8354 35.0543C37.8354 35.0543 37.8136 35.0222 37.7189 35.0283C37.6241 35.0344 37.6288 35.2007 37.6288 35.2007C37.6288 35.2007 37.6008 35.4386 37.562 35.5851C37.4579 35.9938 37.3197 36.2089 37.0712 36.5536C36.849 36.8648 36.5462 37.1378 36.3939 37.2659C36.2433 37.3956 35.7788 37.7281 35.7788 37.7281L35.2352 38.0835C35.2352 38.0835 35.0193 38.2894 34.9199 38.5365C34.8205 38.782 34.8267 38.9742 34.8826 39.1999C34.9401 39.4257 35.0239 39.5309 35.0674 39.5935C35.1109 39.656 35.1948 39.7673 35.2228 39.8955C35.2398 39.9763 35.2274 40.0251 35.2321 40.1075C35.2367 40.1792 35.2461 40.2188 35.2445 40.289C35.243 40.4019 35.2631 40.4827 35.1979 40.5757C35.1482 40.6459 35.0177 40.7069 35.0177 40.7069C35.0177 40.7069 34.8702 40.771 34.7832 40.8244C33.8574 41.3735 33.5281 41.7288 33.0062 42.3405C32.84 42.5357 32.9612 42.5235 32.7841 42.7553C32.6785 42.8941 32.43 42.8926 32.3399 43.0589C32.2156 43.2846 32.621 43.5058 32.1519 43.7056C31.5477 43.9618 30.5086 43.7788 30.4884 43.698C30.4325 43.4768 30.6903 43.2236 30.7835 43.1245C31.2075 42.6699 31.585 42.6577 31.7232 42.2825C31.7527 42.2032 31.7419 42.1346 32.0774 41.889C32.3135 41.7166 33.2594 41.0181 33.6726 40.5529C33.8139 40.3927 33.9351 40.2875 33.9972 40.1136C34.0594 39.9397 33.9351 39.8299 33.9351 39.8299L33.7658 39.5584L33.4412 38.9879C33.4412 38.9879 33.306 38.6859 33.2299 38.5105C33.1553 38.3351 33.0124 37.8638 33.0124 37.8638C33.0124 37.8638 32.9084 37.4413 32.8897 37.1652C32.8587 36.6695 32.927 36.3813 33.0606 35.9008C33.233 35.2754 33.6229 35.0146 33.7782 34.3969C33.8233 34.2169 33.8326 33.9103 33.7409 33.9241C33.6524 33.9393 33.6462 34.1818 33.5794 34.345C33.3293 34.9582 32.9954 35.2266 32.8152 35.8627C32.6925 36.2913 32.6428 36.5475 32.6443 36.9929C32.6443 37.2476 32.635 37.2003 32.7018 37.6427C32.7266 37.8059 32.7686 37.8943 32.8183 38.0514C32.8525 38.1643 32.9457 38.3748 32.9457 38.3748C32.9457 38.3748 33.0761 38.6554 33.1196 38.8522C33.1352 38.9193 33.1507 38.9574 33.146 39.0245C33.1383 39.142 33.1585 39.1664 33.101 39.2732C33.0295 39.4043 33.073 39.4821 32.8447 39.5309C32.6428 39.5736 32.2265 39.4425 32.2265 39.4425C32.2265 39.4425 30.5194 38.933 29.429 39.0795C29.2131 39.1084 29.0982 39.1847 28.8792 39.1816C28.6819 39.1786 28.5809 39.0276 28.3837 39.0856C28.3433 39.0978 28.3309 39.1252 28.2951 39.1481C28.0062 39.3464 28.2268 39.6743 27.4657 39.5035C26.9982 39.3982 26.4328 39.1191 26.5322 38.9422C26.6626 38.7088 26.8397 38.6692 27.2078 38.5212C27.6024 38.3626 28.1957 38.4068 28.3107 38.3992C28.4536 38.3885 28.6586 38.2909 28.9118 38.2863C29.3514 38.2787 29.4306 38.329 29.4306 38.329L30.1777 38.3931L31.6083 38.4114C31.6083 38.4114 31.8646 38.3916 31.9671 38.3717C32.0696 38.3519 32.1504 38.1536 32.2063 38.0606C32.2622 37.9675 32.2063 37.8272 32.2063 37.8272L32.1628 37.7616L32.0277 37.5466L31.776 37.1302L31.4964 36.5841C31.4964 36.5841 31.3147 36.2028 31.2169 35.9511C31.1206 35.704 31.0646 35.5637 30.9994 35.3059C30.9326 35.0406 30.8922 34.8255 30.8829 34.6135C30.872 34.3084 30.8518 34.069 30.9388 33.8188L30.9575 33.8295Z" fill="black"/>
<path d="M40.2503 33.3232C40.55 32.9434 40.5795 32.5911 40.5982 32.0939C40.6122 31.7324 40.4724 31.1757 40.4724 31.1757L40.4537 31.136C40.4537 31.136 40.4009 31.0689 40.3683 31.1574C40.373 31.2367 40.3838 31.2992 40.3838 31.2992L40.4025 32.0161C40.4025 32.0161 40.3792 32.3776 40.2534 32.7497C40.0421 33.3766 39.4829 33.6573 39.4006 33.883C39.2624 34.2597 39.8914 33.7808 40.2518 33.3232H40.2503Z" fill="white"/>
<path d="M37.0924 34.4823C37.0924 34.4823 36.9697 34.5158 36.9666 34.6363C36.9635 34.7568 36.9961 34.859 36.9945 35.0024C36.9914 35.1854 36.819 35.399 36.9293 35.4676C37.1188 35.585 37.2834 34.7522 37.2244 34.6287C37.1669 34.5052 37.111 34.4792 37.0924 34.4823Z" fill="white"/>
<path d="M34.9658 40.2586C34.9658 40.2586 34.9316 40.2403 34.8617 40.2662C34.7934 40.2906 34.7981 40.3608 34.7981 40.3608C34.7981 40.3608 34.7841 40.434 34.84 40.4432C34.8959 40.4508 34.986 40.3196 34.986 40.3044C34.986 40.2891 34.9658 40.2601 34.9658 40.2601V40.2586Z" fill="white"/>
<path d="M32.9692 41.6528C32.9692 41.6528 32.949 41.6726 32.9661 41.6879C32.9847 41.7016 33.0096 41.6833 33.0096 41.6833C33.0096 41.6833 33.3544 41.4194 33.5594 41.2318C33.7769 41.032 34.0876 40.6903 34.0876 40.6903C34.0876 40.6903 34.1093 40.6644 34.0845 40.6415C34.0612 40.6202 34.0006 40.6537 33.9524 40.6766C33.9089 40.698 33.8841 40.7224 33.853 40.7483C33.8204 40.7742 33.7194 40.8779 33.7194 40.8779L33.4523 41.1327L33.2861 41.2867L33.123 41.4408L33.0531 41.517C33.0531 41.517 33.0344 41.546 33.0298 41.5536C33.0251 41.5613 33.0065 41.5841 33.0065 41.5841C33.0065 41.5841 32.9816 41.607 32.9816 41.6131C32.9816 41.6192 32.9739 41.6268 32.9739 41.6345C32.9739 41.6421 32.9692 41.6528 32.9692 41.6528Z" fill="white"/>
<path d="M32.3714 42.0371C32.3714 42.0371 32.3341 42.0081 32.2751 42.0371C32.2176 42.066 32.1539 42.1469 32.1493 42.156C32.1446 42.1652 32.112 42.2079 32.1337 42.246C32.1555 42.2826 32.23 42.2277 32.2409 42.2262C32.2518 42.2262 32.3481 42.1499 32.3481 42.1499C32.3481 42.1499 32.4056 42.1148 32.3714 42.0386V42.0371Z" fill="white"/>
<path d="M31.2269 43.1749C31.2269 43.1749 31.1788 43.0849 31.1135 43.1215C31.0483 43.1581 31.0141 43.1703 30.9566 43.2511C30.9458 43.2649 30.8821 43.3457 30.8712 43.3655C30.8603 43.3869 30.7967 43.5043 30.9256 43.512C31.1461 43.5257 31.0017 43.3854 31.0778 43.332C31.1399 43.2893 31.2549 43.2999 31.2564 43.2557C31.258 43.2115 31.2285 43.1749 31.2285 43.1749H31.2269Z" fill="white"/>
<path d="M27.3099 38.6342C27.3099 38.6342 27.1778 38.6662 27.167 38.712C27.1576 38.7577 27.2446 38.8035 27.2586 38.805C27.2726 38.8081 27.3037 38.8416 27.3906 38.7837C27.4776 38.7257 27.4745 38.6754 27.4745 38.6754C27.4745 38.6754 27.5258 38.6174 27.3083 38.6357L27.3099 38.6342Z" fill="white"/>
<path d="M29.4643 38.5656C29.4643 38.5656 29.4643 38.5183 29.368 38.5229C29.2732 38.529 29.253 38.5458 29.2499 38.5595C29.2484 38.5732 29.2546 38.5976 29.34 38.6037C29.4255 38.6114 29.4612 38.6037 29.4643 38.5641V38.5656Z" fill="white"/>
<path d="M31.5012 38.6234C31.3303 38.6219 31.3847 38.6265 31.2791 38.6326C31.088 38.6433 30.9824 38.6341 30.7945 38.6219C30.5304 38.6051 30.1203 38.5395 30.1203 38.5395C30.1203 38.5395 30.0691 38.5289 30.0489 38.5609C30.0287 38.5929 30.0986 38.6631 30.1607 38.6829C30.4962 38.7866 30.5133 38.7668 30.7432 38.7714C30.8706 38.7729 30.942 38.7607 31.0678 38.7531C31.2278 38.7424 31.3039 38.7668 31.4779 38.721C31.523 38.7088 31.568 38.6265 31.5012 38.625V38.6234Z" fill="white"/>
<path d="M32.6473 38.2895C32.6473 38.2895 32.6131 38.2514 32.5432 38.2849C32.4717 38.3185 32.4298 38.3947 32.4298 38.3947C32.4298 38.3947 32.3972 38.4451 32.4671 38.4375C32.537 38.4298 32.5976 38.3993 32.6162 38.3902C32.6333 38.381 32.6845 38.3337 32.6488 38.291L32.6473 38.2895Z" fill="white"/>
<path d="M31.6499 24.7711C31.6499 24.7711 32.1361 24.3242 32.4809 23.737C32.6875 23.3861 32.776 22.5686 32.5989 22.7715C32.5197 22.8645 32.4234 23.2885 32.2696 23.6012C32.0506 24.0481 31.5846 24.6811 31.5846 24.6811C31.5846 24.6811 31.4852 24.8931 31.6483 24.7696L31.6499 24.7711Z" fill="white"/>
<path d="M29.7139 25.9028C29.7139 25.9028 29.6626 25.9409 29.6859 26.005C29.7092 26.0691 29.8087 26.0203 29.8087 26.0203C29.8087 26.0203 30.0308 25.9379 30.2669 25.9272C30.5014 25.9181 30.8292 25.9867 30.8292 25.9867C30.8292 25.9867 30.9845 26.0294 31.0109 26.0386C31.0373 26.0477 31.1212 26.0889 31.1351 26.0935C31.1491 26.098 31.2283 26.1377 31.2749 26.098C31.32 26.0584 30.9922 25.7655 30.6567 25.7213C30.0991 25.6466 29.7325 25.883 29.7325 25.883L29.7155 25.9028H29.7139Z" fill="white"/>
<path d="M27.4151 27.8321C27.4554 27.8642 27.6418 27.5164 27.7972 27.2968C27.9105 27.1351 28.1202 26.8651 28.1202 26.8651C28.1202 26.8651 28.2134 26.7416 28.055 26.8102C27.9898 26.8392 27.8127 26.9704 27.6884 27.2144C27.5828 27.4219 27.3747 27.8001 27.4151 27.8337V27.8321Z" fill="white"/>
<path d="M26.1265 26.3176C26.1265 26.3176 26.0861 26.4518 26.2477 26.6211C26.4092 26.7904 26.4512 26.9307 26.5537 26.8301C26.5816 26.8026 26.4527 26.5738 26.3875 26.5113C26.3207 26.4488 26.2725 26.3954 26.2725 26.3954L26.2306 26.3618L26.1762 26.3328L26.1452 26.3206C26.1452 26.3206 26.1359 26.313 26.125 26.3176H26.1265Z" fill="white"/>
<path d="M25.6038 25.0243C25.6038 25.0243 25.4298 25.0563 25.3863 25.1387C25.3428 25.2211 25.5867 25.1707 25.5867 25.1707C25.5867 25.1707 25.7483 25.1799 25.7529 25.1189C25.7576 25.0579 25.7327 25.0502 25.6038 25.0228V25.0243Z" fill="white"/>
<path d="M22.8324 29.5344C22.7454 29.5085 22.7283 29.6808 22.7174 29.7357C22.7065 29.7907 22.7563 29.902 22.7764 29.902C22.7966 29.902 22.8681 29.7922 22.8712 29.7388C22.8759 29.6854 22.91 29.5573 22.8308 29.5344H22.8324Z" fill="white"/>
<path d="M25.7113 32.8931C25.7113 32.8931 25.5529 32.7695 25.528 32.8183C25.5032 32.8671 25.6585 33.0853 25.6585 33.0853C25.6585 33.0853 25.7051 33.1569 25.7781 33.1234C25.8511 33.0914 25.8247 33.012 25.8247 33.012C25.8247 33.012 25.7766 32.9099 25.7098 32.8931H25.7113Z" fill="white"/>
<path d="M24.5115 29.26C24.5115 29.26 24.4696 29.2508 24.4556 29.2981C24.4401 29.3454 24.4432 29.4247 24.4307 29.5193C24.4214 29.594 24.4509 29.7908 24.4509 29.7908C24.4509 29.7908 24.4665 29.9463 24.4975 30.0409C24.5317 30.1431 24.6233 30.2865 24.6233 30.2865C24.6233 30.2865 24.6575 30.3612 24.6994 30.3582C24.7414 30.3536 24.7321 30.3048 24.7321 30.3048C24.7321 30.3048 24.5985 29.7847 24.5938 29.7313C24.5783 29.5589 24.5798 29.3484 24.5798 29.3484V29.3164C24.5798 29.3164 24.5767 29.2615 24.5099 29.26H24.5115Z" fill="white"/>
<path d="M24.7184 27.6736C24.7184 27.6736 24.6454 27.6599 24.5771 27.7987C24.5087 27.9375 24.5227 27.9955 24.5289 28.0016C24.5351 28.0077 24.5895 28.0061 24.6749 27.8765C24.7604 27.7468 24.7417 27.6996 24.7417 27.6996C24.7417 27.6996 24.7371 27.6736 24.7184 27.6736Z" fill="white"/>
<path d="M26.7377 29.1104C26.7377 29.1104 26.8262 29.2401 26.6569 29.2096C26.4861 29.1791 26.1304 28.903 25.9844 28.8298C25.8399 28.755 25.6038 28.7306 25.7032 28.6452C25.7203 28.63 25.725 28.6162 25.7545 28.6147C25.784 28.6147 25.8803 28.6513 25.8865 28.6544C25.8927 28.6574 26.1443 28.7596 26.1537 28.7627C26.163 28.7657 26.3043 28.8252 26.4037 28.8832C26.5047 28.9411 26.6678 29.054 26.6678 29.054L26.7377 29.112V29.1104Z" fill="white"/>
<path d="M31.445 33.0897C31.4916 33.2331 30.9092 32.7877 30.597 32.5513C29.7706 31.9259 28.7579 30.6447 28.8852 30.5318C28.9909 30.4388 29.4056 31.026 30.0129 31.6712C30.6622 32.3606 31.4186 33.0043 31.445 33.0882V33.0897Z" fill="white"/>
<path d="M33.8726 32.4767C33.6924 32.6658 33.6287 32.9083 33.7328 33.0898C33.8338 33.2652 33.8664 32.8321 33.9798 32.7039C34.0761 32.5941 34.1367 32.6109 34.2966 32.4996C34.57 32.3104 34.1009 32.2372 33.8726 32.4782V32.4767Z" fill="white"/>
<path d="M32.8386 28.4346C32.7159 28.4148 32.719 28.5993 32.7376 28.732C32.8199 29.3193 33.0887 29.7723 33.4475 30.1993C33.6649 30.4586 34.2645 30.9223 34.3344 30.8476C34.3592 30.8217 33.7643 30.3702 33.3853 29.789C33.1166 29.3772 32.9737 29.0295 32.9395 28.6893C32.9349 28.6466 32.9458 28.4514 32.8386 28.4346Z" fill="white"/>
<path d="M30.5234 19.7223C30.2547 19.8672 29.7856 19.9923 29.7856 19.9923C29.7856 19.9923 29.7639 20.0381 29.8244 20.0335C30.2252 20.0015 30.3774 19.9511 30.5918 19.8596C30.8061 19.7681 30.9614 19.5164 30.9614 19.5164C30.9614 19.5164 31.0469 19.3609 30.8853 19.489C30.8356 19.5286 30.671 19.6415 30.5234 19.7208V19.7223Z" fill="white"/>
<path d="M33.7782 18.7126C33.7782 18.7126 33.6865 18.6928 33.6244 18.7309C33.5623 18.7691 33.5809 18.7996 33.5809 18.7996C33.5809 18.7996 33.6757 18.8728 33.744 18.8835C33.8124 18.8941 33.9584 18.9567 33.9522 18.9079C33.9459 18.8591 33.8636 18.7706 33.8357 18.7462C33.8077 18.7218 33.7766 18.7142 33.7766 18.7142L33.7782 18.7126Z" fill="white"/>
<path d="M32.2457 21.4735C32.2612 21.5055 32.5346 21.4323 32.6402 21.3743C32.7225 21.3286 32.7552 21.176 32.7552 21.176C32.7552 21.176 32.7785 21.0281 32.7427 21.0845C32.5858 21.3362 32.2317 21.4414 32.2472 21.4735H32.2457Z" fill="white"/>
<path d="M32.2362 20.7841C32.3465 20.5766 31.9333 21.0007 31.7221 21.1105C31.5932 21.1776 31.385 21.2661 31.385 21.2661C31.385 21.2661 31.3291 21.3347 31.4068 21.3286C31.4844 21.3225 31.6817 21.3896 31.8401 21.2676C31.8774 21.2386 32.0436 21.0022 32.0436 21.0022C32.0436 21.0022 32.1834 20.8847 32.2362 20.7856V20.7841Z" fill="white"/>
<path d="M32.1736 21.6702C32.1814 21.7053 32.6458 21.6931 32.7623 21.6595C32.8539 21.6336 32.9021 21.4749 32.9021 21.4749C32.9021 21.4749 32.958 21.3361 32.9114 21.3834C32.7017 21.5939 32.1658 21.6366 32.1736 21.6702Z" fill="white"/>
<path d="M24.7266 25.8388C24.7266 25.8388 24.6552 25.8144 24.5682 25.944C24.4812 26.0721 24.0914 26.6533 24.1613 26.7402C24.2436 26.8409 24.5806 26.2201 24.6847 26.1042C24.7888 25.9882 24.7468 25.8693 24.7468 25.8693C24.7468 25.8693 24.7468 25.8433 24.7266 25.8403V25.8388Z" fill="white"/>
<path d="M33.2256 36.3386C33.1836 36.5308 33.2349 36.9273 33.3001 37.0051C33.4663 37.2003 33.3654 36.7001 33.3871 36.5231C33.4073 36.3584 33.429 36.302 33.5114 36.1266C33.6589 35.8108 33.3125 35.9283 33.224 36.3401L33.2256 36.3386Z" fill="white"/>
<path d="M31.8035 19.5134C31.8035 19.5134 31.6746 19.5165 31.5736 19.5714C31.4727 19.6263 31.4463 19.7026 31.4463 19.7026C31.4463 19.7026 31.4261 19.7575 31.44 19.788C31.4696 19.8536 31.6078 19.7529 31.7057 19.788C31.7849 19.8154 31.8221 19.8383 31.8812 19.9085C31.934 19.971 32.0272 20.0595 32.0847 20.0091C32.1421 19.9588 32.1219 19.8337 32.1219 19.8337C32.1219 19.8337 32.0536 19.6278 31.9635 19.5699C31.8734 19.5119 31.802 19.5149 31.802 19.5149L31.8035 19.5134Z" fill="white"/>
<path d="M29.6648 20.961C29.6648 20.961 29.5933 20.9732 29.6104 21.0571C29.6275 21.1425 29.6741 21.1288 29.6741 21.1288C29.6741 21.1288 29.8232 21.0663 29.8139 20.9778C29.8046 20.8894 29.6648 20.9595 29.6648 20.9595V20.961Z" fill="white"/>
<path d="M28.6225 20.5018C28.6225 20.5018 28.5448 20.5048 28.4889 20.5994C28.4345 20.694 28.4019 20.7916 28.4019 20.7916C28.4019 20.7916 28.3755 20.9182 28.4221 20.9563C28.4672 20.996 28.5184 20.8755 28.5837 20.8282C28.6241 20.8007 28.6489 20.787 28.6893 20.7595C28.7452 20.7214 28.8368 20.7702 28.8291 20.6589C28.8213 20.5475 28.7002 20.4941 28.6225 20.5002V20.5018Z" fill="white"/>
<path d="M31.994 19.309C31.994 19.309 31.817 19.2846 31.8232 19.3517C31.8294 19.4143 31.9195 19.3761 31.9785 19.4021C32.0344 19.4265 32.0717 19.4372 32.1167 19.4768C32.1494 19.5058 32.1463 19.5637 32.1866 19.5637C32.2441 19.5637 32.2317 19.5424 32.2317 19.5424C32.2317 19.5424 32.1804 19.3914 32.1136 19.3487C32.0468 19.306 31.994 19.309 31.994 19.309Z" fill="white"/>
<path d="M33.9763 20.0123C33.9499 20.1069 33.9344 20.1404 33.9344 20.1404C33.9344 20.1404 33.8847 20.3342 34.0835 20.2625C34.2823 20.1908 34.1798 20.2213 34.3212 20.1526C34.4625 20.084 34.4578 20.1221 34.5635 20.1267C34.5976 20.1282 34.6209 20.1298 34.6737 20.1191C34.7188 20.1099 34.7002 20.0566 34.5992 20.0306C34.492 20.0032 34.36 20.0093 34.2062 20.0077C34.1177 20.0077 34.0027 19.9178 33.9779 20.0123H33.9763Z" fill="white"/>
<path d="M34.0626 19.2986C34.0626 19.2986 33.9709 19.2787 33.9103 19.3169C33.8482 19.355 33.8668 19.3855 33.8668 19.3855C33.8668 19.3855 33.9616 19.4587 34.0299 19.4694C34.0983 19.4801 34.2443 19.5426 34.2381 19.4938C34.2319 19.445 34.1495 19.3565 34.1216 19.3321C34.0936 19.3077 34.0626 19.3001 34.0626 19.3001V19.2986Z" fill="white"/>
<path d="M34.4115 20.6376C34.4115 20.6376 34.3136 20.6193 34.2468 20.6544C34.1801 20.691 34.2002 20.72 34.2002 20.72C34.2002 20.72 34.3012 20.7886 34.3742 20.7978C34.4472 20.8069 34.6041 20.8649 34.5979 20.8191C34.5917 20.7734 34.5047 20.6895 34.4736 20.6666C34.4441 20.6437 34.4115 20.6376 34.4115 20.6376Z" fill="white"/>
<path d="M34.4421 21.1227C34.4421 21.1227 34.3396 21.1013 34.2697 21.1425C34.1998 21.1837 34.22 21.2172 34.22 21.2172C34.22 21.2172 34.3272 21.2966 34.4033 21.3072C34.4809 21.3194 34.6456 21.3865 34.6378 21.3332C34.63 21.2798 34.5384 21.1837 34.5073 21.1578C34.4763 21.1318 34.4405 21.1242 34.4405 21.1242L34.4421 21.1227Z" fill="white"/>
<path d="M34.4887 21.597C34.4887 21.597 34.3769 21.5726 34.3008 21.6183C34.2247 21.6656 34.248 21.7022 34.248 21.7022C34.248 21.7022 34.3645 21.7907 34.4484 21.8044C34.5322 21.8181 34.7109 21.8929 34.7031 21.8334C34.6953 21.7739 34.5944 21.6641 34.5617 21.6351C34.5276 21.6046 34.4903 21.597 34.4903 21.597H34.4887Z" fill="white"/>
<path d="M34.4788 22.1826C34.4788 22.1826 34.367 22.1582 34.2908 22.204C34.2147 22.2512 34.238 22.2879 34.238 22.2879C34.238 22.2879 34.3545 22.3763 34.4369 22.39C34.5207 22.4038 34.6994 22.4785 34.6916 22.419C34.6838 22.3595 34.5844 22.2497 34.5502 22.2207C34.5161 22.1902 34.4788 22.1826 34.4788 22.1826Z" fill="white"/>
<path d="M34.3967 23.3237C34.3967 23.3237 34.2849 23.2993 34.2088 23.345C34.1327 23.3923 34.156 23.4289 34.156 23.4289C34.156 23.4289 34.2725 23.5174 34.3548 23.5311C34.4387 23.5448 34.6173 23.6196 34.6095 23.5601C34.6018 23.5006 34.5024 23.3908 34.4682 23.3618C34.434 23.3313 34.3967 23.3237 34.3967 23.3237Z" fill="white"/>
<path d="M34.4717 22.7517C34.4717 22.7517 34.3428 22.7227 34.2543 22.7776C34.1673 22.831 34.1937 22.8737 34.1937 22.8737C34.1937 22.8737 34.3273 22.9759 34.4236 22.9911C34.5199 23.0064 34.728 23.0933 34.7187 23.0247C34.7094 22.9561 34.5944 22.8295 34.5541 22.7959C34.5152 22.7608 34.4702 22.7517 34.4702 22.7517H34.4717Z" fill="white"/>
<path d="M34.3401 23.8375C34.3401 23.8375 34.2484 23.8176 34.1863 23.8558C34.1242 23.8939 34.1428 23.9244 34.1428 23.9244C34.1428 23.9244 34.2391 23.9976 34.3075 24.0083C34.3758 24.019 34.5234 24.0815 34.5172 24.0327C34.5109 23.9839 34.4286 23.8939 34.4007 23.8695C34.3727 23.8451 34.3416 23.8375 34.3416 23.8375H34.3401Z" fill="white"/>
<path d="M34.2548 24.3332C34.2548 24.3332 34.1787 24.3164 34.1259 24.3485C34.0747 24.3805 34.0902 24.4064 34.0902 24.4064C34.0902 24.4064 34.1694 24.4674 34.2269 24.4766C34.2844 24.4857 34.4071 24.5376 34.4009 24.4964C34.3962 24.4552 34.3279 24.3805 34.3046 24.3607C34.2813 24.3408 34.2548 24.3347 34.2548 24.3347V24.3332Z" fill="white"/>
<path d="M34.1455 24.7848C34.1455 24.7848 34.0772 24.7695 34.0306 24.7985C33.984 24.8275 33.998 24.8504 33.998 24.8504C33.998 24.8504 34.0694 24.9053 34.1207 24.9129C34.1719 24.9205 34.2822 24.9678 34.2776 24.9312C34.2729 24.8946 34.2108 24.8275 34.1906 24.8092C34.1688 24.7909 34.1455 24.7848 34.1455 24.7848Z" fill="white"/>
<path d="M34.0361 25.1541C34.0361 25.1541 33.9678 25.1388 33.9212 25.1678C33.8746 25.1968 33.8886 25.2196 33.8886 25.2196C33.8886 25.2196 33.96 25.2746 34.0113 25.2822C34.0625 25.2898 34.1728 25.3371 34.1682 25.3005C34.1635 25.2639 34.1014 25.1968 34.0812 25.1785C34.0594 25.1602 34.0361 25.1541 34.0361 25.1541Z" fill="white"/>
<path d="M33.9057 25.5824C33.9057 25.5824 33.8498 25.5702 33.8125 25.5931C33.7753 25.6159 33.7861 25.6342 33.7861 25.6342C33.7861 25.6342 33.8436 25.6785 33.8855 25.6846C33.9275 25.6907 34.016 25.7288 34.0129 25.6998C34.0083 25.6708 33.9586 25.6159 33.9415 25.6007C33.9244 25.5854 33.9057 25.5809 33.9057 25.5809V25.5824Z" fill="white"/>
<path d="M33.7483 25.9836C33.7483 25.9836 33.7001 25.9729 33.6675 25.9928C33.6349 26.0126 33.6442 26.0294 33.6442 26.0294C33.6442 26.0294 33.6939 26.0675 33.7296 26.0736C33.7653 26.0797 33.843 26.1117 33.8383 26.0858C33.8352 26.0599 33.7917 26.0126 33.7778 26.0004C33.7638 25.9882 33.7467 25.9836 33.7467 25.9836H33.7483Z" fill="white"/>
<path d="M33.5866 26.3651C33.5866 26.3651 33.5385 26.3544 33.5059 26.3742C33.4733 26.3941 33.4826 26.4093 33.4826 26.4093C33.4826 26.4093 33.5323 26.4474 33.568 26.4535C33.6037 26.4596 33.6814 26.4917 33.6767 26.4657C33.6736 26.4398 33.6301 26.3941 33.6162 26.3803C33.6022 26.3681 33.5851 26.3636 33.5851 26.3636L33.5866 26.3651Z" fill="white"/>
<path d="M23.0841 28.305C23.0841 28.305 23.0034 28.4591 23.0422 28.5445C23.0826 28.6284 23.1913 28.4087 23.1913 28.4087C23.1913 28.4087 23.3047 28.1906 23.2581 28.1495C23.2115 28.1083 23.1851 28.2227 23.0841 28.305Z" fill="white"/>
<path d="M29.2426 41.8816C29.2426 41.8816 29.182 41.8038 29.1245 41.8602C29.067 41.9167 28.9925 42.0066 28.8589 41.9975C28.7253 41.9883 28.6679 41.9685 28.5933 41.9365C28.5187 41.9045 28.4147 41.8556 28.4147 41.8556C28.4147 41.8556 28.1428 41.7534 27.913 41.7473C27.6831 41.7412 27.3072 41.8358 27.1254 42.0295C26.9437 42.2232 26.8971 42.423 26.8971 42.423C26.8971 42.423 26.8365 42.7754 26.9406 42.9371C27.0447 43.0987 27.1581 43.2726 27.4113 43.4251C27.6644 43.5777 27.7747 43.6341 27.7747 43.6341L28.2143 43.8324L28.6213 43.9834C28.6213 43.9834 29.2084 44.1557 29.2798 44.592C29.3513 45.0282 29.0841 45.5925 28.2749 45.6444C27.478 45.6947 27.0897 45.3149 26.9655 45.0709C26.8412 44.8269 26.9127 44.6194 26.9127 44.6194L26.9468 44.5523L26.9779 44.5371C26.9779 44.5371 27.1021 44.6194 27.2233 44.6042C27.3445 44.5889 27.5681 44.4455 27.5215 44.2106C27.4749 43.9758 27.2606 43.9239 27.1581 43.9331C27.0556 43.9422 26.5989 44.0581 26.5896 44.7109C26.5802 45.3638 27.186 45.7115 27.186 45.7115C27.186 45.7115 27.6147 45.9739 28.0994 45.9525C28.584 45.9311 28.9847 45.742 28.9847 45.742C28.9847 45.742 29.7023 45.3912 29.721 44.627C29.7396 43.8614 29.2457 43.5929 29.2457 43.5929C29.2457 43.5929 29.0686 43.4709 28.9071 43.3977C28.7455 43.3245 28.3572 43.1414 28.3572 43.1414L27.9627 42.9645L27.7235 42.8333L27.5899 42.7449C27.5899 42.7449 27.2699 42.4978 27.4408 42.2293C27.6116 41.9609 28.1056 42.0616 28.1056 42.0616C28.1056 42.0616 28.4877 42.1409 28.7859 42.3514C29.0841 42.5618 29.2581 42.815 29.2581 42.815L29.3824 43.0133L29.3979 43.0408L29.5035 43.0042C29.5035 43.0042 29.3389 42.5527 29.3078 42.3636C29.2767 42.1744 29.2457 41.8831 29.2457 41.8831L29.2426 41.8816Z" fill="#231F20"/>
<path d="M33.9694 44.4623C33.9694 44.4623 34.0751 44.5782 34.218 44.5782C34.3609 44.5782 34.5659 44.4806 34.5628 44.2274C34.5597 43.9742 34.2987 43.9071 34.2987 43.9071C34.2987 43.9071 33.9042 43.8156 33.7116 44.2091C33.519 44.6027 33.6246 44.9443 33.6246 44.9443C33.6246 44.9443 33.7147 45.4751 34.2863 45.7893C34.8579 46.1035 35.4683 45.8717 35.4683 45.8717C35.4683 45.8717 35.9281 45.7222 36.3258 45.2829C36.7234 44.8436 36.9129 44.3235 36.9129 44.3235L37.0527 43.9819L37.2204 43.9849C37.2204 43.9849 37.4534 44.0063 37.6181 43.8751C37.7827 43.7439 37.8853 43.5639 37.8853 43.5639L37.907 43.509L37.8014 43.4602C37.8014 43.4602 37.6802 43.6158 37.5125 43.6311C37.3447 43.6463 37.1707 43.6189 37.1707 43.6189L37.3323 43.1948C37.3323 43.1948 37.5187 42.8257 37.5715 42.7403C37.6243 42.6549 37.8418 42.3803 37.8418 42.3803C37.8418 42.3803 38.2891 42.3773 38.7209 42.2888C39.1527 42.2004 39.4199 42.0936 39.4199 42.0936L39.9542 41.877L40.0847 41.8068L40.0443 41.7031C40.0443 41.7031 39.5628 41.8709 38.8529 41.9502C38.1415 42.0295 37.6957 41.9441 37.6957 41.9441L36.888 41.8221C36.888 41.8221 36.6426 41.7824 36.4531 41.7794C36.2636 41.7763 35.8784 41.8465 35.8784 41.8465C35.8784 41.8465 35.4932 41.9319 35.3192 42.06C35.1453 42.1882 34.7321 42.4871 34.9216 42.9447C35.1111 43.4023 35.8846 43.1582 35.9918 42.8196C35.9887 42.8227 36.0353 42.7098 36.0353 42.7098L36.0477 42.6488L35.9825 42.6244L35.9048 42.7129C35.9048 42.7129 35.6159 42.9508 35.3922 42.7983C35.1686 42.6457 35.3208 42.4322 35.3425 42.4078C35.3643 42.3834 35.4854 42.24 35.7743 42.176C36.0633 42.1119 36.4982 42.2156 36.4982 42.2156L36.9704 42.301C36.9704 42.301 37.2313 42.3498 37.2437 42.3498C37.2562 42.3498 37.34 42.362 37.34 42.362L37.1754 42.542C37.1754 42.542 36.9362 42.7678 36.7684 43.0942C36.6007 43.4206 36.523 43.5914 36.523 43.5914L36.5075 43.6158C36.5075 43.6158 36.2962 43.6402 36.1627 43.7195C36.0291 43.7988 35.9421 43.9209 35.9421 43.9209L35.88 44.0307L35.9638 44.1008C35.9638 44.1008 36.0601 43.9941 36.1782 43.9636C36.2962 43.9331 36.3863 43.9788 36.3863 43.9788C36.3863 43.9788 36.2155 44.3937 36.1347 44.5432C36.0539 44.6926 35.9172 44.9672 35.7246 45.1716C35.532 45.376 35.3922 45.5529 34.9511 45.6139C34.51 45.6749 34.1993 45.3973 34.0844 45.26C33.9694 45.1228 33.9011 44.9153 33.8949 44.7628C33.8887 44.6103 33.9694 44.4639 33.9694 44.4639V44.4623Z" fill="#231F20"/>
<path d="M17 15.682V14.7989L32.0016 12L47 14.7989V15.6835L32 12.9579L17 15.682Z" fill="black"/>
</svg>
