<svg width="64" height="64" viewBox="0 0 64 64" fill="none" xmlns="http://www.w3.org/2000/svg">
<rect width="64" height="64" fill="#27F4D2"/>
<path d="M14.9182 41.7366L29.0488 30.6258C29.1117 30.571 29.1418 30.5189 29.1555 30.4366L31.7063 12.6625H31.6735C26.6896 12.8655 21.9985 14.9247 18.4625 18.4593C14.7129 22.2077 12.6466 27.1955 12.6466 32.4986C12.6466 35.7123 13.4266 38.8959 14.9018 41.7065L14.9155 41.7339L14.9182 41.7366ZM18.5829 18.5827C22.0642 15.1002 26.6239 13.0848 31.5092 12.8435L28.9886 30.4147C28.9831 30.4476 28.9721 30.4695 28.9338 30.5051L14.9729 41.4816C13.5607 38.7368 12.8163 35.6822 12.8163 32.5041C12.8163 27.2476 14.8635 22.3036 18.5829 18.5854V18.5827ZM32.5 10C26.4898 10 20.8408 12.3417 16.5904 16.5892C12.34 20.8394 10 26.4908 10 32.5014C10 38.512 12.34 44.1606 16.5904 48.4108C20.8408 52.661 26.4898 55 32.5 55C38.5102 55 44.1592 52.6583 48.4096 48.4108C52.66 44.1606 55 38.5092 55 32.5014C55 26.4935 52.66 20.8421 48.4096 16.5892C44.1592 12.3417 38.5102 10 32.5 10ZM18.4515 16.8606C22.0423 13.6223 26.8483 11.5383 32.2099 11.3244C32.2099 11.3244 32.3741 11.3189 32.5465 11.3217C39.4818 11.3217 44.5396 14.9796 47.2601 17.7655C50.8262 21.4152 53.1827 26.3125 53.3606 31.8076C53.3743 32.2573 53.3633 33.0361 53.3551 33.6503C53.2511 33.653 52.4383 32.2464 52.2959 31.0069C51.9456 26.2659 49.9313 21.8594 46.5375 18.4647C43.0015 14.9302 38.3104 12.8709 33.3238 12.668H33.2964C33.1432 12.4377 32.7491 12.1607 32.5 12.084C32.5 12.084 32.3495 12.1388 32.0429 12.3911C31.9581 12.4624 31.8842 12.5364 31.8267 12.6022C31.8185 12.6708 29.9164 29.263 29.8479 29.8443C29.8315 29.9842 29.7741 30.4092 29.9027 30.5627C30.0587 30.7492 32.3002 32.2875 32.2482 32.3643C32.2099 32.4219 30.42 31.4155 29.681 31.0755C29.4812 30.985 29.4265 31.0344 29.2349 31.177C27.2041 32.6933 15.0331 41.7915 14.9291 41.871C14.8607 42.0465 14.7649 42.3728 14.8142 42.7156C15.0003 42.8527 15.3041 43.0748 15.7201 43.1214L15.7365 43.1488C15.7365 43.1488 16.1635 43.8261 16.7382 44.5719C17.2446 45.2273 17.9206 46.0005 18.4625 46.5407C21.9766 50.0561 26.5774 52.0907 31.5065 52.332C31.2711 52.3265 31.0385 52.3183 30.8031 52.3018C19.7899 51.6081 11.768 43.4395 11.768 31.9913C11.768 25.9588 14.3106 20.5926 18.4515 16.8606ZM32.5 36.3704L15.7338 43.1132H15.7283C15.3972 42.9898 15.1974 42.8225 15.0222 42.5976C16.6589 41.6516 29.8726 34.0342 32.073 32.7646C32.136 32.729 32.1606 32.7153 32.2017 32.7344C32.229 32.7482 32.2345 32.7674 32.2373 32.8222C32.2701 33.4584 32.3413 34.8979 32.4152 35.7041C32.4398 35.9838 32.437 36.162 32.5 36.162C32.5629 36.162 32.5602 35.9838 32.5821 35.7041C32.6478 34.9171 32.7107 33.4775 32.7463 32.8249C32.7491 32.7591 32.7545 32.7372 32.7792 32.718C32.8202 32.6878 32.8777 32.7262 32.8777 32.7262L50.0189 42.6168C50.0517 42.3426 50.0189 42.1397 49.9915 42.0383C49.945 41.8792 49.9258 41.8381 49.8711 41.797C48.4205 40.7111 37.3498 32.3396 35.5845 31.0152C35.4148 30.8918 35.3546 30.8479 35.1685 30.9302C34.5499 31.2208 32.6806 32.1723 32.6806 32.1723C32.6204 32.2025 32.5411 32.2326 32.5137 32.208C32.4945 32.1888 32.4973 32.1202 32.4973 32.0681V12.3445C32.7819 12.3774 33.02 12.4733 33.2937 12.6817L35.7952 30.4037C35.8034 30.4914 35.8253 30.5408 35.8609 30.5764L50.0818 41.7394C50.2433 42.0958 50.2214 42.4084 50.1803 42.7073C49.9532 42.891 49.6904 43.0419 49.2826 43.1104L32.5 36.3704ZM49.0308 43.1927C48.2837 44.3471 47.4133 45.4247 46.4171 46.4201C42.7004 50.1383 37.7576 52.1866 32.5 52.1866C27.2424 52.1866 22.2996 50.1383 18.5829 46.4201C18.0875 45.9238 17.406 45.156 16.8751 44.4677C16.4563 43.9275 16.1252 43.4312 15.9719 43.1982L32.5027 36.5514L49.0336 43.1927H49.0308ZM50.0271 41.4789L35.9759 30.4476C35.9759 30.4476 35.9676 30.4284 35.9649 30.39L33.4853 12.8408C38.3761 13.0766 42.9303 15.092 46.4171 18.5799C50.1338 22.2982 52.181 27.2421 52.181 32.4986C52.181 35.7041 51.4366 38.7121 50.0243 41.4789H50.0271ZM48.2891 48.2929C44.0716 52.5102 38.4637 54.8327 32.5 54.8327C26.5363 54.8327 20.9284 52.5102 16.7109 48.2929C12.8929 44.4732 10.6267 39.5183 10.2326 34.1905C10.2518 33.0059 11.04 31.5362 11.144 31.5362C11.1331 32.0599 11.1221 32.8057 11.1385 33.2829C11.2617 36.9134 12.2661 40.2395 13.9521 43.1433C14.9045 44.7831 16.1306 46.2665 17.5073 47.643C21.3581 51.4956 26.6759 53.6728 32.552 53.6728C37.9519 53.6728 44.0771 51.4819 48.6176 46.3433C51.9484 42.573 53.9572 37.736 53.9572 32.5398C53.9572 20.9326 45.6289 11.6041 35.0262 10.3099C40.0374 10.872 44.6737 13.093 48.2919 16.7098C52.5094 20.9271 54.833 26.5374 54.833 32.5014C54.833 38.4654 52.5094 44.0729 48.2919 48.2929H48.2891Z" fill="white"/>
</svg>
