<svg width="64" height="64" viewBox="0 0 64 64" fill="none" xmlns="http://www.w3.org/2000/svg">
<rect width="64" height="64" fill="#6692FF"/>
<path d="M33.307 24.2585C33.307 21.7265 31.2638 19.6732 28.7431 19.6732C28.6662 19.6732 23.2057 19.6732 23.2057 19.6732V28.9217C23.2906 28.9902 23.3709 29.0641 23.4435 29.1457C24.072 29.8519 24.129 31.0503 23.5707 31.8172C23.4601 31.9689 23.3367 32.1122 23.2057 32.2493V33.9877C23.2674 33.9512 23.3305 33.9133 23.3951 33.8745C23.4349 33.8502 23.4843 33.819 23.5247 33.7918C23.5498 33.7753 23.6381 33.7121 23.9391 33.4725C24.4902 33.0337 25.1766 32.4865 25.9338 32.3076C26.1541 32.2541 26.287 32.226 26.4275 32.206V22.3398H28.0733C29.2629 22.3398 30.1668 23.2486 30.1668 24.3703C30.1668 25.492 29.2026 26.4013 28.0125 26.4013H27.2649V30.1138L28.173 31.5485C28.2637 31.4688 28.3548 31.3852 28.4469 31.2996L28.4654 31.2822L28.4849 31.2656C29.1936 30.6732 29.9332 30.4025 30.8755 30.3923C30.895 30.3738 30.9178 30.3524 30.9405 30.3306L29.8302 28.7122C31.8259 28.2223 33.307 26.4144 33.307 24.2585Z" fill="white"/>
<path d="M39.6292 19.6738H34.454V28.4606C34.5442 28.4047 34.6367 28.3444 34.7312 28.2827C34.9149 28.1627 35.119 28.029 35.3365 27.9114L35.3711 27.8929L35.4067 27.8774C35.7964 27.7063 36.246 27.6154 36.7069 27.6154C37.0501 27.6154 37.3848 27.6684 37.682 27.768V22.3404H39.7023C40.5896 22.3404 41.3087 23.1715 41.3087 24.0803C41.3087 24.9891 40.5896 25.7249 39.7023 25.7249H38.6504V28.2419C38.7301 28.2949 38.817 28.3556 38.9153 28.4256L38.9476 28.4489L39.0264 28.516H40.5791C41.6543 28.516 42.467 29.4044 42.467 30.5052C42.4542 30.8857 42.3678 31.2254 42.2173 31.5136C42.664 32.074 43.2261 32.8117 43.5579 33.3657L43.5698 33.3866C43.7141 33.6413 43.8446 33.9684 43.9291 34.2716C45.0442 33.4566 45.7629 32.1799 45.7629 30.7462C45.7629 28.9791 45.1548 27.7185 43.1136 26.7489C43.9424 25.9572 44.4489 24.8973 44.4489 23.7318C44.4489 22.6763 44.0521 21.7062 43.3581 20.9451C42.6356 20.1311 41.3572 19.6747 39.6297 19.6747L39.6292 19.6738Z" fill="white"/>
<path d="M33.4235 40.6629C33.4833 40.7513 33.5403 40.8806 33.5958 41.0055C33.6832 41.2033 33.7587 41.3739 33.8474 41.4026C33.8835 41.4142 33.9253 41.4201 33.9718 41.4201C34.1731 41.4201 34.4532 41.3083 34.654 41.1474C34.7679 41.0492 34.7309 40.9851 34.6806 40.8966C34.6644 40.8685 34.6464 40.8369 34.6279 40.7965C34.5733 40.6891 34.5419 40.5769 34.5144 40.4782C34.4589 40.2794 34.4114 40.1088 34.203 40.1395C33.9049 40.1832 33.6158 40.2036 33.2939 40.2036C33.2897 40.2036 33.189 40.2046 33.1582 40.276C33.1226 40.3596 33.2037 40.4364 33.2897 40.5176C33.3386 40.5632 33.3884 40.6104 33.4235 40.6629Z" fill="white"/>
<path d="M18.6753 41.6729C18.6644 41.6729 18.6544 41.6749 18.6449 41.6787C18.475 41.7502 18.277 41.9771 18.267 42.1118C18.2243 42.7023 18.2077 42.7645 18.0501 42.9452C18.006 42.9958 17.976 43.1119 18.0259 43.1635C18.0696 43.2082 18.6368 43.3929 18.6995 43.3929L18.7123 43.3914C18.7636 43.3758 18.8049 43.2432 18.9198 42.8359C18.9815 42.6167 19.0517 42.3684 19.1301 42.1429C19.1353 42.1288 19.1362 42.1069 19.0845 42.0316C19.0185 41.9358 18.7987 41.6729 18.6753 41.6729Z" fill="white"/>
<path d="M45.9472 40.7239C45.7863 40.6418 45.5978 40.5451 45.5978 40.5451C45.1839 40.2977 44.9451 39.8871 44.7139 39.49C44.6233 39.3345 44.5293 39.1731 44.4277 39.0264C44.3607 38.9262 44.2478 38.8222 44.1476 38.7304C44.0602 38.6502 43.9776 38.5749 43.9629 38.5331C43.5846 37.476 43.173 36.2324 43.0729 34.8512C43.0572 34.6393 42.9129 34.1776 42.742 33.8763C42.2046 32.9801 40.9196 31.4448 40.8493 31.3685C40.8047 31.3199 40.7558 31.2708 40.7136 31.229L40.6789 31.1945L38.3661 29.2267C37.9061 28.8967 37.7656 28.8379 37.4338 28.7145C37.2216 28.6358 36.97 28.594 36.7066 28.594C36.379 28.594 36.0519 28.6586 35.7833 28.7762C35.5995 28.8758 35.4196 28.9935 35.2459 29.1072C34.9501 29.3006 34.6449 29.5003 34.3126 29.6141C34.0544 29.7327 33.7752 29.8211 33.5056 29.9066C32.9811 30.0729 32.4385 30.2449 32.0084 30.6488C31.8835 30.7664 31.781 30.865 31.6951 30.9481C31.2982 31.3316 31.2569 31.3714 30.9308 31.3714C30.1774 31.3714 29.6439 31.5605 29.0889 32.0246C28.6489 32.4343 28.2121 32.8168 27.7042 32.9971C27.4768 33.0778 27.2243 33.1074 26.9565 33.1346C26.572 33.1691 26.5132 33.173 26.1481 33.262C25.5998 33.3912 25.0183 33.8529 24.5251 34.2456C24.3642 34.3739 24.1482 34.544 24.0461 34.6121C23.9934 34.647 23.9289 34.6884 23.8771 34.719C23.2657 35.0854 22.688 35.4314 21.9484 35.4314C21.9299 35.4314 21.9114 35.4314 21.8938 35.431C21.3422 35.3906 20.839 35.0004 20.6705 34.4833C20.5148 33.9015 20.6819 33.3057 21.129 32.8479C21.3427 32.6297 21.5848 32.4183 21.8193 32.2142C22.1976 31.8846 22.5551 31.5736 22.8029 31.2324C23.091 30.8364 23.0597 30.1691 22.7354 29.8046C22.4122 29.4415 21.6897 29.2603 21.4177 29.1922L21.3707 29.1801C21.3441 29.1733 21.2957 29.1679 21.2705 29.1611C21.0982 29.1266 20.9335 29.1028 20.7649 29.06C20.3348 28.94 20.0026 28.5998 19.6214 28.3894C19.4747 28.6197 19.4258 28.87 19.4452 29.1499C19.5184 29.738 19.9959 30.3479 20.5266 30.5958C20.5489 30.6055 20.5717 30.6143 20.594 30.623C20.7621 30.6969 20.9392 30.7071 21.1048 30.7071C21.1404 30.7071 21.1765 30.7071 21.2121 30.7061C21.2477 30.7061 21.2833 30.7051 21.3189 30.7051C21.4219 30.7051 21.5435 30.7042 21.6555 30.7338C21.7585 30.761 21.8653 30.865 21.8795 30.9982C21.8881 31.0764 21.8534 31.1367 21.7566 31.214C21.6674 31.2908 21.5772 31.3671 21.487 31.4429C21.0303 31.8292 20.5584 32.2287 20.1744 32.7138C19.6608 33.2819 19.6375 34.2689 19.8763 34.909C20.1825 35.7522 21.0289 36.2226 21.731 36.3145C21.8563 36.3349 21.9811 36.3446 22.1126 36.3446C22.5266 36.3446 22.9206 36.2431 23.3022 36.1444C23.3165 36.141 23.3284 36.1391 23.3383 36.1391C23.3559 36.1391 23.3886 36.1391 23.3948 36.229C23.4062 36.403 23.4152 36.6008 23.4233 36.7917C23.4371 37.1028 23.4499 37.3963 23.4731 37.5203C23.5244 37.7968 23.6583 38.1331 23.747 38.3552C23.7845 38.4495 23.8145 38.5238 23.8244 38.5608C23.8591 38.6871 23.8268 38.8242 23.7447 38.9015C23.4551 39.1731 22.8674 39.3894 22.7592 39.4035C22.585 39.4258 22.3998 39.4361 22.2645 39.4433C22.1957 39.4467 22.1416 39.4501 22.1126 39.4536C22.0485 39.4613 21.9954 39.4866 21.9503 39.5313C21.8677 39.6134 21.777 39.8511 21.6721 40.1262C21.609 40.2914 21.5435 40.4625 21.4779 40.6049C21.2942 40.9188 20.9842 41.1021 20.6842 41.2799C20.6092 41.3242 20.5347 41.3684 20.463 41.4141L20.4545 41.4228C20.3311 41.6226 20.2076 41.8136 20.0495 41.9559C19.9261 42.0731 19.768 42.1003 19.6166 42.1188L19.6062 42.1202L19.5991 42.1285C19.366 42.4026 19.2905 42.7671 19.2174 43.1199C19.2065 43.1739 19.1951 43.2278 19.1832 43.2817L19.1732 43.3318L19.2041 43.3347C19.3266 43.3464 19.45 43.3736 19.581 43.4028C19.7529 43.4412 19.9304 43.4805 20.1051 43.4805C20.2698 43.4805 20.4122 43.445 20.538 43.3731C20.7616 43.2677 20.8808 43.0582 20.9961 42.855C21.0721 42.7219 21.1504 42.5839 21.2586 42.4769C21.3218 42.406 21.3972 42.3729 21.496 42.3729C21.5829 42.3729 21.6787 42.3992 21.7713 42.4244C21.8558 42.4473 21.9432 42.4716 22.0262 42.476C22.4383 42.4993 22.829 42.2349 23.0198 42.0799C23.1033 42.0123 23.1864 41.9326 23.2671 41.8553C23.392 41.7358 23.5211 41.6119 23.6583 41.5239C23.8254 41.4422 24.0285 41.4024 24.2782 41.4024C24.5882 41.4024 24.9172 41.4656 25.1797 41.5161C25.3202 41.554 25.4641 41.573 25.6079 41.573C25.8581 41.573 26.0916 41.5142 26.2829 41.4034C26.5127 41.2702 26.7439 41.1463 26.9295 41.0466C27.0377 40.9883 27.1336 40.9368 27.2091 40.8945C27.5395 40.7089 27.8181 40.1952 27.9226 39.9828C28.0199 39.785 28.187 39.3564 28.1889 39.352L28.1965 39.3321L27.812 39.0312L27.7958 39.058C27.7935 39.0623 27.5414 39.4876 27.3781 39.6844C26.7007 40.6297 25.596 40.7512 24.7102 40.7512C24.649 40.7487 24.5878 40.7478 24.527 40.7478C23.429 40.7478 22.5446 41.1249 21.8985 41.869C21.8682 41.9039 21.8159 41.9093 21.7931 41.8801C21.7794 41.8622 21.7761 41.8335 21.7841 41.7995C21.8022 41.7217 21.8098 41.6989 21.8563 41.6128C22.5437 40.6146 23.7162 40.4664 24.6618 40.4489C25.3606 40.4012 25.869 40.2768 26.3105 40.0465C26.8773 39.751 27.2974 39.0973 27.4621 38.5802C27.5703 38.24 27.623 37.8775 27.6743 37.5271C27.7146 37.2486 27.7569 36.9604 27.8257 36.696C27.8381 36.6586 27.8742 36.6391 27.9036 36.6391C27.9117 36.6391 27.9188 36.6406 27.9316 36.645C27.9677 36.6513 28.0356 36.678 28.0356 36.732C27.9401 37.2812 27.8101 38.033 28.0555 38.6609C28.1694 38.9092 28.4129 39.0302 28.7994 39.0302C29.0334 39.0302 29.2888 38.9889 29.5361 38.9491C29.7269 38.918 29.9078 38.8888 30.064 38.8815C30.129 38.8757 30.1959 38.8728 30.2638 38.8728C30.5714 38.8728 30.8686 38.934 31.1563 38.9933C31.4069 39.0448 31.6666 39.0983 31.9324 39.1114C31.9794 39.1138 32.0302 39.1177 32.0834 39.1221C32.1755 39.1299 32.2709 39.1377 32.3677 39.1377C32.5927 39.1377 32.7518 39.0925 32.8681 38.9953C32.9492 38.9272 32.9208 38.8256 32.8847 38.6973L32.878 38.6745C32.8719 38.6526 32.8647 38.6288 32.8567 38.6026C32.8049 38.4325 32.7271 38.1754 32.8576 38.0573C32.8757 38.0422 32.9042 38.0325 32.9293 38.0325C32.9511 38.0325 32.9796 38.0393 32.9896 38.0733C33.0043 38.1224 33.0181 38.172 33.0318 38.2216C33.0888 38.4271 33.1477 38.6395 33.2773 38.8213C33.5464 39.1741 33.9642 39.508 34.4826 39.7855C34.8153 40.0207 35.2188 40.4178 35.2506 40.9699C35.2506 41.2201 35.0133 41.3951 34.8372 41.5035C34.5595 41.6454 34.1222 41.8179 33.8578 41.8043C33.6803 41.7951 33.5327 41.6799 33.5227 41.6702C33.2516 41.4155 33.283 41.328 33.1064 41.0253C33.0129 40.8644 32.9155 40.6982 32.7935 40.5514C32.625 40.3599 32.4128 40.287 32.1266 40.3109C31.8503 40.3337 31.5959 40.3862 31.2925 40.4528C31.2294 40.4664 31.1814 40.5043 31.1568 40.5597C31.1297 40.6209 31.1354 40.6953 31.1729 40.7633C31.3295 41.0496 31.4824 41.3115 31.6438 41.589L31.7155 41.7125C31.7549 41.78 31.837 41.7888 31.9044 41.7888C31.9414 41.7888 31.9818 41.7858 32.0236 41.7829C32.0687 41.7795 32.1147 41.7761 32.1608 41.7761C32.3008 41.7761 32.39 41.8102 32.4475 41.883C32.4954 41.9584 32.5396 42.04 32.5823 42.1188C32.6877 42.3132 32.7964 42.5144 32.9787 42.6582C33.1448 42.8084 33.3841 42.8944 33.6357 42.8944C33.7463 42.8944 33.8536 42.8779 33.9542 42.8453C34.6791 42.6125 35.385 42.3734 36.0557 42.0055H36.276C36.3249 42.0002 36.3743 41.9963 36.4241 41.9924C36.6562 41.9749 36.896 41.9569 37.0659 41.7737C37.2814 41.4525 37.4651 41.1317 37.627 40.7925C37.7723 40.4878 37.7737 40.1903 37.6303 39.9556C37.2026 39.2553 37.1271 39.0706 36.952 38.5933L36.9472 38.5802L36.9339 38.5763C36.8831 38.5608 36.8328 38.5409 36.7844 38.5209C36.679 38.4786 36.5703 38.4349 36.4445 38.4349H36.4284C36.2812 38.4398 36.1825 38.4864 36.1412 38.5705L36.135 38.5831L36.9112 40.151C36.961 40.2739 37.018 40.3974 36.9881 40.5806C36.9582 40.7638 36.577 41.3762 36.4626 41.4544C36.4341 41.4738 36.4122 41.4836 36.3951 41.4836C36.3857 41.4836 36.3458 41.4758 36.3719 41.3834C36.4445 41.1298 36.5352 40.531 36.5105 40.339C36.4825 40.1169 35.8326 39.0152 35.8051 38.968L35.7932 38.9486C35.6931 38.7809 35.5891 38.6079 35.5981 38.4038C35.5981 38.3105 35.6826 38.2449 35.7448 38.2211C35.8578 38.1773 35.9651 38.1608 36.0814 38.1346C36.3572 38.0723 36.6429 38.0082 36.7445 37.8503C37.0559 37.3662 37.2406 36.8612 37.3631 36.1629C37.3683 36.1318 37.3897 36.0734 37.4329 36.0734C37.4585 36.0734 37.4832 36.0822 37.4936 36.1425C37.6076 36.8039 37.4528 37.4979 37.0692 38.0476C37.0469 38.0792 37.0303 38.1418 37.0417 38.1992C37.0507 38.2551 37.1124 38.3003 37.1124 38.3003C37.2624 38.4043 37.806 38.345 38.2 38.1321C38.5009 38.1384 38.7858 38.084 39.0602 38.031C39.1475 38.014 39.2339 37.9975 39.3193 37.9834C39.3469 37.9995 39.3682 38.0238 39.3735 38.0446C39.1428 38.3124 39.0008 38.6128 38.9282 38.9885C38.8641 39.0555 38.7929 39.1226 38.7236 39.1872C38.4706 39.4244 38.1976 39.6893 38.1848 40.0285C38.1848 40.0285 38.1767 40.15 38.3054 40.1597C38.3462 40.1631 38.3913 40.1408 38.435 40.1223C38.4824 40.1028 38.5323 40.0829 38.5688 40.0878C38.6106 40.0951 38.6396 40.1281 38.6429 40.1714L38.3547 40.6039C38.246 40.7842 38.2921 40.9767 38.3362 41.1628C38.3685 41.2658 38.3538 41.3465 38.3813 41.4364C38.4535 41.6522 38.7103 41.7547 38.9154 41.7547C39.2923 41.7377 39.6346 41.6109 39.9654 41.4884C40.0243 41.4665 40.0832 41.4447 40.1439 41.4228C40.5066 41.2624 40.9917 41.2289 41.568 41.3256C42.0318 41.2955 42.3803 40.9825 42.7173 40.6768C42.8611 40.6807 43.0111 40.7682 43.1645 40.9373C43.6658 41.4884 44.2805 41.7562 45.0443 41.7562C45.0728 41.7562 45.1013 41.7562 45.1307 41.7552L45.2081 41.7494C45.2874 41.7304 45.3083 41.6906 45.313 41.6396C45.3187 41.5778 45.2722 41.5186 45.1867 41.4768L44.759 41.2444C44.4172 41.0219 44.0446 40.7546 43.942 40.4017C43.831 40.0261 43.6245 39.6426 43.4711 39.387C43.4412 39.3369 43.4075 39.2878 43.3719 39.2358C43.3112 39.1469 43.249 39.0546 43.2053 38.9593L43.2072 38.9573C43.6734 39.1284 43.9335 39.4813 44.2482 40.0683C44.4818 40.5053 45.0904 40.9771 45.6667 40.9771C45.7421 40.9771 45.8167 40.9689 45.8869 40.9529C45.9491 40.9388 45.9895 40.8994 45.9975 40.845C46.0047 40.7968 45.999 40.7512 45.9458 40.7239H45.9472ZM37.6294 33.6702C37.6166 33.7169 37.5886 33.747 37.5582 33.747C37.5444 33.747 37.5121 33.7407 37.5003 33.6809C37.3792 33.0481 37.3061 32.7366 37.1651 32.445C37.1196 32.3507 37.064 32.273 37.0146 32.2039C36.9107 32.0586 36.8214 31.9332 36.9221 31.7636C36.9515 31.7136 37.0256 31.68 37.1063 31.68C37.1457 31.68 37.1832 31.6883 37.215 31.7039C37.3341 31.7617 37.4499 31.9094 37.5691 32.1558C37.8677 32.7799 37.6318 33.6614 37.6294 33.6702ZM41.5163 39.976C41.5163 39.976 41.4978 40.1553 41.4157 40.2316C41.3335 40.3079 41.0387 40.3497 40.8845 40.3439C40.7302 40.3376 40.6765 40.3157 40.6438 40.2666C40.6077 40.2122 40.6666 40.1058 40.6666 40.1058C40.6851 40.0664 40.8674 39.6805 41.2319 39.5799C41.2319 39.5799 41.3501 39.5357 41.4617 39.5925C41.5733 39.6489 41.5206 39.9357 41.5163 39.976ZM42.5744 37.4872C42.5521 37.634 42.5179 37.7045 42.4989 37.739C42.4799 37.7735 42.4472 37.8507 42.3409 37.8512C42.2246 37.8512 42.2336 37.7113 42.2321 37.6923C42.2321 37.6923 42.2184 37.3035 42.1458 37.1397C42.0665 36.9614 41.6843 36.4588 41.4641 36.4797C41.4081 36.4851 41.2647 36.5731 41.1574 36.7159C41.0278 36.8885 41.0283 36.9094 40.9884 36.9356C40.9485 36.9618 40.8968 36.9478 40.8792 36.8462C40.8617 36.7446 40.8441 36.662 40.8902 36.4676C40.9367 36.2732 40.9827 36.2309 41.0383 36.0919C41.0383 36.0919 41.1536 35.8198 41.1968 35.7527C41.315 35.5685 41.474 35.5806 41.474 35.5806C41.5168 35.5836 41.653 35.5656 41.7997 35.7537C41.9696 35.9714 41.9331 35.9515 41.981 36.0287C42.029 36.106 42.0793 36.1857 42.2193 36.3422C42.3598 36.4982 42.5146 36.8034 42.5573 36.9925C42.6 37.1815 42.5972 37.3419 42.5749 37.4887L42.5744 37.4872Z" fill="white"/>
<path d="M19.3037 41.6625C19.3474 41.6994 19.4162 41.748 19.5149 41.748C19.571 41.748 19.6308 41.732 19.6925 41.6999C20.0129 41.5347 20.3447 40.9257 20.3576 40.8898C20.3927 40.7916 20.2821 40.7017 20.1425 40.5875L20.1264 40.5743C20.0656 40.5243 19.9536 40.5311 19.8791 40.5831C19.8273 40.6191 19.7751 40.6545 19.7233 40.6895C19.5572 40.8018 19.3858 40.9184 19.204 41.0739C19.1385 41.1298 19.1024 41.2382 19.0958 41.3204C19.0906 41.3855 19.102 41.4384 19.1285 41.47C19.1437 41.487 19.2757 41.6387 19.3037 41.6625Z" fill="white"/>
<path d="M31.3334 17.8208L32.5277 12.105H31.0837L29.8893 17.8208H31.3334Z" fill="white"/>
<path d="M37.887 17.8208L38.1879 16.9669H40.0407L40.2149 17.8208H41.5507L40.3853 12.105H39.1525C38.8753 12.105 38.6413 12.2702 38.5378 12.5244L36.3707 17.8208H37.887ZM39.3642 13.6495L39.8019 15.7956H38.6042L39.3642 13.6495Z" fill="white"/>
<path d="M34.0686 16.7151C33.3427 16.7263 32.9217 16.5139 32.5856 16.354L32.324 17.6065C32.6615 17.7649 33.2844 17.9034 33.93 17.9102C35.4471 17.9102 36.4397 17.1428 36.4445 15.9546C36.4507 14.446 34.407 14.3629 34.4208 13.6888C34.4251 13.4837 34.6159 13.2655 35.0332 13.2101C35.2401 13.1824 35.8103 13.161 36.4568 13.4658L36.7103 12.2537C36.3628 12.1244 35.9157 12 35.3593 12C33.9319 12 32.9274 12.7771 32.9188 13.8896C32.9098 14.7123 33.6361 15.1716 34.183 15.4452C34.746 15.7252 34.9349 15.905 34.9325 16.1558C34.9287 16.5392 34.4844 16.7083 34.0686 16.7151Z" fill="white"/>
<path d="M25.4451 13.2592L26.5968 17.8208H28.1234L30.4633 12.105H28.9461L27.4432 15.9954L26.8351 12.6882C26.7639 12.3188 26.4824 12.1055 26.1691 12.1055H23.7115L23.6773 12.2717C24.1815 12.3839 24.7549 12.5647 25.1019 12.7577C25.3146 12.8758 25.3754 12.9783 25.4451 13.2592Z" fill="white"/>
<path d="M31.5383 47.1858L31.3503 47.074C31.3147 47.0531 31.2692 47.0633 31.2454 47.0978C31.1305 47.2776 30.9331 47.3836 30.7232 47.3787C30.3264 47.3787 30.0781 47.0511 30.0781 46.5919C30.0781 46.1326 30.3221 45.8109 30.7194 45.8109C30.9259 45.805 31.121 45.9056 31.2397 46.0787C31.2639 46.1127 31.31 46.1219 31.3451 46.0996L31.5312 45.9834C31.5312 45.9834 31.5345 45.9815 31.5359 45.98C31.5715 45.9533 31.5791 45.9018 31.553 45.8648C31.3593 45.5893 31.0451 45.4299 30.7133 45.4391C30.0881 45.4391 29.658 45.9047 29.658 46.5919C29.658 47.2791 30.0881 47.7505 30.7199 47.7505C31.0574 47.7602 31.376 47.5916 31.5635 47.3039C31.5649 47.3019 31.5663 47.2995 31.5677 47.2975C31.5901 47.2587 31.5763 47.2086 31.5383 47.1858Z" fill="white"/>
<path d="M32.457 46.0232C32.2448 46.0236 32.0359 46.0776 31.8484 46.1806C31.8109 46.2015 31.7966 46.2491 31.8156 46.2885L31.8849 46.4329L31.8864 46.4358C31.9072 46.4746 31.9552 46.4892 31.9936 46.4678C32.1275 46.3964 32.2756 46.358 32.4266 46.3556C32.5581 46.3556 32.7138 46.3925 32.7138 46.5305C32.7138 46.6861 32.5153 46.7021 32.2837 46.7366C32.0667 46.7677 31.7159 46.8367 31.7159 47.2396C31.7159 47.5633 31.9447 47.7475 32.2742 47.7475C32.4968 47.7475 32.6359 47.6663 32.7351 47.5351V47.6284C32.7351 47.6731 32.7703 47.7096 32.8139 47.7096H33.0223C33.066 47.7096 33.1016 47.6731 33.1016 47.6284V46.5665C33.1016 46.1821 32.8353 46.0232 32.457 46.0232ZM32.7142 47.0836C32.7142 47.3305 32.54 47.4369 32.3539 47.4369C32.2044 47.4369 32.1009 47.3684 32.1009 47.2216C32.1009 47.0622 32.2196 47.0229 32.363 46.9966C32.5063 46.9704 32.6407 46.9514 32.7142 46.895V47.0836Z" fill="white"/>
<path d="M34.0623 46.6855C33.8824 46.6544 33.702 46.6296 33.702 46.4979C33.702 46.3793 33.8273 46.3361 33.9764 46.3361C34.1268 46.3351 34.2735 46.3842 34.3946 46.4751C34.4283 46.5013 34.4762 46.4955 34.5038 46.4624L34.603 46.3429L34.6063 46.339C34.6329 46.3035 34.6267 46.253 34.5921 46.2257C34.4183 46.0906 34.2052 46.0192 33.9873 46.0226C33.6393 46.0226 33.3341 46.1757 33.3341 46.5378C33.3341 46.8998 33.6194 46.9868 33.917 47.0379C34.1981 47.0855 34.3139 47.1132 34.3139 47.2381C34.3139 47.3751 34.1871 47.4315 34.0162 47.4315C33.8501 47.4354 33.6877 47.3819 33.5553 47.2789C33.5216 47.2512 33.4732 47.2561 33.4452 47.2896L33.3398 47.4174L33.3388 47.4189C33.3108 47.4539 33.316 47.5054 33.3502 47.5341C33.5339 47.6808 33.7623 47.7571 33.9954 47.7498C34.4216 47.7498 34.6899 47.5375 34.6899 47.1934C34.6899 46.8493 34.4463 46.7545 34.0623 46.6855Z" fill="white"/>
<path d="M35.802 46.0232C35.6092 46.0178 35.426 46.1082 35.3106 46.2667V45.561C35.3106 45.5163 35.275 45.4798 35.2314 45.4798H35.0025C34.9589 45.4798 34.9233 45.5163 34.9233 45.561V47.6289C34.9233 47.6736 34.9589 47.7101 35.0025 47.7101H35.2314C35.275 47.7101 35.3106 47.6736 35.3106 47.6289V46.7799C35.3106 46.5301 35.4692 46.3799 35.6766 46.3799C35.8964 46.3799 35.951 46.5388 35.951 46.7143V47.6289C35.951 47.6736 35.9866 47.7101 36.0303 47.7101H36.2591C36.3028 47.7101 36.3384 47.6736 36.3384 47.6289V46.6229C36.3384 46.2706 36.1409 46.0232 35.802 46.0232Z" fill="white"/>
<path d="M38.5443 45.5328C38.532 45.5017 38.5026 45.4817 38.4698 45.4817H38.101C38.0682 45.4817 38.0388 45.5017 38.0264 45.5328L37.2774 47.6007C37.274 47.6099 37.2721 47.6196 37.2721 47.6294C37.2721 47.6741 37.3077 47.7105 37.3514 47.7105H37.6196C37.6538 47.7105 37.6842 47.6882 37.6951 47.6551L37.8598 47.1579H38.6915L38.8572 47.6551C38.8681 47.6882 38.8985 47.7105 38.9327 47.7105H39.2165C39.226 47.7105 39.235 47.7091 39.2436 47.7057C39.2849 47.6901 39.3058 47.6434 39.2911 47.6012L38.5443 45.5328ZM37.9605 46.8109L38.2804 45.8419L38.5885 46.8109H37.9605Z" fill="white"/>
<path d="M40.359 46.0233C40.1634 46.015 39.9768 46.1079 39.8629 46.2702V46.1424V46.1385C39.8619 46.0938 39.8254 46.0583 39.7817 46.0593H39.5548C39.5111 46.0593 39.4755 46.0957 39.4755 46.1404V48.1724C39.4755 48.2171 39.5111 48.2535 39.5548 48.2535H39.7836C39.8273 48.2535 39.8629 48.2171 39.8629 48.1724V47.4964C39.9768 47.6601 40.1634 47.7539 40.359 47.7462C40.7985 47.7462 41.0824 47.3695 41.0824 46.8825C41.0824 46.3956 40.7985 46.0233 40.359 46.0233ZM40.2773 47.4006C40.0058 47.4006 39.8624 47.1669 39.8624 46.8825C39.8624 46.5982 40.0086 46.3698 40.2773 46.3698C40.546 46.3698 40.6775 46.5982 40.6775 46.8825C40.6775 47.1669 40.546 47.4006 40.2773 47.4006Z" fill="white"/>
<path d="M42.2066 46.0233C42.011 46.015 41.8249 46.1079 41.7105 46.2702V46.1424V46.1395C41.7105 46.0947 41.6744 46.0588 41.6312 46.0593H41.402C41.3583 46.0593 41.3232 46.0957 41.3236 46.1404V48.1724C41.3236 48.2171 41.3592 48.2535 41.4029 48.2535H41.6312C41.6749 48.2535 41.7105 48.2171 41.7105 48.1724V47.4964C41.8244 47.6597 42.011 47.7535 42.2066 47.7462C42.6457 47.7462 42.9296 47.3695 42.9296 46.8825C42.9296 46.3956 42.6457 46.0233 42.2066 46.0233ZM42.1259 47.4006C41.8544 47.4006 41.7105 47.1669 41.7105 46.8825C41.7105 46.5982 41.8601 46.3698 42.1259 46.3698C42.3917 46.3698 42.5227 46.5982 42.5227 46.8825C42.5227 47.1669 42.3941 47.4006 42.1259 47.4006Z" fill="white"/>
<path d="M27.2543 44.485C27.0207 44.4097 26.8076 44.4097 26.3751 44.4097H25.0768C24.6467 44.4097 24.4312 44.4097 24.2014 44.4831C23.9475 44.5773 23.7476 44.782 23.6555 45.042C23.582 45.2796 23.582 45.4998 23.582 45.9401V47.2693C23.582 47.7125 23.582 47.9302 23.6536 48.1674C23.7457 48.4274 23.9456 48.632 24.1995 48.7263C24.4317 48.8016 24.6467 48.8016 25.0768 48.8016H26.377C26.8076 48.8016 27.0226 48.8016 27.2543 48.7263C27.5083 48.632 27.7081 48.4274 27.8002 48.1674C27.8738 47.9297 27.8738 47.7096 27.8738 47.2693V45.9425C27.8738 45.5017 27.8738 45.2816 27.8002 45.0444C27.7081 44.7844 27.5083 44.5793 27.2543 44.485ZM26.697 45.8929L26.5313 46.063C26.4981 46.0966 26.4454 46.0975 26.4107 46.0655C26.2498 45.926 26.0457 45.8492 25.8349 45.8492C25.6612 45.8492 25.4874 45.908 25.4874 46.0718C25.4874 46.2356 25.6735 46.2895 25.889 46.3726C26.2655 46.5029 26.5759 46.6623 26.5759 47.0404C26.5759 47.451 26.265 47.7315 25.7556 47.7635L25.7096 47.9837C25.701 48.025 25.6654 48.0542 25.6241 48.0537H25.3042C25.299 48.0537 25.2937 48.0527 25.2885 48.0517C25.2406 48.0415 25.2102 47.9939 25.2197 47.9448L25.2695 47.7125C25.0773 47.6625 24.9007 47.5633 24.7559 47.4243L24.7535 47.4219C24.7208 47.3869 24.7217 47.3315 24.7559 47.2975L24.9334 47.1196C24.9671 47.0856 25.0208 47.0856 25.0545 47.1196C25.2173 47.2785 25.4347 47.3655 25.6593 47.3621C25.8909 47.3621 26.0485 47.2615 26.0485 47.1021C26.0485 46.9427 25.8909 46.9004 25.5928 46.7872C25.2781 46.6725 24.9804 46.5082 24.9804 46.1267C24.9804 45.6854 25.3407 45.4696 25.7656 45.4483L25.8102 45.2242C25.8192 45.1834 25.8544 45.1547 25.8952 45.1547H26.2142C26.2199 45.1547 26.2261 45.1552 26.2318 45.1567C26.2783 45.1664 26.3087 45.213 26.2992 45.2611L26.2493 45.5114C26.4117 45.5659 26.5622 45.6519 26.6927 45.7656C26.6946 45.7671 26.696 45.7685 26.6975 45.7705C26.7307 45.8045 26.7297 45.8589 26.697 45.8929Z" fill="white"/>
<path d="M23.4942 50.8389H24.1432V50.9997H23.668V51.3424H24.1285V51.4998H23.668V51.9795H23.4942V50.8389Z" fill="white"/>
<path d="M25.0897 51.9999C25.0071 51.9999 24.9297 51.9848 24.858 51.9552C24.7864 51.9251 24.7246 51.8838 24.6724 51.8308C24.6207 51.7778 24.5799 51.7151 24.55 51.6437C24.52 51.5717 24.5053 51.4935 24.5053 51.4089C24.5053 51.3244 24.52 51.2461 24.549 51.1742C24.5784 51.1023 24.6193 51.0406 24.6715 50.9876C24.7237 50.9351 24.7859 50.8938 24.8571 50.8637C24.9283 50.8335 25.0057 50.8189 25.0897 50.8189C25.1737 50.8189 25.2511 50.834 25.3223 50.8637C25.3935 50.8938 25.4552 50.9351 25.507 50.9876C25.5587 51.0401 25.5995 51.1028 25.6285 51.1747C25.6579 51.2471 25.6722 51.3249 25.6722 51.4085C25.6722 51.492 25.6574 51.5713 25.6285 51.6432C25.5991 51.7151 25.5582 51.7773 25.506 51.8303C25.4538 51.8833 25.3916 51.9251 25.3204 51.9547C25.2492 51.9848 25.1728 51.9999 25.0897 51.9999ZM25.0897 51.8337C25.1471 51.8337 25.2008 51.823 25.2501 51.8016C25.3 51.7802 25.3422 51.7506 25.3778 51.7127C25.413 51.6748 25.441 51.6296 25.4614 51.5771C25.4818 51.5246 25.4922 51.4677 25.4922 51.407C25.4922 51.3462 25.4818 51.2899 25.4614 51.2383C25.441 51.1868 25.413 51.1426 25.3769 51.1052C25.3408 51.0678 25.2986 51.0386 25.2492 51.0172C25.2003 50.9958 25.1467 50.9851 25.0892 50.9851C25.0318 50.9851 24.9767 50.9958 24.9278 51.0172C24.8784 51.0386 24.8362 51.0682 24.8001 51.1052C24.764 51.1426 24.736 51.1868 24.7156 51.2383C24.6952 51.2899 24.6848 51.3462 24.6848 51.407C24.6848 51.4677 24.6947 51.5246 24.7156 51.5771C24.736 51.6296 24.764 51.6748 24.8001 51.7127C24.8362 51.7506 24.8784 51.7802 24.9278 51.8016C24.9767 51.823 25.0313 51.8337 25.0897 51.8337Z" fill="white"/>
<path d="M26.1269 50.8388H26.4896C26.6044 50.8388 26.6946 50.8694 26.7601 50.9312C26.8256 50.9929 26.8584 51.077 26.8584 51.1844C26.8584 51.2655 26.8389 51.335 26.7995 51.3919C26.7601 51.4488 26.7055 51.4896 26.6348 51.5129L26.931 51.979H26.7274L26.4511 51.5348H26.3006V51.979H26.1269V50.8388ZM26.4829 51.3831C26.5446 51.3831 26.593 51.3657 26.6277 51.3307C26.6623 51.2957 26.6799 51.2476 26.6799 51.1868C26.6799 51.1261 26.6628 51.0784 26.6286 51.0454C26.5945 51.0118 26.546 50.9953 26.4829 50.9953H26.2992V51.3836L26.4829 51.3831Z" fill="white"/>
<path d="M28.4781 50.8388V51.9794H28.3091V51.1046L27.993 51.9794H27.8425L27.5263 51.1046V51.9794H27.3592L27.3573 50.8388H27.5957L27.9185 51.7505L28.2379 50.8388H28.4781Z" fill="white"/>
<path d="M29.4171 52C29.3521 52 29.2927 51.9888 29.24 51.9669C29.1869 51.9451 29.1418 51.914 29.1043 51.8736C29.0668 51.8333 29.0383 51.7847 29.0183 51.7269C28.9984 51.669 28.9884 51.6049 28.9884 51.5334V50.8385H29.1622V51.5368C29.1622 51.6282 29.185 51.7011 29.2301 51.7546C29.2752 51.808 29.3378 51.8352 29.4171 51.8352C29.4964 51.8352 29.5605 51.809 29.606 51.7565C29.6511 51.704 29.6739 51.6306 29.6739 51.5368V50.8385H29.8477V51.5334C29.8477 51.6044 29.8377 51.669 29.8178 51.7269C29.7978 51.7847 29.7693 51.8333 29.7318 51.8736C29.6943 51.914 29.6492 51.9446 29.5961 51.9669C29.5429 51.9888 29.4836 52 29.4171 52Z" fill="white"/>
<path d="M30.3577 50.8388H30.5314V51.8185H30.9701V51.9794H30.3572L30.3577 50.8388Z" fill="white"/>
<path d="M32.0101 51.7103H31.543L31.4471 51.98H31.2634L31.684 50.8394H31.8696L32.2883 51.98H32.1046L32.0101 51.7103ZM31.5928 51.5659H31.9621L31.7765 51.0216L31.5928 51.5659Z" fill="white"/>
<path d="M33.9081 51.9999C33.8255 51.9999 33.7481 51.9848 33.6764 51.9552C33.6047 51.9251 33.543 51.8838 33.4908 51.8308C33.4386 51.7778 33.3982 51.7151 33.3683 51.6437C33.3384 51.5717 33.3237 51.4935 33.3237 51.4089C33.3237 51.3244 33.3384 51.2461 33.3674 51.1742C33.3968 51.1023 33.4376 51.0406 33.4899 50.9876C33.5421 50.9351 33.6043 50.8938 33.6755 50.8637C33.7467 50.8335 33.824 50.8189 33.9081 50.8189C33.9921 50.8189 34.0695 50.834 34.1407 50.8637C34.2119 50.8938 34.2736 50.9351 34.3253 50.9876C34.3771 51.0401 34.4179 51.1028 34.4469 51.1747C34.4758 51.2466 34.4905 51.3249 34.4905 51.4085C34.4905 51.492 34.4758 51.5713 34.4469 51.6432C34.4174 51.7151 34.3766 51.7773 34.3244 51.8303C34.2722 51.8833 34.21 51.9251 34.1388 51.9547C34.0676 51.9848 33.9911 51.9999 33.9081 51.9999ZM33.9081 51.8337C33.9655 51.8337 34.0191 51.823 34.0685 51.8016C34.1184 51.7802 34.1606 51.7506 34.1962 51.7127C34.2313 51.6748 34.2594 51.6296 34.2798 51.5771C34.3002 51.5246 34.3101 51.4677 34.3101 51.407C34.3101 51.3462 34.3002 51.2899 34.2798 51.2383C34.2594 51.1868 34.2313 51.1426 34.1953 51.1052C34.1592 51.0678 34.1169 51.0386 34.0676 51.0172C34.0182 50.9958 33.965 50.9851 33.9076 50.9851C33.8502 50.9851 33.7951 50.9958 33.7462 51.0172C33.6968 51.0386 33.6546 51.0682 33.6185 51.1052C33.5824 51.1426 33.5544 51.1868 33.534 51.2383C33.5136 51.2899 33.5036 51.3462 33.5036 51.407C33.5036 51.4677 33.5136 51.5246 33.534 51.5771C33.5544 51.6296 33.5824 51.6748 33.6185 51.7127C33.6541 51.7506 33.6968 51.7802 33.7462 51.8016C33.7951 51.823 33.8497 51.8337 33.9081 51.8337Z" fill="white"/>
<path d="M35.7988 50.8388V51.9794H35.6132L35.1133 51.1202V51.9794H34.9429V50.8388H35.1351L35.6269 51.6829V50.8388H35.7988Z" fill="white"/>
<path d="M36.3212 50.8388H36.9768V50.9962H36.4949V51.3116H36.9601V51.4642H36.4949V51.8219H36.9948V51.9794H36.3212V50.8388Z" fill="white"/>
<path d="M38.3529 50.9996H38.0381V50.8388H38.856V50.9996H38.5266V51.9794H38.3529V50.9996Z" fill="white"/>
<path d="M39.2877 50.8389H39.9432V50.9964H39.4614V51.3118H39.9266V51.4644H39.4614V51.8221H39.9613V51.9795H39.2877V50.8389Z" fill="white"/>
<path d="M41.0598 51.7103H40.5927L40.4968 51.98H40.3131L40.7337 50.8394H40.9193L41.338 51.98H41.1542L41.0598 51.7103ZM40.643 51.5659H41.0123L40.8267 51.0216L40.643 51.5659Z" fill="white"/>
<path d="M42.8785 50.8389V51.9795H42.7095V51.1047L42.3933 51.9795H42.2428L41.9267 51.1047V51.9795H41.7596L41.7582 50.8389H41.9965L42.3193 51.7506L42.6387 50.8389H42.8785Z" fill="white"/>
</svg>
