<svg width="64" height="64" viewBox="0 0 64 64" fill="none" xmlns="http://www.w3.org/2000/svg">
<rect width="64" height="64" fill="#B6BABD"/>
<path fill-rule="evenodd" clip-rule="evenodd" d="M43.564 38.6367C41.2316 42.5071 36.9261 45.1085 32.0061 45.1085C28.3583 45.1085 25.0653 43.6872 22.642 41.3777H26.4067C26.4067 41.3777 37.2247 22.745 37.2636 22.6731C37.3155 22.5969 37.2896 22.5462 37.216 22.5462H32.8023C32.7114 22.5462 32.6984 22.5715 32.6768 22.6096C32.6508 22.6477 26.5798 32.9856 26.5798 32.9856H18.6437C18.6178 32.6599 18.6048 32.3384 18.6048 32C18.6048 24.7669 24.5979 18.8915 32.0147 18.8915C35.7924 18.8915 39.2108 20.427 41.647 22.8972C40.5869 24.6442 35.84 32.5245 35.2039 33.6708C34.8361 32.8333 33.1225 32.9983 32.2441 32.9856C31.8589 33.6074 30.0632 36.9278 30.0632 36.9278C30.0632 36.9278 31.0584 36.9152 31.9498 36.9278C32.8196 36.9405 32.9191 37.8246 32.5773 38.3872C32.2311 38.9497 30.8161 41.3777 30.8161 41.3777H35.3726C35.3726 41.3777 40.9634 31.8393 44.1395 26.4123C44.5765 27.3048 44.9054 28.2565 45.1261 29.2463C46.2079 28.5188 47.519 28.0873 48.9297 28.0873H48.9384C47.1209 20.5835 40.2321 15 32.0061 15C22.3997 15 14.6151 22.6096 14.6151 32C14.6151 32.3342 14.6281 32.6599 14.6411 32.9856H12.3693C12.2438 32.9856 12.1789 33.0617 12.127 33.1505C12.088 33.2394 10.0716 36.7037 10.024 36.7925C9.98502 36.8813 9.98502 36.9278 10.0889 36.9278H15.3594C17.5143 43.9114 24.1479 49 32.0104 49C38.2718 49 43.7587 45.7641 46.818 40.9124C45.5112 40.4894 44.3818 39.6857 43.5683 38.6367H43.564ZM19.5784 36.9236H24.2085L21.9757 40.7009C20.9804 39.5885 20.1626 38.3195 19.5784 36.9236Z" fill="white"/>
<path d="M48.9156 29.6903C47.639 29.6903 45.1985 31.1666 45.1985 33.7087C45.1985 34.9354 46.1851 35.4811 47.0679 35.4811C47.9506 35.4811 49.0194 35.0412 49.8848 34.2417C49.9065 34.2206 49.9238 34.2036 49.9454 34.1825H48.6905C48.4352 34.1825 48.2578 33.9921 48.2968 33.7426C48.2968 33.7257 48.3141 33.6495 48.3141 33.6368C48.3617 33.3746 48.6083 33.235 48.8723 33.235H51.2782C51.5465 33.235 51.7196 33.4465 51.6676 33.7087L51.2393 36.0563C51.1917 36.3186 51.0013 36.5301 50.7373 36.5301H50.6334C50.3781 36.5301 50.2094 36.3059 50.2527 36.0563C50.3003 35.7941 50.4517 34.9566 50.4517 34.9566C49.2661 36.0267 47.8597 36.602 46.6524 36.6105C45.8606 36.6189 43.9999 36.2932 43.9999 34.0387C43.9999 33.5776 44.0907 33.0869 44.2855 32.592C44.2811 32.6047 44.2725 32.6174 44.2682 32.6259C44.2249 32.7232 44.1859 32.8205 44.147 32.9177C44.121 32.9812 44.0994 33.0446 44.0734 33.1081C44.0388 33.2096 44.0129 33.3111 43.9826 33.4169C43.9653 33.4803 43.9479 33.5438 43.9306 33.6114C43.9047 33.7257 43.8874 33.8441 43.8701 33.9625C43.8614 34.0175 43.8484 34.0767 43.8441 34.1317C43.8268 34.3094 43.8138 34.487 43.8138 34.6689C43.8138 35.5276 44.0345 36.3355 44.4283 37.0419C44.8999 37.8879 45.6139 38.5858 46.4794 39.0469C47.202 39.4318 48.0285 39.6475 48.9069 39.6475C49.7853 39.6475 50.6118 39.4318 51.3344 39.0469C52.1999 38.5858 52.9139 37.8879 53.3855 37.0419C53.7793 36.3355 54 35.5276 54 34.6689C54 31.9195 51.7153 29.6903 48.9069 29.6903H48.9156Z" fill="white"/>
</svg>
