<svg width="64" height="64" viewBox="0 0 64 64" fill="none" xmlns="http://www.w3.org/2000/svg">
<rect width="64" height="64" fill="#52E252"/>
<path d="M21.7444 46.5974C21.5014 46.5974 21.309 46.6654 21.1679 46.8006C21.0268 46.9359 20.9567 47.0979 20.9567 47.286C20.9567 47.4741 21.0008 47.6108 21.0891 47.6961C21.1773 47.7822 21.4211 47.9131 21.8189 48.0911C22.2168 48.2676 22.4895 48.4549 22.6356 48.6502C22.7817 48.847 22.8555 49.1327 22.8555 49.5081C22.8555 50.1338 22.6631 50.6142 22.279 50.9512C21.8949 51.289 21.3762 51.4576 20.7245 51.4576C20.4641 51.4576 20.1906 51.4294 19.9035 51.3737C19.6156 51.3187 19.3921 51.2637 19.2322 51.208L19 51.1169L19.1902 50.2959C19.8152 50.4058 20.3057 50.4615 20.6623 50.4615C21.0189 50.4615 21.2807 50.3993 21.4464 50.2756C21.612 50.1505 21.6952 49.9393 21.6952 49.6412C21.6952 49.4799 21.6468 49.3577 21.5498 49.2716C21.4536 49.1863 21.2171 49.0582 20.8409 48.8868C20.4648 48.7153 20.1972 48.5273 20.0366 48.3226C19.876 48.1186 19.7964 47.8329 19.7964 47.469C19.7964 46.9323 19.9707 46.4903 20.3187 46.1416C20.6666 45.7937 21.131 45.6194 21.7119 45.6194C21.9773 45.6194 22.2551 45.6461 22.5452 45.699C22.8352 45.7518 23.058 45.8024 23.2128 45.8523L23.445 45.9348L23.2381 46.7471C22.6298 46.648 22.1321 46.5981 21.7451 46.5981L21.7444 46.5974Z" fill="white"/>
<path d="M22.5914 51.3569L25.1289 45.7176H27.1029L26.9286 51.3569H25.7843L25.8175 50.3782H24.1755L23.7364 51.3569H22.5921H22.5914ZM25.8002 46.7129L24.6059 49.3828H25.858L25.9745 46.7129H25.8002Z" fill="white"/>
<path d="M28.7022 49.4407C28.6523 49.6512 28.627 49.8407 28.627 50.0093C28.627 50.1778 28.6841 50.295 28.797 50.3615C28.9105 50.4281 29.1095 50.4606 29.3938 50.4606C29.678 50.4606 29.8929 50.3847 30.0368 50.2335C30.1808 50.0809 30.2943 49.8176 30.3768 49.4407L31.239 45.7176H32.3834L31.5211 49.4407C31.3606 50.1489 31.0994 50.6617 30.7377 50.9793C30.3753 51.2976 29.8958 51.4567 29.299 51.4567C28.0939 51.4567 27.4906 51.0299 27.4906 50.1793C27.4906 49.8921 27.526 49.5847 27.5984 49.2591L28.4194 45.7183H29.5637L28.7015 49.4414L28.7022 49.4407Z" fill="white"/>
<path d="M35.1103 45.7183C36.094 45.7183 36.5866 46.1241 36.5866 46.9372C36.5866 47.2967 36.5092 47.5918 36.3544 47.824C36.1996 48.0569 35.9675 48.2667 35.6579 48.4548C35.8734 48.5821 36.0174 48.7202 36.089 48.8693C36.1606 49.019 36.1968 49.2071 36.1968 49.4335C36.1968 49.9868 36.0043 50.4447 35.6202 50.81C35.2361 51.1746 34.6871 51.3569 33.9739 51.3569H31.8508L33.1529 45.7176H35.1103V45.7183ZM34.4802 48.9937H33.5435L33.2201 50.3782H34.1981C34.447 50.3782 34.6459 50.2928 34.7956 50.1214C34.9446 49.9499 35.0191 49.7286 35.0191 49.4581C35.0191 49.1477 34.8397 48.9937 34.4802 48.9937ZM34.928 46.6963H34.0737L33.7583 48.0403H34.6126C34.839 48.0403 35.03 47.9585 35.1848 47.7958C35.3396 47.633 35.417 47.4233 35.417 47.1694C35.417 46.854 35.2542 46.6963 34.928 46.6963Z" fill="white"/>
<path d="M36.3569 51.3569L37.651 45.7176H40.9596L40.7274 46.7129H38.5711L38.2644 48.0396H39.9729L39.7407 49.0349H38.0401L37.7334 50.3615H39.8984L39.6742 51.3569H36.3569Z" fill="white"/>
<path d="M43.1788 45.7183C43.7755 45.7183 44.2153 45.8441 44.4974 46.0959C44.7788 46.3476 44.9206 46.744 44.9206 47.2858C44.9206 47.8276 44.802 48.2811 44.564 48.6457C44.326 49.011 44.0251 49.2649 43.6605 49.4088L44.1162 51.3575H42.9719L42.5986 49.5665H41.8109L41.3957 51.3575H40.2513L41.5534 45.7183H43.1788ZM43.4811 48.2305C43.6555 47.9925 43.7423 47.7299 43.7423 47.4427C43.7423 47.1556 43.6952 46.9588 43.6012 46.8532C43.5072 46.7483 43.3437 46.6955 43.1115 46.6955H42.4728L42.033 48.5864H42.7715C43.0703 48.5864 43.3061 48.4677 43.4804 48.2298L43.4811 48.2305Z" fill="white"/>
<path fill-rule="evenodd" clip-rule="evenodd" d="M19.4336 13H29.021V19.3916H32.2168V16.1958H35.4126V13H44.9999V22.5874H41.8041V25.7832H38.6084V28.9789H41.8041V32.1747H44.9999V41.7621H35.4126V38.5663H32.2168V35.3705H29.021V41.7621H19.4336V13Z" fill="white"/>
</svg>
