<svg width="64" height="64" viewBox="0 0 64 64" fill="none" xmlns="http://www.w3.org/2000/svg">
<rect width="64" height="64" fill="#3671C6"/>
<path d="M58.4255 37.725C58.1792 37.4389 57.6911 37.269 57.7 36.8443C57.6105 36.6789 57.5926 36.4062 57.512 36.1916C57.4403 36.0128 57.3731 35.758 57.1358 35.7178C56.7058 35.6463 56.1908 35.767 55.9221 35.3691C55.6444 35.0741 55.949 34.7254 56.0027 34.4393C56.1192 34.0727 56.1326 33.5899 56.0744 33.2099C56.0609 32.9909 55.9132 32.8165 55.9535 32.593C56.0565 32.4052 56.2938 32.5438 56.4416 32.5662C56.9969 32.7271 57.6553 32.6466 58.1613 32.4276C58.8555 32.0923 59.4153 31.386 59.3839 30.5858C59.2854 29.5442 58.5375 28.6904 57.7359 28.0198C57.5836 27.8902 57.4 27.7516 57.3462 27.5638C57.3283 27.157 57.7851 27.3582 58.0135 27.2554C58.2912 27.1839 58.5689 27.1168 58.7973 26.9603C59.4063 26.5535 59.5317 25.8383 59.4153 25.1454C59.3929 25.0828 59.3929 24.9979 59.3033 24.9979C59.1958 25.0873 59.0884 25.2169 58.945 25.2974C58.5599 25.5254 58.0449 25.4851 57.6374 25.6818C57.1313 25.9009 56.5043 26.2049 56.2849 26.7815C56.2266 27.0676 56.2983 27.3671 56.4237 27.5996C57.0417 28.5741 58.3405 29.2045 58.5509 30.3757C58.6271 30.8496 58.3897 31.1982 58.0225 31.4665C57.4672 31.8017 56.6342 31.6855 56.0789 31.386C55.004 30.8496 54.0725 29.9555 52.9216 29.5934C52.1961 29.2671 51.3049 29.3431 50.6555 28.8379C50.1674 28.5205 49.724 28.1048 49.1776 27.9662C48.8014 27.8365 48.376 27.8544 48.0267 27.6667C47.6684 27.3493 47.2922 27.0542 46.8757 26.8441C46.3025 26.5535 45.6621 26.406 45.0306 26.2719C44.6499 26.1825 44.5156 25.7623 44.2066 25.5567C43.6781 25.1409 43.0914 24.8459 42.3794 24.8995C42.1331 24.9174 41.9315 25.0604 41.739 25.2214C39.6879 22.0832 36.1365 20 32.0969 20C28.0574 20 24.5822 22.0385 22.5176 25.1275C22.0519 25.0157 21.4921 25.0604 21.0711 25.2393C20.565 25.5075 20.1082 25.8919 19.5708 26.0707C18.796 26.4194 17.9228 26.4865 17.2555 27.081C16.8659 27.4163 16.5389 27.9438 15.9657 27.8544C15.3208 27.8276 14.7431 28.0645 14.2549 28.4624C13.8205 28.8558 13.404 29.3252 12.8353 29.4325C12.3382 29.6381 11.7336 29.5442 11.2275 29.732C10.4214 29.9287 9.78547 30.5635 9.10475 31.0507C8.41956 31.4486 7.76571 31.8733 6.91033 31.8554C6.35501 31.8152 5.81759 31.4262 5.63846 30.8943C5.46828 30.2818 5.65637 29.6426 6.14452 29.2313C6.65058 28.6278 7.45222 28.2657 7.8508 27.5728C8.06128 27.2062 8.02993 26.6117 7.75227 26.2674C7.22382 25.7221 6.47144 25.7042 5.78625 25.5343C5.34736 25.4181 5.01148 25.0828 4.62634 24.8727C4.47855 25.1007 4.42481 25.351 4.4472 25.6282C4.52334 26.254 5.00252 26.8173 5.59815 27.0363C5.94747 27.1839 6.34157 27.0766 6.69985 27.157C6.79837 27.1973 6.89689 27.2956 6.90585 27.4074C6.88794 27.5057 6.87898 27.6041 6.78494 27.6756C6.22961 28.1405 5.64294 28.5876 5.17718 29.1598C4.68008 29.6962 4.62186 30.6395 4.88161 31.31C5.16823 32.0834 5.97434 32.5885 6.74911 32.6869C7.31339 32.7763 7.81945 32.6288 8.33894 32.517C8.4106 32.517 8.43747 32.5885 8.46882 32.6243C8.51808 33.0803 8.4509 33.4871 8.54943 33.9028C8.639 34.2873 8.76887 34.5555 8.9077 34.9355C8.92562 35.0651 8.9077 35.2037 8.81814 35.302C8.53152 35.5166 8.23594 35.6641 7.91349 35.8072L7.13873 35.8564L6.98647 35.9279C6.69985 36.2632 6.69089 36.6119 6.51175 36.9874C6.2744 37.3852 5.83551 37.573 5.46828 37.801C5.35184 37.9887 5.22197 38.1854 5.05179 38.3374C4.92191 38.4536 4.76517 38.4849 4.59499 38.5073C4.33077 38.8157 4.26806 39.2404 4.1785 39.6338L4.20089 39.6562C4.63977 39.6964 5.09209 39.9333 5.52202 39.6964C5.88925 39.531 5.96986 39.084 6.24752 38.8157C6.46696 38.5788 6.79389 38.7532 7.05364 38.8068C7.43878 38.8247 7.71645 38.5475 8.04337 38.4223C8.27177 38.2748 8.45987 38.0155 8.7017 37.868C9.1585 37.649 9.79443 37.7652 10.2691 37.8546C10.6453 37.9574 11.0439 37.8948 11.3753 37.7473C11.6798 37.5551 11.9709 37.3226 12.3158 37.2422C12.6248 37.0857 12.7726 36.737 12.9025 36.4509C13.0055 36.1827 13.2607 35.9726 13.2383 35.6686C13.1577 35.6016 13.0682 35.4496 12.9517 35.463C12.8039 35.6686 12.6964 35.8877 12.5263 36.0844C11.8679 36.9784 10.8379 37.1572 9.78548 37.1572C8.70618 37.117 7.72988 37.4433 6.98647 38.2882C6.9372 38.3195 6.86555 38.2972 6.82524 38.2569C6.79389 38.1362 6.8969 38.0647 6.94616 37.9798C7.60897 37.041 8.64348 36.822 9.73621 36.7996C10.3318 36.7594 10.8961 36.661 11.4022 36.4017C11.9709 36.1156 12.3606 35.539 12.5934 34.9846C12.7233 34.3588 12.7726 33.6838 12.9338 33.0892C12.9517 33.0311 13.0189 32.9998 13.0726 33.0177C13.1309 33.0311 13.2025 33.0669 13.2025 33.1384C13.095 33.7553 13.0234 34.475 13.2607 35.0696C13.7399 35.6954 14.5908 35.2663 15.2357 35.2395C15.9075 35.1813 16.4986 35.4272 17.1435 35.4719C17.4615 35.4585 17.8287 35.5568 18.075 35.3602C18.1467 35.2484 18.0661 35.1232 18.0482 35.0025C18.0258 34.8237 17.8959 34.5734 18.0661 34.4303C18.1153 34.3901 18.2049 34.4124 18.2452 34.4571C18.3348 34.7075 18.3751 34.9712 18.5363 35.1903C18.8543 35.5971 19.32 35.91 19.7589 36.138C20.1754 36.4241 20.5247 36.8309 20.5561 37.3361C20.5561 37.5909 20.3187 37.7741 20.1172 37.8904C19.7813 38.0603 19.4096 38.1988 19.0155 38.1631C18.487 37.9038 18.3527 37.3495 18.0034 36.9427C17.8242 36.746 17.5555 36.7057 17.2913 36.7236C17.0047 36.7549 16.7136 36.7638 16.4538 36.8533C16.3867 36.9114 16.3643 37.0008 16.3732 37.0902C16.5524 37.4165 16.7494 37.7384 16.9465 38.0602C17.1749 38.1988 17.4973 37.9843 17.6944 38.2301C17.8645 38.4894 17.972 38.7934 18.2318 38.9901C18.4781 39.2091 18.8587 39.312 19.1857 39.1689C19.9201 38.9454 20.6546 38.704 21.3398 38.3374H21.5682C21.8459 38.3061 22.1549 38.3285 22.3564 38.1184C22.4146 38.029 22.4684 37.944 22.5221 37.8591C24.5822 40.9526 28.1022 43 32.1059 43C36.1096 43 39.6117 40.966 41.6763 37.8859C41.7076 37.9753 41.7435 38.0647 41.7972 38.1631C41.9853 38.3687 42.245 38.181 42.4824 38.2391C42.7242 38.2972 42.8093 38.5878 43.0511 38.6548C43.5886 38.8336 44.1618 38.932 44.6992 39.1376C44.9813 39.227 45.3754 39.3388 45.6217 39.1108C45.9666 38.9186 46.0606 38.552 46.1189 38.2033C46.2263 38.0558 46.4458 38.1139 46.607 38.0692C46.9071 37.868 47.0011 37.5149 47.2206 37.2466L47.2609 37.1081C47.234 37.0187 47.1534 36.9695 47.0772 36.9382H46.0606C45.5949 37.0008 45.5546 37.5149 45.3575 37.8323C45.25 38.029 45.0261 38.1094 44.8022 38.0915C44.3275 37.9664 43.7408 37.8904 43.5214 37.3763C43.49 37.2466 43.49 37.0902 43.593 37.0008C43.8393 36.7147 44.1349 36.3883 44.4439 36.1514C44.8828 36.062 45.3127 35.7357 45.5367 35.3467C45.6576 35.1769 45.6352 34.931 45.8367 34.8014C45.8949 34.7924 45.9666 34.8014 46.0069 34.8595C46.0965 35.15 45.9263 35.4138 45.8367 35.6641C46.9205 35.7759 47.8251 35.3467 48.8731 35.387C49.3209 35.387 49.7285 35.4764 50.1629 35.4496C50.6018 35.4272 51.0765 35.2484 51.2153 34.7924C51.4123 34.2068 51.2646 33.5452 51.1616 32.9864L51.2153 32.9015C51.2825 32.8612 51.3452 32.9104 51.3944 32.9506C51.5781 33.4737 51.7079 34.1129 51.7885 34.6851C51.8691 35.1903 52.0841 35.6463 52.3662 36.0709C52.8723 36.8264 53.768 37.1215 54.6502 36.9337C55.7251 36.8533 56.6476 37.2913 57.3015 38.1228V38.172C57.2791 38.2122 57.2432 38.2614 57.194 38.2525C56.6297 37.8144 56.0609 37.3495 55.3354 37.2601C54.5696 37.1215 53.8934 37.488 53.1813 37.2019C52.3976 36.9427 51.793 36.1425 51.484 35.4272H51.4034C51.3452 35.4406 51.3049 35.4987 51.2959 35.5569L51.3989 36.1738C51.5153 36.67 51.6766 37.2556 52.214 37.4836C52.6305 37.7294 53.038 38.0871 53.553 37.944C54.4577 37.7473 55.3713 38.0021 56.0609 38.5118C56.2938 38.6414 56.4685 38.8783 56.7193 38.9633C56.988 39.075 57.3149 39.0124 57.5343 38.8381C58.0404 38.6727 58.1568 39.303 58.5062 39.531C58.8107 39.826 59.3526 39.7098 59.7601 39.7098L59.8273 39.6606C59.778 39.2538 59.6705 38.9364 59.5093 38.5788C59.0033 38.6101 58.7525 38.0647 58.4569 37.7429L58.4255 37.725ZM42.5496 27.4074C42.6302 27.537 42.5406 27.6354 42.4779 27.7337C42.0704 28.1226 41.5777 28.516 41.2777 28.9854C41.1702 29.1329 41.0896 29.3028 41.009 29.4727L40.9373 29.4906C40.8567 29.2536 40.9597 29.0033 41.0179 28.7753C41.2284 28.221 41.6942 27.7024 42.1689 27.3493C42.2764 27.2822 42.4869 27.2599 42.5451 27.4074H42.5496ZM22.2668 28.1897C22.325 28.1271 22.437 28.1182 22.5131 28.1495C22.6744 28.2568 22.7729 28.4266 22.858 28.5876C23.0461 29.0257 23.0461 29.6068 22.9207 30.0717L22.8401 30.0807C22.7594 29.6739 22.6744 29.2581 22.5131 28.8737C22.4236 28.6457 22.1235 28.4579 22.2668 28.1897ZM43.3154 35.2886L42.7108 36.1782C42.5719 36.3749 42.4331 36.594 42.3839 36.813C42.3346 37.0634 42.3659 37.3003 42.3839 37.5372L42.2853 37.4791C42.1286 37.1528 41.9494 36.737 42.1196 36.3526L42.881 35.1724L42.9123 35.083C42.7421 34.9936 42.554 34.9042 42.3749 34.8684C42.2853 34.9042 42.2271 34.9936 42.1689 35.0785L41.421 36.4241C41.3717 36.585 41.3225 36.7013 41.3628 36.8711C41.3897 37.0097 41.43 37.1483 41.4792 37.2735C39.5356 40.4117 36.0603 42.5038 32.0925 42.5038C28.1246 42.5038 24.7389 40.4608 22.7818 37.3852C22.8221 37.3092 22.8669 37.2377 22.9072 37.1572C23.0774 36.9293 22.9968 36.5806 22.9251 36.3347C22.5893 35.9189 22.3967 35.454 22.222 34.9757C22.0519 34.9265 21.9041 34.8282 21.716 34.8371C21.6264 34.8729 21.4965 34.855 21.4473 34.9534L22.231 36.5001C22.2803 36.6163 22.343 36.7907 22.3116 36.9471C22.2041 37.2735 22.0339 37.5909 21.7652 37.8278C21.716 37.8546 21.6533 37.8859 21.6175 37.8188C21.707 37.4836 21.8638 37.117 21.8458 36.7281L21.0845 35.3512C20.995 35.1635 20.8337 34.9936 20.8427 34.7745C20.8427 34.6807 20.9323 34.6047 21.0129 34.5689C21.3487 34.4616 21.7563 34.4795 22.016 34.2113C22.3564 33.6838 22.5534 33.1697 22.643 32.5483C22.6609 32.5081 22.6744 32.45 22.7326 32.45C22.7908 32.4276 22.8042 32.4991 22.8311 32.5304C22.9341 33.2144 22.7953 33.9073 22.3967 34.4437C22.3743 34.5153 22.3474 34.6002 22.428 34.6538C22.8087 34.7745 23.2028 34.6538 23.5208 34.484C23.9283 34.4929 24.3045 34.3946 24.6717 34.332L24.7523 34.4348C24.5016 34.712 24.3627 35.0204 24.2955 35.3736C23.9955 35.682 23.57 35.9502 23.5387 36.3973C23.588 36.6163 23.7761 36.4107 23.9059 36.4286C23.9641 36.4375 24.0044 36.4867 24.0044 36.5493L23.7044 36.9829C23.5477 37.2422 23.7357 37.5372 23.7357 37.7831C23.8029 37.9843 24.0448 38.0826 24.2508 38.0826C24.6941 38.0647 25.0927 37.8948 25.4913 37.7518C25.9257 37.564 26.4765 37.5775 26.9513 37.6535C27.417 37.6222 27.7663 37.3137 28.1156 37.0097C28.3037 37.0097 28.4739 37.1394 28.5993 37.2735C29.1367 37.8501 29.8309 38.096 30.6146 38.0781L30.6862 38.0379C30.7355 37.9887 30.7176 37.8993 30.6594 37.8591L30.1891 37.6222C29.8622 37.4121 29.4547 37.1394 29.3472 36.7728C29.2487 36.4465 29.0695 36.0888 28.8725 35.7714C28.8053 35.615 28.6441 35.4853 28.5769 35.3244L28.6486 35.2842C29.1636 35.463 29.4726 35.9681 29.7099 36.4241C30.0861 36.9516 30.6325 37.3986 31.3491 37.2735L31.4073 37.2243V37.1081L31.049 36.9293C30.4534 36.5806 30.216 35.9279 29.8488 35.4138C29.7189 35.226 29.495 35.1143 29.3741 34.9176C28.9441 33.7598 28.5769 32.5975 28.4694 31.2698C28.3799 30.9434 28.3127 30.6082 28.1291 30.2997C27.5917 29.428 26.8975 28.6367 26.2213 27.8321C26.1586 27.774 26.0645 27.7203 26.0332 27.6443L23.6775 25.6908C23.467 25.5298 23.2342 25.4136 22.9923 25.3018C24.9763 22.4006 28.3127 20.4917 32.0969 20.4917C35.8812 20.4917 39.4012 22.5034 41.3673 25.5388C39.9118 26.7547 38.2906 27.6488 36.9784 29.0793C36.0469 30.0404 35.7961 31.2608 35.4513 32.441C34.9542 34.2247 34.7437 36.1872 32.9478 37.2869C32.9165 37.3361 32.9165 37.4255 32.9792 37.4702C33.4539 37.5864 33.9241 37.3986 34.2421 37.0723C34.5511 36.5895 34.878 36.1201 35.2945 35.6731L35.3931 35.6239C35.4423 35.6328 35.5005 35.6641 35.4826 35.7312C35.3617 36.1291 35.0034 36.4152 34.887 36.813C34.7303 37.2869 34.2735 37.6535 33.8838 37.9887L33.8704 38.0513C33.8704 38.1005 33.9241 38.1497 33.9734 38.1586C34.8467 38.1988 35.4737 37.5774 36.0559 36.9874C36.1141 36.9248 36.1947 36.9382 36.2753 36.9605C36.5306 37.1572 36.7724 37.4568 37.1083 37.5238C37.4666 37.4746 37.8427 37.4255 38.2234 37.4568C38.7519 37.6177 39.2534 37.8323 39.7819 38.0111C40.0506 38.0021 40.2521 37.7473 40.3865 37.5238C40.494 37.269 40.3372 37.0097 40.3551 36.7638C40.485 36.6834 40.6328 36.7862 40.7716 36.746C40.8298 36.7057 40.8791 36.6387 40.8791 36.5672C40.7806 36.1112 40.3731 35.7714 40.2432 35.3512C40.0461 34.8058 39.3968 34.4795 39.2758 33.8894C39.3027 33.8492 39.3564 33.7911 39.4057 33.8313C39.8356 34.1353 40.2118 34.5421 40.7358 34.6225C41.1344 34.6628 41.5419 34.703 41.936 34.6717C41.9942 34.6538 42.0435 34.5823 42.0256 34.5153C41.8554 34.1576 41.6987 33.8 41.6001 33.4155C41.4613 32.9327 41.3628 32.2577 41.5195 31.7213C41.5464 31.681 41.6001 31.614 41.6583 31.6319C41.739 31.6542 41.7882 31.7392 41.8017 31.8107C41.8599 32.6511 41.9002 33.4245 42.4062 34.0906C42.6257 34.4393 43.0019 34.5063 43.2706 34.7745C43.3691 34.9131 43.3915 35.1411 43.3199 35.302L43.3154 35.2886ZM26.6736 35.9592C26.7542 35.9592 26.8617 35.9502 26.8841 36.0575C26.902 36.2453 26.902 36.4733 26.7452 36.594C26.5571 36.6566 26.3511 36.6744 26.1406 36.6655C26.0914 36.6476 26.0242 36.6163 26.0421 36.5582C26.1317 36.29 26.3914 36.0218 26.6781 35.9636L26.6736 35.9592ZM26.5079 32.5438C26.6736 32.374 26.6378 31.8822 27.0139 32.0387C27.2737 32.1773 27.323 32.4544 27.5111 32.6422C27.838 33.0087 28.0574 33.4111 27.9499 33.9207C27.9007 34.019 27.9096 34.171 27.7798 34.1979C27.7215 34.2202 27.6723 34.18 27.6723 34.1174C27.6499 33.8492 27.6499 33.572 27.4931 33.353C27.314 33.1652 27.1259 32.8344 26.8393 32.8344C26.6422 32.8925 26.49 33.125 26.3735 33.2814L26.3153 33.2904C26.2078 33.0132 26.4228 32.7763 26.5168 32.5394L26.5079 32.5438ZM37.901 33.0266C37.7129 33.0177 37.6054 33.1741 37.4531 33.2546C37.1979 33.4826 36.8485 33.7195 36.7903 34.0682C36.741 34.1979 36.7634 34.3767 36.6515 34.4482C36.5798 34.4661 36.5037 34.408 36.5037 34.3454C36.4589 33.8894 36.6112 33.4513 36.9515 33.1473C37.2785 32.8791 37.5069 32.5125 37.7756 32.2041C37.9234 32.1773 38.0353 32.2845 38.0935 32.3963C38.2771 32.6243 38.4025 32.8702 38.51 33.1384C38.5279 33.1965 38.51 33.2546 38.4921 33.3172C38.4518 33.3664 38.3936 33.4334 38.3219 33.3843C38.1249 33.3172 38.1562 33.0043 37.9054 33.0311L37.901 33.0266ZM38.2906 36.6476C38.1697 36.737 37.9637 36.6879 37.8114 36.6655C37.6323 36.5627 37.5919 36.357 37.574 36.1603C37.574 36.1112 37.583 36.062 37.6367 36.0218C37.8472 36.0218 38.0532 36.0709 38.1921 36.2408C38.2503 36.3705 38.3622 36.509 38.2906 36.6476ZM18.4243 36.6476L18.5139 36.585C18.8319 36.585 19.1498 36.5761 19.4678 36.5269C19.7858 36.5359 19.6962 36.9114 19.8261 37.0991C19.844 37.2288 20.0321 37.3673 19.9022 37.4791C19.6738 37.6535 19.4051 37.7741 19.1095 37.725C18.8811 37.5596 18.8901 37.2198 18.693 37.0052C18.6438 36.8354 18.3661 36.8354 18.4288 36.6476H18.4243ZM45.1112 36.7057C45.1918 36.6879 45.268 36.7191 45.2904 36.7951C45.25 37.0723 45.1605 37.3495 45.062 37.6087C44.9724 37.7876 44.7261 37.7294 44.5559 37.7071C44.3767 37.6356 44.0991 37.6177 44.0677 37.3673C44.0364 37.1349 44.1439 36.9114 44.2648 36.7326C44.5335 36.6923 44.838 36.7504 45.1067 36.7013L45.1112 36.7057ZM4.12476 37.7741C4.14715 37.6669 4.10684 37.5149 4.20537 37.4478C4.44272 37.3003 4.67112 37.1528 4.89056 36.9605C4.95774 36.9427 5.04731 36.9024 5.11001 36.9516C5.19958 37.0321 5.30706 37.1125 5.3384 37.2198C5.18166 37.5059 4.98014 37.8457 4.67112 38.0245C4.55469 38.0647 4.41137 38.0558 4.30389 38.0021C4.24567 37.944 4.12476 37.8725 4.12476 37.7741ZM59.9437 37.6266C59.9751 37.7563 59.8945 37.868 59.8273 37.953C59.7288 38.0334 59.6213 38.1005 59.478 38.1005C59.3391 38.0915 59.2093 38.0111 59.1331 37.8948C58.9809 37.6758 58.7838 37.4746 58.7166 37.2377C58.8152 37.0902 59.0257 36.8398 59.2227 37.0097C59.4601 37.2064 59.7601 37.3629 59.9437 37.6222V37.6266ZM4.06654 38.4313V38.5296C3.9277 38.8694 3.83813 39.2941 3.7217 39.6785L3.68139 39.7009C3.45299 39.6517 3.24699 39.5623 3.02755 39.4952C2.96485 39.4371 3.02754 39.3656 3.0365 39.3075C3.28729 39.0795 3.21564 38.78 3.2649 38.4626C3.30521 38.2838 3.47091 38.1362 3.63213 38.0602C3.82918 38.1005 3.9501 38.2838 4.06654 38.4358V38.4313ZM60.9693 39.5578L60.3334 39.7635C60.2259 39.7635 60.2617 39.6249 60.2259 39.5578C60.1542 39.1912 60.0736 38.9364 59.9572 38.5788C59.9303 38.3687 60.1363 38.2301 60.2751 38.1094C60.4453 38.0692 60.5662 38.2212 60.6916 38.3195C60.8439 38.5252 60.7812 38.847 60.8305 39.0706C60.8708 39.2404 61.0768 39.379 60.9693 39.5534V39.5578Z" fill="white"/>
</svg>
