<svg width="96" height="96" viewBox="0 0 96 96" fill="none" xmlns="http://www.w3.org/2000/svg">
<g clip-path="url(#clip0_3111_4021)">
<path d="M47.9354 66.0078C58.0046 66.0078 66.1673 57.9454 66.1673 47.9999C66.1673 38.0545 58.0046 29.9921 47.9354 29.9921C37.8662 29.9921 29.7035 38.0545 29.7035 47.9999C29.7035 57.9454 37.8662 66.0078 47.9354 66.0078Z" fill="#FFD800"/>
<path d="M95.763 60.0605C95.7411 60.01 95.7119 59.9451 95.6973 59.9091C95.6754 59.8154 95.6608 59.7 95.6462 59.5847V59.5703C95.6097 59.2891 95.5732 58.9936 95.4492 58.7052C95.2594 58.2654 94.8215 57.9338 94.3398 57.8401C94.3033 57.6455 94.2157 57.5013 94.1646 57.422C93.8654 56.9895 93.4056 56.6867 93.0625 56.4632C92.9676 56.3983 92.8655 56.3335 92.8217 56.2974L92.7268 56.2253C92.5005 56.0523 92.2378 55.9586 91.9458 55.9586C91.4714 55.9586 90.9678 56.2542 90.6613 56.6362C90.6102 56.4993 90.5226 56.1821 90.4715 56.0018C90.4058 55.7567 90.3401 55.5189 90.2745 55.3386V55.3098C90.2745 55.3098 90.2453 55.2665 90.238 55.2305C90.1139 54.8989 89.822 54.1203 88.9388 53.9761C88.698 53.9401 88.4644 53.9257 88.2528 53.9185C87.8221 53.9041 87.6616 53.832 87.6032 53.8031C87.6178 53.7671 87.6324 53.7094 87.6762 53.6157C87.7565 53.4283 87.8075 53.2625 87.8586 53.0894C88.0411 52.4911 88.1652 51.6116 88.0192 50.8475C88.2236 50.8763 88.4571 50.8979 88.6834 50.8979C89.4059 50.8979 90.165 50.7465 90.8219 50.4654L90.8584 50.451C92.1502 49.831 93.4275 48.4109 93.3618 46.6303V46.5798C93.2085 45.0443 92.34 43.5881 90.7197 42.1535C91.143 42.0454 91.5955 41.9012 92.0042 41.6201C93.1793 40.8415 93.6902 39.443 93.3983 37.7849L93.3764 37.6768C93.1866 36.8261 92.5589 36.7612 92.3692 36.7612C92.121 36.7612 91.8729 36.855 91.6831 37.0352C91.6466 37.0712 91.6028 37.1073 91.559 37.1505C91.4641 37.2442 91.3474 37.3452 91.2598 37.4028C91.0043 37.547 90.6394 37.6263 90.2526 37.7056C89.9606 37.7633 89.6322 37.8354 89.3038 37.9435C87.844 38.4409 86.9244 39.2195 86.5668 40.2504C86.3478 40.8775 86.4427 41.6417 86.8295 42.3337L86.8587 42.3842C87.3039 43.0835 87.9316 43.6746 88.4863 44.2008C89.2746 44.9434 90.0117 45.6498 90.165 46.4933C90.1942 46.6447 90.238 46.933 89.7198 47.3151C89.5154 47.4304 89.2308 47.4881 88.9096 47.4881C88.4498 47.4881 87.9243 47.3584 87.5156 47.1421L87.4937 47.1277C86.8514 46.8105 86.2092 46.3851 85.5742 45.967C84.5597 45.2966 83.516 44.6045 82.2971 44.2153C81.7351 43.9702 81.1366 43.8548 80.6111 43.7467C79.9397 43.6097 79.312 43.4872 78.8668 43.1411L78.8011 43.0979C78.604 42.9753 78.407 42.8312 78.2172 42.6942C77.6333 42.2761 76.9692 41.8003 76.1663 41.5912C75.8598 41.4903 75.5605 41.447 75.327 41.4182C75.0204 41.3749 74.8453 41.3461 74.7212 41.2596C74.5898 41.1659 74.4584 41.0722 74.3271 40.9785L74.3052 40.964C73.7578 40.5676 73.1885 40.1566 72.59 39.8611C71.5755 39.3637 70.5391 39.1113 69.3932 38.8662C69.3348 38.8518 69.1816 38.6644 69.0721 38.5418C68.9042 38.34 68.6926 38.0805 68.4006 37.8786C67.5467 37.2154 66.576 36.6026 65.2695 36.6026C65.1527 36.6026 65.036 36.6026 64.9338 36.6171C64.1455 36.6675 63.4814 37.1721 63.0508 37.547C62.0946 38.376 61.0509 39.1186 60.0437 39.8394C58.4818 40.9568 56.8689 42.1103 55.4602 43.6241C53.9859 45.1308 53.4458 47.0123 52.9714 48.6704C52.9057 48.9083 52.8327 49.1462 52.7598 49.3985C52.6284 49.8526 52.5116 50.3212 52.4021 50.7754C51.8255 53.075 51.2781 55.2449 49.1032 56.6434C48.7528 56.8669 48.5631 57.2562 48.6069 57.6599C48.6507 58.0636 48.928 58.4168 49.3148 58.561C49.49 58.6259 49.7892 58.6908 50.1469 58.6908C50.1615 58.9287 50.249 59.1449 50.4096 59.3252C50.5629 59.4982 50.8475 59.7144 51.3511 59.7361H51.3876C52.8838 59.7361 53.9494 58.8854 54.869 58.0059C55.1975 58.2871 55.6062 58.5898 56.1536 58.698L56.2996 58.7268L56.4601 58.7052C57.0075 58.6331 57.4819 58.5682 57.9636 58.5898C58.4016 58.7268 58.8541 58.8926 59.2993 59.0584C59.6423 59.1882 59.9927 59.3179 60.3576 59.4405L60.5327 59.4982H60.686C61.664 59.4549 62.2187 58.6043 62.4231 58.2799L62.4596 58.215L62.4888 58.1501C62.5253 58.0708 62.5472 57.9987 62.569 57.9194C62.569 57.9194 62.569 57.9194 62.569 57.9266L62.6274 58.1285C62.7588 58.5754 62.8902 59.044 63.1821 59.39C63.4595 59.7072 63.839 59.8802 64.2696 59.8802C64.4302 59.8802 64.5762 59.8586 64.6856 59.8442C64.7075 59.8442 64.7221 59.8442 64.7367 59.8442C64.7513 59.8586 64.7659 59.8802 64.7805 59.8947C64.9484 60.0749 65.2111 60.3488 65.6345 60.4786C66.0359 60.6083 66.4373 60.7165 66.8314 60.8174C67.3131 60.94 67.8021 61.0697 68.2546 61.2427L68.3057 61.2571C68.6561 61.3725 69.0429 61.4806 69.4516 61.4734C70.0866 61.4734 70.4807 61.2283 70.8092 60.9616C71.3493 60.5291 71.5609 60.0605 71.685 59.6063C71.7653 59.5919 71.8601 59.5703 71.9769 59.5342C72.6411 59.3179 73.298 58.1069 73.298 58.0924C73.3418 58.0059 73.4001 57.9194 73.4439 57.8545C73.6118 57.6094 73.6921 57.3499 73.6848 57.0832C73.6775 56.4488 73.1739 55.9514 72.5316 55.937H72.4294C72.3783 55.937 71.123 55.9298 70.7654 55.937H70.7362C70.5756 55.9442 70.4369 55.973 70.3055 56.0163C70.2982 56.0091 70.291 55.9946 70.2837 55.9874C70.1888 55.8721 70.0866 55.6054 69.9479 55.5405C69.9552 55.5333 69.9844 55.5261 69.999 55.5188L70.3493 55.5549C70.5756 55.5765 70.8018 55.5909 71.0281 55.5909C71.8237 55.5909 72.5535 55.4612 73.2542 55.3386C73.8746 55.2305 74.4949 55.2882 75.1153 55.2882C75.181 55.2882 75.2394 55.2882 75.3051 55.2882H75.3416C75.6116 55.2882 75.8817 55.3098 76.1736 55.3386C76.4656 55.3675 76.794 55.3963 77.137 55.3963C77.2611 55.3963 77.3779 55.3963 77.4873 55.3819C77.8158 55.3675 78.1223 55.3098 78.407 55.2233C78.4362 55.3747 78.4727 55.5693 78.5165 55.8L78.5602 55.9946C78.7208 56.6867 78.969 57.732 80.2243 58.5394L80.4141 58.6619C80.998 59.0368 81.3483 59.2675 82.2241 59.3972C82.4504 59.4333 82.8664 59.4189 83.1292 59.3612C84.2312 59.1233 85.4574 59.4117 86.4427 60.1181L86.5303 60.1758C86.6106 60.2191 86.7201 60.3128 86.8295 60.4065C87.0558 60.5939 87.3404 60.8318 87.7127 60.9688C87.9608 61.0625 88.2236 61.113 88.5082 61.1202H88.5301C89.0702 61.1202 89.3621 60.9544 89.5811 60.839C89.6176 60.8823 89.6541 60.94 89.6833 60.9832C89.8366 61.1995 90.0263 61.4662 90.311 61.7185C90.8438 62.2231 91.5079 62.2808 91.9604 62.2808C92.1721 62.2808 92.3765 62.2664 92.5589 62.252C92.6246 62.252 92.6976 62.2448 92.7633 62.2376C92.8874 62.2376 93.0041 62.2231 93.0844 62.2159C93.2158 62.2015 93.3034 62.1799 93.3472 62.1727C93.5807 62.3385 93.8289 62.3673 93.9384 62.3673C94.0332 62.3673 94.1281 62.3529 94.2157 62.3241L95.2594 61.9852C95.5586 61.8915 95.7922 61.6825 95.9163 61.4157C96.1425 60.9183 95.9163 60.4425 95.7557 60.1037L95.763 60.0605ZM62.8683 54.9493C62.8391 54.9061 62.8172 54.87 62.788 54.834C62.7588 54.7835 62.7223 54.7403 62.6785 54.6754C62.5253 54.4447 62.3866 54.2501 62.3209 54.0699C62.6347 54.0987 62.9632 54.1347 63.3135 54.1492L62.8683 54.9493Z" fill="#FFD800"/>
<path d="M47.3588 56.3046L46.8114 56.0379C46.337 55.7567 46.0232 55.2305 45.6874 54.6754C45.5269 54.4159 45.3663 54.1419 45.1911 53.8968C45.0233 53.6517 44.7824 53.4355 44.5853 53.2697C44.5489 53.2408 44.5051 53.1976 44.4686 53.1687C43.8774 51.5756 43.257 49.7157 43.1037 47.69C43.0672 47.1853 42.768 46.3203 42.4396 45.7652L42.425 45.7436C41.4907 44.2369 39.3158 41.7426 39.1917 41.6128C39.1114 41.5263 39.0238 41.4398 38.9435 41.3677L38.8852 41.3101L35.0169 38.1309L34.9585 38.0877C34.1411 37.5254 33.8491 37.3956 33.2142 37.1649C32.2215 36.8117 30.8348 36.855 29.8422 37.2803L29.7765 37.3091C29.4408 37.4821 29.1269 37.684 28.8277 37.8714C28.3679 38.1598 27.93 38.4409 27.4848 38.5851L27.4045 38.6139C27.025 38.7797 26.5943 38.9167 26.171 39.0393C25.2587 39.3204 24.2223 39.6376 23.3611 40.409C23.1494 40.5964 22.9815 40.7622 22.8356 40.892C22.6312 41.0866 22.4342 41.2668 22.3539 41.3245C22.332 41.3245 22.2809 41.3245 22.186 41.3245C20.7409 41.3245 19.6607 41.6921 18.5878 42.5644L18.5513 42.5933C17.8944 43.1844 17.2522 43.7251 16.5734 43.963C16.296 44.0567 15.9384 44.0999 15.5516 44.136H15.5151C14.8655 44.1936 14.7268 44.2081 14.0992 44.3594C12.9971 44.6118 11.9315 45.4264 11.0776 46.0896C10.698 46.3779 10.4499 46.5654 10.3477 46.6303C10.2747 46.6807 10.1798 46.7384 10.1068 46.7816C9.16533 47.3223 8.35519 47.7981 7.37718 47.7981H7.32609C6.79329 47.7476 6.28969 47.38 6.11452 46.9114C5.95395 46.2986 6.14372 45.6859 6.64732 45.1813C6.97575 44.8569 7.36258 44.5325 7.73481 44.2225C8.39898 43.6674 9.02666 43.1411 9.49376 42.514C10.2236 41.5408 10.1506 40.0197 9.3259 39.1258C8.69092 38.4409 7.59613 38.1021 6.713 37.893L6.64002 37.8714C6.59623 37.8642 6.53784 37.8498 6.47945 37.8426H6.42836C6.32618 37.8137 6.2313 37.7993 6.13642 37.7777C5.96855 37.7489 5.80798 37.72 5.65471 37.684C5.35547 37.5975 5.04163 37.3884 4.71319 37.1649C4.47964 37.0063 4.23879 36.8405 3.96874 36.6964L3.25348 36.3143L2.80826 36.9919C2.47253 37.5038 2.32656 38.0805 2.37765 38.7437V38.7942C2.53822 39.998 3.50163 41.2524 4.6767 41.7786L4.70589 41.7931C4.74969 41.8075 4.78618 41.8291 4.82997 41.8435C5.10002 41.9517 5.37007 42.0021 5.61822 42.0238C4.98324 42.55 4.34826 43.1123 3.79357 43.7827C2.71338 44.9578 2.6477 46.8754 3.144 48.1513C3.77898 49.831 5.48684 50.7682 6.91007 50.9484C7.15822 50.9844 7.40637 51.0061 7.66912 51.0061C8.11433 51.0061 8.53765 50.9484 8.94637 50.8691V50.8835C8.97556 51.5179 8.99746 51.9144 9.04125 52.1595C9.14343 52.6857 9.38428 53.2697 9.54485 53.659C9.54485 53.6734 9.55215 53.6878 9.55945 53.695C9.24561 53.8896 8.7785 54.0771 8.59604 54.1275C8.34789 54.1564 8.07054 54.1708 7.87348 54.1852C7.73481 54.1852 7.62533 54.1996 7.56694 54.2068C7.2677 54.2429 6.99765 54.3654 6.78599 54.5745C6.50864 54.8412 6.34808 55.2521 6.12182 55.8288C6.03424 56.0595 5.93936 56.2974 5.84447 56.4921C5.77149 56.6074 5.66201 56.7083 5.54523 56.802C5.39196 56.5281 5.13651 56.3263 4.97594 56.1965L4.94675 56.1749C4.54533 55.8577 3.93225 55.8505 3.48703 56.146C3.42134 56.1893 3.35566 56.2325 3.28997 56.2758L3.23888 56.3118C2.96153 56.4921 2.6404 56.7011 2.30466 56.9823C2.0857 57.1625 1.92514 57.4436 1.85215 57.7464C1.77187 57.7608 1.69158 57.7752 1.61859 57.8041C1.0931 58.0203 0.494613 58.6259 0.450822 59.2387C0.436225 59.4621 0.40703 59.8658 0.370537 59.9812C0.363239 59.9884 0.348642 60.01 0.319447 60.0461C-0.0381831 60.4425 -0.140363 61.1418 0.319447 61.596C0.625988 61.8987 1.82296 62.2159 2.05651 62.2159H2.1149L2.26087 62.1943L2.32656 62.1727C2.39954 62.1511 2.47253 62.1222 2.53092 62.0934L2.80826 62.115C2.95424 62.1294 3.1221 62.1655 3.32646 62.2087C3.6403 62.2736 3.99793 62.3529 4.37746 62.3529C4.78618 62.3529 5.15841 62.2664 5.49414 62.0862C6.09992 61.7978 6.39187 61.2932 6.61812 60.9183C6.68381 60.8102 6.7422 60.7021 6.80789 60.6156C6.84438 60.6228 6.87357 60.63 6.90277 60.6444C7.06334 60.6876 7.2677 60.7381 7.49395 60.7525C8.46466 60.803 9.3113 60.2623 9.73462 59.9379C9.90248 59.8082 10.0558 59.664 10.2017 59.5342C10.3623 59.39 10.5229 59.2387 10.6688 59.1377C10.8148 59.0801 11.0192 59.0512 11.2673 59.0512C11.6906 59.0512 12.1723 59.1377 12.5592 59.2098C13.4131 59.4189 14.3181 59.3252 15.0115 58.9359C15.3837 58.7268 15.7559 58.5394 16.0552 58.3808L16.1063 58.352C16.2668 58.2654 16.4128 58.1934 16.5296 58.1285C17.2303 57.7536 17.7558 56.9246 18.0696 56.3046C18.2229 55.9946 18.4637 55.4251 18.5294 55.2665C18.5951 55.2665 18.6608 55.2665 18.7265 55.2665C19.1863 55.2665 19.6607 55.1944 20.0767 55.1296C20.3687 55.0863 20.6387 55.0431 20.8504 55.0286H20.8869C20.9671 55.0214 21.0547 55.0142 21.135 55.0142C21.5583 55.0142 22.1641 55.0647 22.6239 55.1152C23.0107 55.1584 23.2662 55.1945 23.7698 55.2161C23.8355 55.2161 23.9085 55.2233 23.9888 55.2305C24.1493 55.2449 24.3318 55.2593 24.5288 55.2593C25.0397 55.2593 25.4631 55.1368 25.8061 54.971C25.901 55.0647 26.0615 55.2882 26.171 55.3819C26.1564 55.3819 26.1418 55.3819 26.1199 55.3819C25.7915 55.3819 25.485 55.5116 25.2806 55.7351C24.996 55.5981 24.5215 55.5982 24.0909 55.6342C23.58 55.6774 23.1202 55.7495 22.6093 55.8577C22.2298 55.937 21.9451 56.1244 21.7919 56.4632C21.6313 56.8165 21.6532 57.2202 21.8503 57.5734C22.113 58.042 22.3685 58.4601 22.6385 58.907L22.7553 59.1017C22.8794 59.3035 23.1859 59.6496 23.8282 59.6496C23.9085 59.6496 23.996 59.6496 24.0909 59.6351C24.0982 59.6351 24.1055 59.6351 24.1201 59.6351C24.1347 59.664 24.1566 59.6928 24.1712 59.7217C24.3683 60.0677 24.6018 60.493 25.0397 60.8318C25.4704 61.1995 26.0688 61.4085 26.6892 61.4085C26.9593 61.4085 27.2293 61.3653 27.4775 61.2932C28.6452 60.9327 29.7838 60.5579 30.8932 59.9956H31.1268C31.1997 59.9884 31.2727 59.9812 31.3457 59.9812C31.7909 59.9523 32.4624 59.9019 32.9806 59.3612L33.0317 59.3107L33.0682 59.2531C33.2725 58.9647 33.455 58.6691 33.6302 58.3736C33.6375 58.4096 33.6448 58.4457 33.6594 58.4817V58.5033C33.9294 59.2603 34.7177 59.6063 35.3891 59.6063H35.4256C36.1847 59.5703 36.8416 59.3396 37.4181 59.1305L37.4546 59.1161C37.5349 59.0873 37.6152 59.0584 37.7028 59.0296L37.7612 59.008C38.1991 58.8205 38.8414 58.7917 39.615 58.9143L39.7172 58.9287H39.8194C40.6368 58.871 41.2645 58.4817 41.7827 58.0636C42.768 59.0873 44.0161 59.6063 45.4977 59.6063C45.5488 59.6063 45.6071 59.6063 45.6655 59.6063L45.9064 59.5919L45.9721 59.5775C46.4538 59.4621 46.7822 59.1017 46.826 58.6259C46.8333 58.5322 46.826 58.4385 46.8187 58.352C46.9063 58.3447 46.9939 58.3303 47.0815 58.3087C47.5413 58.2078 47.877 57.8618 47.95 57.4148C48.023 56.939 47.8113 56.5137 47.3807 56.3046H47.3588ZM34.579 53.8824C34.5352 53.9185 34.4914 53.9617 34.4476 53.9978C34.2068 54.214 33.8929 54.4952 33.6521 54.8484C33.4769 54.5601 33.3601 54.351 33.2652 54.1564C33.6594 54.0987 34.0608 53.9834 34.3819 53.8392C34.4476 53.8392 34.5206 53.8392 34.5863 53.832C34.5863 53.8464 34.579 53.8608 34.5717 53.8752L34.579 53.8824Z" fill="#FFD800"/>
<path d="M1.97623 58.5971C1.97623 58.5971 1.93973 58.5971 1.92514 58.6043C1.64779 58.7196 1.31935 59.0801 1.30476 59.2963C1.23177 60.2335 1.20987 60.3344 0.947125 60.6228C0.87414 60.7021 0.82305 60.8895 0.910633 60.9688C0.983618 61.0409 1.91784 61.3364 2.02002 61.3364H2.04191C2.1295 61.3076 2.19518 61.0986 2.38495 60.4498C2.48713 60.1037 2.6039 59.7072 2.72798 59.3468C2.73528 59.3252 2.73528 59.2891 2.65499 59.1666C2.54551 59.0152 2.18059 58.5971 1.98352 58.5971H1.97623ZM3.01262 58.5826C3.08561 58.6403 3.19509 58.7196 3.36296 58.7196C3.45784 58.7196 3.55272 58.6908 3.6549 58.6403C4.1804 58.3808 4.72779 57.4076 4.74969 57.3499C4.80807 57.1913 4.62561 57.0471 4.39206 56.8669L4.36286 56.8453C4.26068 56.766 4.07822 56.7732 3.95414 56.8597C3.86656 56.9174 3.78627 56.975 3.69869 57.0327C3.42134 57.2129 3.144 57.3932 2.84476 57.6455C2.73528 57.732 2.67689 57.905 2.66959 58.0348C2.66229 58.1357 2.67689 58.2222 2.72068 58.2727C2.74258 58.3015 2.96153 58.5394 3.01262 58.5754V58.5826ZM46.9574 57.0904C46.6946 56.9606 46.3808 56.8092 46.3808 56.8092C45.6947 56.4128 45.3006 55.764 44.9211 55.1296C44.7751 54.8845 44.6145 54.6249 44.4467 54.3943C44.3372 54.2357 44.1474 54.0699 43.9869 53.9257C43.8409 53.7959 43.7095 53.6806 43.6803 53.6085C43.0599 51.9288 42.3739 49.9464 42.2133 47.7476C42.1914 47.4088 41.9506 46.6735 41.6659 46.1977C40.7828 44.7704 38.6589 42.3265 38.5421 42.204C38.4691 42.1247 38.3888 42.0454 38.3159 41.9805L38.2575 41.9228L34.4403 38.7942C33.6813 38.2679 33.4477 38.1742 32.9003 37.9795C32.55 37.857 32.134 37.7849 31.7033 37.7849C31.1632 37.7849 30.6232 37.8858 30.1779 38.0733C29.8714 38.2319 29.5795 38.4193 29.2948 38.5995C28.8058 38.9095 28.3022 39.2267 27.7548 39.4069C27.3315 39.5943 26.8717 39.7385 26.4265 39.8755C25.5579 40.1422 24.6675 40.4162 23.9596 41.0578C23.7552 41.2452 23.5873 41.4038 23.4414 41.5335C22.7845 42.1463 22.7188 42.204 22.1787 42.204C20.9379 42.204 20.0548 42.5067 19.1425 43.2421C18.4199 43.8909 17.6974 44.5036 16.858 44.792C16.4858 44.9217 16.0698 44.965 15.6246 45.0082C14.9896 45.0659 14.8947 45.0659 14.2889 45.2101C13.3839 45.4192 12.4278 46.1473 11.6104 46.7744C11.3476 46.9763 10.99 47.2502 10.8221 47.3584C10.7345 47.416 10.6323 47.4809 10.5448 47.5314C9.53755 48.1153 8.58144 48.6632 7.36258 48.6632C7.33338 48.6632 7.30419 48.6632 7.27499 48.6632C6.36267 48.5983 5.53793 47.9783 5.26059 47.1565C5.00514 46.2338 5.28248 45.2822 6.01964 44.5541C6.36997 44.2081 6.77139 43.8692 7.15822 43.5448C7.7859 43.0186 8.36978 42.5284 8.7785 41.9805C9.25291 41.3533 9.20182 40.2864 8.66902 39.7097C8.13623 39.133 6.94656 38.8446 6.49405 38.7365L6.41376 38.7149C6.36997 38.7004 6.28969 38.6932 6.2459 38.686C5.96125 38.6284 5.6912 38.5923 5.41386 38.5274C4.70589 38.3328 4.1585 37.7921 3.53082 37.4605C3.28997 37.8282 3.20969 38.2247 3.23888 38.6716C3.35566 39.6088 4.1439 40.5748 5.01973 40.9712C5.05623 40.9857 5.09272 41.0001 5.12921 41.0145C5.40656 41.1298 5.6985 41.1515 5.96855 41.1515C6.02694 41.1515 6.08533 41.1515 6.14371 41.1515C6.2021 41.1515 6.26049 41.1515 6.31888 41.1515C6.48675 41.1515 6.69111 41.1515 6.87357 41.1947C7.04144 41.238 7.21661 41.4038 7.2458 41.6128C7.2604 41.7354 7.20201 41.8363 7.04144 41.9589C6.89547 42.0814 6.7422 42.204 6.59623 42.3265C5.84447 42.9393 5.06353 43.5737 4.42855 44.345C3.58191 45.2461 3.54542 46.8177 3.93954 47.8414C4.44315 49.1822 5.83717 49.9319 6.99765 50.0761C7.20201 50.105 7.41367 50.1266 7.62533 50.1266C8.30409 50.1266 8.96097 49.968 9.58865 49.8094C9.61054 49.8094 9.63244 49.8022 9.64703 49.8022C9.67623 49.8022 9.72732 49.8022 9.74192 49.9464C9.76381 50.2203 9.77841 50.5375 9.78571 50.8403C9.8076 51.3377 9.8295 51.799 9.86599 52.0009C9.95358 52.4406 10.1725 52.9741 10.3185 53.3273C10.3842 53.4787 10.428 53.5941 10.4499 53.6517C10.5083 53.8536 10.4499 54.0699 10.3185 54.1924C9.8441 54.6249 8.87338 54.971 8.69092 54.9926C8.40627 55.0286 8.09973 55.0431 7.87348 55.0575C7.7567 55.0575 7.66912 55.0647 7.62533 55.0719C7.51585 55.0863 7.42827 55.1224 7.35528 55.1944C7.21661 55.3242 7.07063 55.7063 6.89547 56.1388C6.79329 56.4055 6.68381 56.6723 6.57433 56.903C6.26779 57.4004 5.75689 57.6959 5.26789 57.9771C5.14381 58.0492 5.01973 58.1213 4.90296 58.1934L4.88836 58.2078C4.684 58.525 4.47964 58.8277 4.21689 59.0584C4.01253 59.2459 3.74978 59.2891 3.50163 59.3179H3.48703L3.47243 59.3324C3.08561 59.7721 2.96153 60.3488 2.84476 60.9111C2.82286 60.9976 2.80826 61.0841 2.78637 61.1706L2.77177 61.2499H2.82286C3.02722 61.2716 3.23158 61.3148 3.44324 61.3653C3.72789 61.423 4.01983 61.4878 4.30447 61.4878C4.57452 61.4878 4.80807 61.4302 5.01973 61.3148C5.39196 61.149 5.58902 60.8102 5.77879 60.493C5.90286 60.2839 6.03424 60.0605 6.2094 59.8875C6.31158 59.7721 6.43566 59.7216 6.60353 59.7216C6.7495 59.7216 6.90277 59.7649 7.05604 59.8009C7.19471 59.837 7.34068 59.873 7.47936 59.8802C8.15812 59.9163 8.8004 59.4982 9.12154 59.2531C9.26021 59.1449 9.39888 59.0152 9.53026 58.8926C9.73462 58.7052 9.94628 58.5033 10.1725 58.3664C10.4499 58.2366 10.7856 58.1717 11.1943 58.1717C11.7052 58.1717 12.2453 58.2727 12.6832 58.352C12.9168 58.4096 13.1504 58.4457 13.3912 58.4457C13.8072 58.4457 14.1868 58.352 14.5079 58.1789C14.8874 57.9699 15.2669 57.768 15.5735 57.6094C15.7559 57.5157 15.9092 57.4364 16.0333 57.3643C16.5807 57.0688 17.0405 56.2542 17.2084 55.9153C17.3689 55.5981 17.6463 54.9205 17.6463 54.9133L17.6609 54.8845L17.0259 54.4087L16.9967 54.4519C16.9967 54.4519 16.5807 55.1368 16.3106 55.4468C15.194 56.9534 13.3693 57.1409 11.9096 57.1409C11.8074 57.1409 11.7052 57.1409 11.6104 57.1409C9.8003 57.1409 8.34059 57.7392 7.27499 58.9287C7.22391 58.9863 7.13632 58.9935 7.09983 58.9431C7.07793 58.9142 7.07063 58.871 7.08523 58.8133C7.11443 58.6908 7.12902 58.6547 7.20201 58.5178C8.33329 56.9318 10.2674 56.6939 11.8293 56.6651C12.9825 56.5858 13.8218 56.3911 14.5517 56.0235C15.4859 55.5549 16.1793 54.5168 16.4493 53.6878C16.6245 53.1471 16.7121 52.5704 16.7996 52.0153C16.8653 51.5756 16.9383 51.1142 17.0478 50.6961C17.0697 50.6384 17.1281 50.6024 17.1792 50.6024C17.1938 50.6024 17.2011 50.6024 17.223 50.6096C17.2813 50.6168 17.3908 50.66 17.3981 50.7465C17.2376 51.6188 17.0259 52.8155 17.4273 53.8175C17.6171 54.214 18.0185 54.4087 18.6535 54.4015C19.0403 54.4015 19.4636 54.3366 19.865 54.2717C20.1789 54.2212 20.4781 54.178 20.7336 54.1636C20.8431 54.1564 20.9525 54.1492 21.062 54.1492C21.5729 54.1492 22.0619 54.2501 22.5363 54.3438C22.9523 54.4231 23.3757 54.5096 23.8136 54.5312C23.8939 54.5312 23.9741 54.5384 24.0617 54.5456C24.215 54.5601 24.3683 54.5673 24.5288 54.5673C24.9011 54.5673 25.1638 54.4952 25.3536 54.3438C25.485 54.2357 25.4412 54.0771 25.3828 53.868V53.832C25.3828 53.832 25.3463 53.7599 25.339 53.7166C25.2514 53.4427 25.1273 53.039 25.339 52.8515C25.3682 52.8299 25.412 52.8155 25.4558 52.8155C25.4923 52.8155 25.536 52.8299 25.5579 52.8804C25.5798 52.9597 25.6017 53.039 25.6309 53.1183C25.7258 53.4427 25.8207 53.7815 26.0323 54.0699C26.4776 54.6322 27.1636 55.1656 28.0176 55.6054C28.565 55.9802 29.2291 56.6146 29.2875 57.4869C29.2875 57.8834 28.8934 58.1645 28.6087 58.3375C28.1489 58.561 27.4264 58.835 26.9958 58.8133C26.7038 58.7989 26.463 58.6187 26.4411 58.5971C25.9959 58.1934 26.0469 58.0492 25.755 57.5734C25.6017 57.3211 25.4412 57.0543 25.2368 56.8165C24.9595 56.5137 24.6091 56.3983 24.1347 56.4344C23.6822 56.4704 23.2589 56.5569 22.7626 56.6579C22.6604 56.6795 22.5801 56.7372 22.5363 56.8309C22.4925 56.9318 22.4998 57.0471 22.5655 57.1553C22.821 57.6094 23.0764 58.0276 23.3392 58.4673L23.4559 58.6619C23.5216 58.7701 23.653 58.7845 23.7698 58.7845C23.8282 58.7845 23.8939 58.7845 23.9669 58.7773C24.0398 58.7773 24.1201 58.7701 24.1931 58.7701C24.4267 58.7701 24.5726 58.8205 24.6675 58.9431C24.7478 59.0656 24.8208 59.1954 24.8865 59.3179C25.0616 59.6279 25.2368 59.9451 25.5433 60.1758C25.8207 60.4137 26.2148 60.5507 26.6235 60.5507C26.806 60.5507 26.9812 60.5218 27.149 60.4714C28.346 60.1037 29.5065 59.7216 30.6159 59.1377H30.9808C31.0611 59.1305 31.1414 59.1233 31.2216 59.1161C31.6012 59.0873 32.0026 59.0584 32.2799 58.7701C32.6376 58.2582 32.9368 57.7464 33.2069 57.2057C33.4477 56.7227 33.4477 56.247 33.2069 55.8721C32.4989 54.7547 32.3748 54.4663 32.0902 53.7022V53.6806H32.061C31.9807 53.6589 31.8931 53.6229 31.8128 53.5941C31.6377 53.5292 31.4625 53.4571 31.2508 53.4571H31.2216C30.9808 53.4643 30.8129 53.5364 30.7472 53.6734V53.695L32.0172 56.1893C32.0975 56.3839 32.1923 56.5786 32.1413 56.8741C32.0902 57.1625 31.4625 58.1429 31.2727 58.2654C31.2289 58.2943 31.1924 58.3087 31.1632 58.3087C31.1487 58.3087 31.083 58.2943 31.1268 58.1501C31.2435 57.7464 31.3968 56.7948 31.353 56.4848C31.3092 56.1316 30.2363 54.3798 30.1925 54.3005L30.1706 54.2717C30.0028 54.005 29.8349 53.731 29.8495 53.4066C29.8495 53.2552 29.9882 53.1543 30.0904 53.1183C30.2801 53.0462 30.4553 53.0246 30.6451 52.9813C31.0976 52.8804 31.572 52.7795 31.7398 52.5271C32.2507 51.7558 32.5573 50.9556 32.7616 49.8454C32.7689 49.795 32.8054 49.7013 32.8784 49.7013C32.9222 49.7013 32.9587 49.7157 32.9806 49.8094C33.1704 50.8619 32.9149 51.9649 32.2799 52.8443C32.2434 52.8948 32.2142 52.9957 32.2361 53.0822C32.2507 53.1687 32.3529 53.2408 32.3529 53.2408C32.6011 53.4066 33.4988 53.3129 34.1484 52.9741C34.6447 52.9813 35.1118 52.8948 35.5643 52.8155C35.7103 52.7867 35.8489 52.765 35.9949 52.7362C36.0387 52.765 36.0752 52.8011 36.0825 52.8299C35.703 53.2552 35.4694 53.731 35.3453 54.3294C35.2432 54.4375 35.1191 54.5456 35.0096 54.6466C34.5936 55.0214 34.1411 55.4468 34.1192 55.9874C34.1192 55.9874 34.1046 56.1821 34.3162 56.1965C34.3819 56.1965 34.4549 56.1677 34.5279 56.1388C34.6082 56.11 34.6885 56.0739 34.7469 56.0811C34.8125 56.0956 34.8636 56.146 34.8709 56.2109L34.3965 56.903C34.2141 57.1913 34.2943 57.4941 34.3673 57.7897C34.4184 57.9555 34.3965 58.078 34.4403 58.2222C34.5571 58.5682 34.9804 58.7268 35.3234 58.7268C35.9438 58.698 36.5058 58.4961 37.0532 58.3015C37.1481 58.2654 37.2503 58.2294 37.3451 58.2006C37.9436 57.9483 38.7465 57.8906 39.6953 58.0492C40.4616 57.9987 41.0382 57.5013 41.5929 57.0183C41.8265 57.0183 42.0746 57.1625 42.3301 57.4292C43.1548 58.3087 44.1693 58.734 45.432 58.734C45.4758 58.734 45.5269 58.734 45.5779 58.734H45.7093C45.8407 58.6908 45.8772 58.6331 45.8845 58.5466C45.8918 58.4457 45.8188 58.352 45.6728 58.2871L44.9649 57.9194C44.4029 57.5662 43.7898 57.1409 43.6146 56.5786C43.4322 55.9802 43.0891 55.3675 42.841 54.9638C42.7899 54.8845 42.7388 54.8052 42.6804 54.7259C42.5782 54.5817 42.4761 54.4375 42.4031 54.2861C43.1694 54.5529 43.6 55.1152 44.1182 56.0523C44.5051 56.7444 45.505 57.5013 46.4611 57.5013C46.5852 57.5013 46.7092 57.4869 46.826 57.4653C46.9282 57.4436 46.9939 57.3787 47.0085 57.2922C47.0231 57.2129 47.0085 57.1409 46.9209 57.0976L46.9574 57.0904ZM33.2433 45.8661C33.2215 45.9382 33.1777 45.9887 33.1266 45.9887C33.1047 45.9887 33.0536 45.9815 33.0317 45.8805C32.8346 44.8713 32.7105 44.3811 32.477 43.9125C32.404 43.7611 32.3091 43.6386 32.2288 43.5304C32.061 43.2997 31.9077 43.0979 32.0756 42.8312C32.1267 42.7519 32.2434 42.7014 32.3821 42.7014C32.4478 42.7014 32.5062 42.7158 32.5646 42.7374C32.7616 42.8312 32.9514 43.0618 33.1485 43.4583C33.6375 44.4532 33.2506 45.8517 33.2506 45.8661H33.2433ZM39.6515 55.9009C39.6515 55.9009 39.6223 56.1893 39.4836 56.3046C39.345 56.4272 38.8633 56.4921 38.6078 56.4848C38.3524 56.4776 38.2648 56.4416 38.2137 56.3623C38.1553 56.2758 38.2502 56.1028 38.2502 56.1028C38.2794 56.0379 38.5786 55.4251 39.1844 55.2665C39.1844 55.2665 39.3815 55.1944 39.5639 55.2882C39.7464 55.3747 39.6588 55.836 39.6515 55.9009ZM41.3959 51.9432C41.3594 52.1739 41.301 52.2893 41.2718 52.3469C41.2426 52.4046 41.1842 52.5271 41.009 52.5271C40.8193 52.5271 40.8339 52.3037 40.8266 52.2748C40.8266 52.2748 40.8047 51.6549 40.6806 51.3953C40.5492 51.1142 39.9215 50.314 39.5566 50.3428C39.4617 50.3501 39.2282 50.4942 39.053 50.7177C38.8414 50.9916 38.8414 51.0277 38.7757 51.0637C38.71 51.107 38.6224 51.0854 38.5932 50.9196C38.564 50.761 38.5348 50.624 38.6078 50.314C38.6808 50.004 38.7611 49.9391 38.856 49.7157C38.856 49.7157 39.0457 49.2831 39.1187 49.175C39.3158 48.8794 39.5785 48.9011 39.5785 48.9011C39.6515 48.9011 39.8705 48.8794 40.1186 49.175C40.396 49.521 40.3376 49.4922 40.4179 49.6147C40.4981 49.7373 40.5784 49.8671 40.812 50.1122C41.0455 50.3573 41.301 50.8475 41.3667 51.1502C41.4397 51.453 41.4324 51.7053 41.3959 51.936V51.9432ZM26.3024 56.9895C26.4046 57.1336 26.4922 57.3355 26.587 57.5373C26.733 57.8545 26.8571 58.1213 27.0031 58.1717C27.0614 58.1934 27.1344 58.2006 27.2074 58.2006C27.5359 58.2006 28.003 58.0203 28.3314 57.768C28.5212 57.6094 28.4555 57.5085 28.3752 57.3715C28.346 57.3283 28.3168 57.2778 28.2876 57.2129C28.2 57.0399 28.1489 56.8669 28.0978 56.7083C28.003 56.3911 27.93 56.1244 27.5869 56.1677C27.0979 56.2397 26.6162 56.2686 26.0907 56.2686C26.0907 56.2686 25.9156 56.2686 25.8645 56.3839C25.8061 56.5137 25.9375 56.6362 26.0834 56.766C26.1637 56.8381 26.244 56.9174 26.3024 56.9967V56.9895Z" fill="#E2071F"/>
<path d="M94.9529 60.4353C94.8945 60.32 94.8434 60.2119 94.8288 60.1326C94.7996 59.9884 94.7777 59.837 94.7558 59.6928C94.7266 59.4549 94.6974 59.2314 94.6244 59.0584C94.5368 58.8494 94.2887 58.6908 94.0478 58.6908C93.9675 58.6908 93.8873 58.7124 93.807 58.7484C93.4493 58.9287 93.2377 59.1161 93.2961 59.5126C93.4931 60.0893 93.588 60.5146 93.7194 61.0841C93.734 61.1706 93.7924 61.459 93.9311 61.459C93.9383 61.459 93.9529 61.459 93.9603 61.459L94.9893 61.1274C95.0404 61.113 95.0769 61.0769 95.0988 61.0337C95.1572 60.8967 95.0477 60.6732 94.9455 60.4498L94.9529 60.4353ZM93.4274 57.9266C93.2231 57.6311 92.8582 57.3932 92.5735 57.2057C92.4422 57.1192 92.3254 57.0399 92.2451 56.9751L92.1867 56.9318C92.121 56.8741 92.0407 56.8453 91.9531 56.8453C91.6247 56.8453 91.2744 57.2346 91.2671 57.3643C91.2598 57.559 91.5371 57.905 91.902 58.3303L91.9823 58.424C92.1648 58.6403 92.3692 58.7557 92.5808 58.7773C92.7925 58.7773 92.9604 58.7052 93.1428 58.5394C93.2742 58.4168 93.5734 58.1141 93.442 57.9266H93.4274ZM69.2983 56.4488C69.1013 56.4704 68.9261 56.4848 68.7364 56.4848C68.6342 56.4848 68.5393 56.4848 68.4517 56.4848C68.3714 56.4848 68.3057 56.4848 68.2327 56.4848C68.116 56.4848 68.0211 56.4921 67.9262 56.5065H67.9043L67.897 56.5281C67.8824 56.5569 67.5175 57.1841 67.5686 57.5734C67.6197 57.9987 68.0576 58.0852 68.3933 58.1501C68.5101 58.1717 68.6488 58.2006 68.7874 58.2006C69.0283 58.2006 69.1816 58.1213 69.2618 57.9627C69.4589 57.4508 69.5757 57.0399 69.6341 56.6507C69.6487 56.593 69.6268 56.5497 69.6049 56.5281C69.5465 56.4632 69.437 56.4488 69.3713 56.4488C69.3421 56.4488 69.3202 56.4488 69.291 56.4488H69.2983ZM92.6246 59.4405L92.61 59.4117H92.5808C91.9896 59.4477 91.6174 58.9719 91.2598 58.5106C91.143 58.3592 91.0335 58.215 90.9094 58.0924C90.727 57.8834 90.5226 57.7032 90.3402 57.5446C90.1285 57.3643 89.9533 57.2057 89.8803 57.0616C89.7928 56.8885 89.7052 56.5569 89.6176 56.2325C89.5519 56.0019 89.4935 55.7856 89.4424 55.6342C89.4278 55.6054 89.4205 55.5765 89.4059 55.5405C89.2965 55.2593 89.1651 54.9061 88.7929 54.8412C88.6031 54.8124 88.406 54.8052 88.209 54.798C87.6689 54.7763 87.1288 54.6826 86.8514 54.3005C86.596 53.9473 86.6982 53.6229 86.8514 53.2769C86.9171 53.1255 86.9609 52.9957 86.9974 52.8516C87.1945 52.21 87.2529 51.417 87.1069 50.8547C87.085 50.7682 87.0558 50.6745 87.0266 50.5879C86.9463 50.3573 86.8587 50.004 86.9171 49.8959C86.9755 49.7878 87.0412 49.7661 87.1434 49.7661C87.2383 49.7661 87.3477 49.795 87.4499 49.8238C87.5229 49.8454 87.5813 49.8526 87.647 49.8743C87.917 49.9391 88.3111 50.0112 88.6761 50.0112C89.2819 50.0112 89.9168 49.8815 90.4569 49.6508C91.4933 49.1534 92.5151 48.036 92.4567 46.6519C92.3181 45.2461 91.4422 43.8909 89.7709 42.5068C89.7344 42.4707 89.6906 42.4347 89.6468 42.4058C89.4278 42.2256 89.1651 42.0093 89.1578 41.8075C89.1505 41.6056 89.6687 41.4903 89.9971 41.411C90.0701 41.3966 90.1431 41.3749 90.2015 41.3605L90.2891 41.3389C90.7051 41.2308 91.1357 41.1226 91.486 40.8775C92.6757 40.0846 92.6319 38.686 92.5005 37.9219C92.5005 37.9002 92.4859 37.8786 92.4859 37.8498C92.464 37.7489 92.4348 37.6263 92.34 37.6263C92.3108 37.6263 92.2816 37.6407 92.2524 37.6696C92.2159 37.6984 92.1794 37.7344 92.1429 37.7705C92.0042 37.9003 91.851 38.0444 91.6831 38.1381C91.3036 38.3616 90.8511 38.4553 90.4058 38.5418C90.1285 38.5995 89.8366 38.6572 89.5665 38.7509C88.3841 39.1546 87.647 39.7457 87.3842 40.5171C87.2456 40.9136 87.3185 41.4182 87.5886 41.9012C87.9754 42.5068 88.5374 43.0402 89.0775 43.552C89.9314 44.3594 90.8146 45.1957 91.0189 46.3347C91.1284 46.9979 90.8584 47.553 90.1869 48.036C89.8365 48.2451 89.3913 48.3532 88.8877 48.3532C88.2747 48.3532 87.6178 48.1874 87.0777 47.9062C86.3843 47.5602 85.7129 47.1205 85.0633 46.6951C84.0853 46.0535 83.0781 45.3831 81.9614 45.0299C81.4724 44.8136 80.9396 44.7055 80.4214 44.6045C79.6842 44.4532 78.9179 44.3018 78.3048 43.826C78.0931 43.689 77.8815 43.5376 77.6844 43.3934C77.1297 42.997 76.5531 42.586 75.9036 42.4202C75.6627 42.3409 75.4219 42.3049 75.1883 42.2689C74.8307 42.2184 74.4949 42.1679 74.1884 41.9517C74.0497 41.8507 73.911 41.7498 73.7651 41.6489C73.2469 41.274 72.7068 40.8847 72.174 40.6252C71.2544 40.1711 70.2691 39.9404 69.1743 39.7025C68.8239 39.6232 68.605 39.3565 68.3787 39.0825C68.2255 38.8951 68.0649 38.7004 67.8605 38.5707C67.0139 37.9075 66.2475 37.4677 65.2622 37.4677C65.1673 37.4677 65.0798 37.4677 64.9849 37.4821C64.4667 37.5182 63.9631 37.9075 63.62 38.1958C62.6347 39.0465 61.5764 39.8106 60.5473 40.5387C59.0219 41.6273 57.4381 42.7591 56.0879 44.2153C54.7596 45.5705 54.2779 47.2574 53.8108 48.8939C53.7451 49.1317 53.6721 49.3769 53.5991 49.6147C53.475 50.0617 53.3582 50.5231 53.2488 50.97C52.643 53.385 52.008 55.7928 49.5703 57.3571C49.4097 57.4581 49.4681 57.6599 49.6141 57.7176C49.6798 57.7392 50.8402 58.0852 51.7234 57.0688C52.3583 56.3335 52.6795 55.6198 53.4239 54.834C53.4458 54.8124 53.5334 54.7331 53.6064 54.7475C53.6575 54.7619 53.6794 54.7908 53.6575 54.8845C53.5699 55.2017 53.3728 55.4684 53.1831 55.7351C52.9933 56.0091 52.7963 56.2902 52.6941 56.6146C52.4605 57.3067 51.8036 57.869 51.2271 58.3592C51.2271 58.3592 51.1322 58.4168 51.0811 58.4817C51.03 58.5466 51.03 58.5754 51.03 58.5754C51.0154 58.7268 51.1395 58.8205 51.3803 58.835C52.7452 58.835 53.7232 57.8762 54.6647 56.9462C54.7085 56.903 54.7523 56.8885 54.8253 56.8885C54.8763 56.8885 54.9128 56.8885 54.9785 56.9102C55.0442 56.939 55.1829 57.0832 55.2997 57.1769C55.6062 57.4508 55.9273 57.7248 56.3361 57.8113H56.3507C56.847 57.7392 57.2995 57.6887 57.7593 57.6887C57.8907 57.6887 58.022 57.6887 58.1315 57.7032C58.6278 57.8545 59.1314 58.0348 59.6131 58.215C59.9562 58.3447 60.3065 58.4745 60.6568 58.5899H60.6714C61.1239 58.5754 61.4524 58.1573 61.6932 57.7825C61.8027 57.5229 61.7516 57.2634 61.7005 57.0111C61.6713 56.8597 61.6421 56.7083 61.6494 56.5641C61.737 56.5209 61.8465 56.5281 61.9706 56.5497C62.08 56.5641 62.2406 56.5497 62.2917 56.5425C62.4085 56.5281 62.5399 56.3911 62.5034 56.2109C62.4158 55.7567 62.1822 55.4828 61.956 55.1368C61.7589 54.8412 61.5691 54.5673 61.4743 54.2501C61.321 53.8392 61.0072 53.4931 60.6933 53.1615C60.3357 52.7795 60 52.4118 59.8978 51.9504C59.8978 51.9504 59.8686 51.8495 59.8978 51.8135C59.927 51.7774 60.0291 51.8135 60.0291 51.8135C60.1897 51.9288 60.3576 52.0658 60.5181 52.1955C61.0363 52.6137 61.5691 53.039 62.226 53.1399C62.8318 53.1976 63.496 53.2769 64.1455 53.2192C64.3207 53.1904 64.401 53.0462 64.3645 52.902C64.1091 52.3613 63.839 51.7774 63.6784 51.143C63.5398 50.6672 63.2405 49.4057 63.5471 48.4613C63.5763 48.3676 63.6419 48.3388 63.7003 48.3388C63.7003 48.3388 63.7149 48.3388 63.7222 48.3388C63.8244 48.3676 63.8974 48.4829 63.912 48.5839V48.7064C64.0142 49.9968 64.1017 51.2151 64.8973 52.2604C65.109 52.592 65.4155 52.7723 65.7147 52.9453C65.9191 53.0678 66.1527 53.1687 66.2986 53.3562C66.4665 53.5652 66.4957 53.9257 66.3789 54.1492L65.4009 55.5765C65.1673 55.9009 64.9484 56.2542 64.8608 56.6074C64.7878 56.9678 64.817 57.3211 64.8462 57.6527V57.732C64.8462 57.732 64.8024 57.6959 64.7805 57.6527C64.3864 56.9462 64.3061 56.3479 64.5032 55.8865C64.6346 55.5909 65.4301 54.4736 65.6637 54.1059C65.7366 53.9906 65.795 53.868 65.7366 53.7887C65.6563 53.6878 65.0579 53.4355 64.9046 53.4355C64.89 53.4355 64.8827 53.4355 64.8754 53.4355C64.7367 53.4715 64.6418 53.6013 64.5616 53.7166C64.547 53.7382 64.5251 53.7671 64.5105 53.7959L63.2989 55.9658L63.2697 56.0451C63.1967 56.2614 63.1383 56.4488 63.1967 56.7011C63.2624 57.0255 63.3646 57.3788 63.4449 57.6311C63.4668 57.7032 63.4887 57.7752 63.5033 57.8473C63.6128 58.2222 63.7149 58.5754 63.8828 58.7773C63.9923 58.8998 64.1236 58.9575 64.2988 58.9575C64.3864 58.9575 64.4813 58.9431 64.5762 58.9287C64.7294 58.907 64.89 58.8854 65.0141 58.9143C65.1965 58.9575 65.3206 59.0945 65.452 59.2314C65.5834 59.3756 65.722 59.5198 65.9264 59.5775C66.2986 59.7 66.6927 59.801 67.0723 59.9019C67.5759 60.0316 68.1014 60.1686 68.5977 60.356C68.875 60.4425 69.1816 60.5291 69.4735 60.5291C69.7946 60.5291 69.9917 60.4425 70.2764 60.2119C70.6705 59.8947 70.7945 59.5847 70.8967 59.1377C70.977 58.7268 71.1157 58.698 71.4149 58.6836C71.5609 58.6764 71.5828 58.6836 71.7288 58.6331C71.882 58.5826 72.32 58.0564 72.5462 57.6239C72.6119 57.5085 72.6776 57.4004 72.736 57.3067C72.8017 57.2057 72.8309 57.1192 72.8309 57.0327C72.8309 56.8165 72.6484 56.7516 72.5316 56.7444H72.4586C72.4586 56.7444 71.1668 56.7372 70.8164 56.7444C70.2836 56.7732 70.0574 57.2778 69.8676 57.7176C69.7946 57.8906 69.729 58.0492 69.6414 58.1934C69.5027 58.4457 69.2254 58.5971 68.8896 58.5899C68.7947 58.5899 68.5758 58.5322 68.459 58.5033C67.7656 58.3375 67.0431 58.1573 66.7511 57.4797C66.7219 57.3643 66.6781 57.1192 66.8533 56.9174C67.2255 56.4921 67.7146 55.9514 68.2182 55.5621C68.9188 55.4179 69.6195 54.9061 70.0063 54.2573C70.0866 54.1492 70.1304 54.0194 70.1669 53.8896C70.2326 53.695 70.2909 53.5148 70.4661 53.3994C70.5829 53.3418 70.6705 53.3634 70.6924 53.4571C70.7581 53.8175 70.6194 54.1636 70.488 54.5024C70.4588 54.5817 70.4296 54.6538 70.4004 54.7259L70.3785 54.7835H70.4369C70.6267 54.8052 70.831 54.8196 71.0281 54.8196C71.7434 54.8196 72.4294 54.697 73.0936 54.5817C73.7505 54.4663 74.4292 54.3438 75.1299 54.3438C75.2029 54.3438 75.2832 54.3438 75.3562 54.3438C75.67 54.3438 75.9692 54.3726 76.2612 54.3943C76.5458 54.4231 76.8451 54.4447 77.1443 54.4447C77.2538 54.4447 77.3487 54.4447 77.4436 54.4375C78.3413 54.3943 78.9909 53.9906 79.1879 53.3562C79.3704 52.8155 79.3558 51.8783 79.1295 50.5663C79.1149 50.5014 79.1149 50.4654 79.1076 50.4582C79.1076 50.451 79.1076 50.4438 79.1076 50.4294C79.1076 50.3789 79.1076 50.3284 79.1733 50.2996C79.2536 50.2563 79.3485 50.2996 79.385 50.4077C79.728 51.3449 79.9251 52.4334 80.0273 53.176C80.144 53.8968 80.4506 54.6322 80.9688 55.4179C81.6111 56.3623 82.6693 56.9102 83.8736 56.9102C84.151 56.9102 84.4356 56.8597 84.713 56.8237C84.91 56.7948 84.9757 56.8092 85.1071 56.8092C86.6325 56.8092 87.9681 57.4653 88.9534 58.698C88.9534 58.698 88.9753 58.7196 88.968 58.7557C88.968 58.8061 88.8877 58.8566 88.8221 58.8277L88.6907 58.7268C87.8294 58.0636 86.939 57.386 85.8223 57.249C85.6253 57.2129 85.4136 57.1985 85.1947 57.1985C84.8735 57.1985 84.5524 57.2346 84.2458 57.2706C83.9393 57.3067 83.6474 57.3355 83.3554 57.3355C82.9759 57.3355 82.6547 57.2778 82.3409 57.1553C81.0564 56.7372 80.0054 55.2737 79.6696 54.3654C79.655 54.3366 79.6112 54.2789 79.531 54.2789C79.4945 54.2789 79.458 54.2933 79.4215 54.315C79.2755 54.4087 79.2463 54.4591 79.2244 54.5456C79.2025 54.6249 79.3266 55.2737 79.385 55.5549C79.5528 56.247 79.6696 57.0616 80.706 57.732C81.3921 58.1717 81.5965 58.3448 82.3555 58.4601C82.4869 58.4817 82.8007 58.4673 82.9248 58.4385C83.2459 58.3664 83.5817 58.3303 83.9174 58.3303C84.9757 58.3303 86.0559 58.6836 86.9609 59.3396C87.1142 59.4261 87.2529 59.5414 87.3915 59.6568C87.5886 59.8226 87.7856 59.9884 88.0265 60.0749C88.1798 60.1326 88.3403 60.1614 88.5082 60.1686C88.9169 60.1686 89.0191 60.0461 89.3111 59.9019C89.4424 59.837 89.5738 59.8154 89.6541 59.8154C89.9825 59.8154 90.165 60.0677 90.3985 60.3921C90.5372 60.5867 90.6978 60.803 90.9094 60.9976C91.2087 61.286 91.6247 61.322 91.9458 61.322C92.121 61.322 92.3035 61.3076 92.4786 61.3004C92.6465 61.286 92.8509 61.286 92.9604 61.2716C93.0698 61.2572 93.1209 61.2427 93.1209 61.2427V61.1995C93.0406 60.5867 92.8728 60.0172 92.5954 59.3973L92.6246 59.4405ZM58.3067 56.4128C58.2483 56.5209 58.1023 56.5786 57.9126 56.5786C57.7447 56.5786 57.5768 56.5281 57.4673 56.456C57.2192 56.283 57.0805 55.9946 57.0586 55.6198C57.0586 55.5333 57.0513 55.4468 57.1681 55.353C57.2265 55.317 57.263 55.317 57.336 55.317C57.5695 55.317 57.9417 55.4684 58.1461 55.7063C58.1607 55.7279 58.4672 56.1316 58.314 56.4055L58.3067 56.4128ZM58.6424 51.0782C58.5548 51.1935 58.4235 51.2728 58.2921 51.2079C58.168 51.1647 58.0585 51.0133 57.9928 50.8907C57.9053 50.7465 57.8396 50.6168 57.6425 50.6312C57.6279 50.6312 57.6425 50.6312 57.6133 50.6312C57.4381 50.6456 57.3068 50.7321 57.1681 50.8403C57.0951 50.8979 56.8178 51.0998 56.7448 51.1647C56.3653 51.4819 55.9784 51.8135 55.8835 52.2604C55.8592 52.3661 55.8422 52.4454 55.8325 52.4983C55.8033 52.6569 55.7741 52.8155 55.6427 52.902H55.6281C55.6281 52.902 55.5916 52.9164 55.5697 52.9164C55.5113 52.9164 55.4529 52.8948 55.4018 52.8516C55.3508 52.8083 55.3216 52.7723 55.3216 52.7002C55.2559 51.9288 55.5186 51.2368 56.066 50.7465C56.4163 50.4582 56.7083 50.0977 56.9783 49.7517C57.1097 49.5787 57.2484 49.4057 57.3944 49.2399C57.5038 49.1317 57.679 49.2255 57.9782 49.5427C58.1023 49.6724 58.4891 50.3212 58.6643 50.7465C58.73 50.934 58.6424 51.0782 58.6424 51.0782ZM65.0798 42.1391C64.9338 42.2761 64.7805 42.413 64.6199 42.5572C64.0726 43.0474 63.5106 43.5593 63.1383 44.136C62.9632 44.3739 62.8318 44.6406 62.7077 44.9073C62.6931 44.9362 62.6639 44.9938 62.6055 44.9938C62.5763 44.9938 62.5472 44.9794 62.5253 44.9578C62.4158 44.8569 62.5107 44.1288 62.642 43.7683C62.9413 42.9609 63.6273 42.1247 64.5251 41.4615C64.6199 41.4038 64.744 41.3677 64.8535 41.3677C65.0214 41.3677 65.1528 41.447 65.2038 41.5768C65.3133 41.757 65.2695 41.9589 65.0798 42.1463V42.1391Z" fill="#E2071F"/>
</g>
<defs>
<clipPath id="clip0_3111_4021">
<rect width="96" height="96" fill="white"/>
</clipPath>
</defs>
</svg>
