<svg width="96" height="96" viewBox="0 0 96 96" fill="none" xmlns="http://www.w3.org/2000/svg">
<path d="M81.1704 33.987C79.3568 29.7 76.7619 25.8498 73.4556 22.5444C70.1492 19.239 66.3 16.6432 62.013 14.8296C57.5737 12.9517 52.8598 12 48 12C43.1402 12 38.4254 12.9517 33.987 14.8296C29.7 16.6432 25.8498 19.2381 22.5444 22.5444C19.239 25.8508 16.6423 29.7 14.8296 33.987C12.9517 38.4254 12 43.1402 12 48C12 52.8598 12.9517 57.5746 14.8296 62.013C16.6432 66.3 19.2381 70.1502 22.5444 73.4556C25.8508 76.761 29.7 79.3568 33.987 81.1704C38.4254 83.0474 43.1402 84 48 84C52.8598 84 57.5746 83.0483 62.013 81.1704C66.3 79.3568 70.1502 76.7619 73.4556 73.4556C76.761 70.1492 79.3568 66.3 81.1704 62.013C83.0474 57.5746 84 52.8598 84 48C84 43.1402 83.0483 38.4254 81.1704 33.987Z" fill="black"/>
<path d="M33.6471 67.7918C33.3082 67.7918 33.0399 67.887 32.8441 68.0755C32.6474 68.264 32.5495 68.4897 32.5495 68.7517C32.5495 69.0136 32.6112 69.2048 32.7344 69.3236C32.8577 69.4432 33.1967 69.6263 33.7514 69.8737C34.306 70.1202 34.6858 70.3804 34.8897 70.6532C35.0937 70.9269 35.1961 71.3257 35.1961 71.8496C35.1961 72.7215 34.9287 73.3912 34.3931 73.8607C33.8574 74.3311 33.135 74.5668 32.226 74.5668C31.8634 74.5668 31.4819 74.5269 31.0813 74.4499C30.6798 74.3728 30.3689 74.2958 30.145 74.2196L29.8215 74.0928L30.087 72.948C30.958 73.1021 31.6423 73.1782 32.139 73.1782C32.6356 73.1782 33.0009 73.0921 33.232 72.919C33.4631 72.745 33.5782 72.4505 33.5782 72.0354C33.5782 71.8106 33.5112 71.6402 33.3761 71.5205C33.242 71.4018 32.9121 71.2224 32.3882 70.984C31.8644 70.7447 31.4909 70.4828 31.2671 70.1973C31.0441 69.9127 30.9317 69.5148 30.9317 69.0072C30.9317 68.2595 31.1746 67.6432 31.6604 67.1565C32.1453 66.6716 32.7924 66.4287 33.6018 66.4287C33.9716 66.4287 34.3586 66.4659 34.7628 66.5393C35.168 66.6127 35.4779 66.6834 35.6937 66.7532L36.0172 66.8683L35.7281 68.0003C34.8807 67.8625 34.1864 67.7928 33.648 67.7928L33.6471 67.7918Z" fill="white"/>
<path d="M34.8299 74.4263L38.3674 66.5665H41.1181L40.8752 74.4263H39.2801L39.3263 73.0622H37.0378L36.4251 74.4263H34.8299ZM39.3027 67.9541L37.6387 71.6755H39.3843L39.5465 67.9541H39.3027Z" fill="white"/>
<path d="M43.3459 71.7553C43.2761 72.048 43.2417 72.3127 43.2417 72.5474C43.2417 72.7822 43.3205 72.9462 43.4792 73.0387C43.6369 73.1311 43.9142 73.1764 44.3112 73.1764C44.7082 73.1764 45.0063 73.0704 45.2066 72.8592C45.4069 72.6462 45.5647 72.2792 45.6807 71.7544L46.8825 66.5656H48.4776L47.2758 71.7544C47.0529 72.7414 46.6876 73.4556 46.1837 73.8988C45.6789 74.342 45.0109 74.564 44.1779 74.564C42.4976 74.564 41.6583 73.9695 41.6583 72.7831C41.6583 72.3834 41.7082 71.9547 41.8088 71.5006L42.9535 66.5647H44.5486L43.3468 71.7535L43.3459 71.7553Z" fill="white"/>
<path d="M52.2761 66.5665C53.6474 66.5665 54.3335 67.132 54.3335 68.2659C54.3335 68.7671 54.2257 69.1785 54.01 69.5012C53.7943 69.8257 53.4698 70.1184 53.0393 70.3804C53.3393 70.558 53.5405 70.7502 53.6402 70.9577C53.7399 71.1671 53.7906 71.4281 53.7906 71.7444C53.7906 72.5157 53.5233 73.1538 52.9876 73.6631C52.452 74.1707 51.687 74.4254 50.6937 74.4254H47.7344L49.5498 66.5656H52.2779L52.2761 66.5665ZM51.397 71.1326H50.0909L49.6396 73.0622H51.0027C51.3498 73.0622 51.6272 72.9435 51.8356 72.7042C52.0432 72.465 52.1474 72.1568 52.1474 71.7798C52.1474 71.3474 51.8973 71.1326 51.3961 71.1326H51.397ZM52.0215 67.9296H50.8305L50.3909 69.803H51.5819C51.8973 69.803 52.1637 69.6888 52.3795 69.4622C52.5952 69.2357 52.703 68.9438 52.703 68.5894C52.703 68.1498 52.4764 67.9305 52.0215 67.9305V67.9296Z" fill="white"/>
<path d="M54.0136 74.4263L55.8172 66.5665H60.4287L60.1051 67.9532H57.0997L56.6719 69.8021H59.0529L58.7293 71.1888H56.3592L55.9314 73.0378H58.9486L58.6369 74.4245H54.0127L54.0136 74.4263Z" fill="white"/>
<path d="M63.5239 66.5665C64.3559 66.5665 64.9686 66.7414 65.3619 67.0921C65.7544 67.4429 65.952 67.9949 65.952 68.7508C65.952 69.5067 65.7861 70.1375 65.4544 70.6459C65.1227 71.1553 64.703 71.5097 64.1946 71.71L64.8299 74.4263H63.2347L62.7145 71.9293H61.6169L61.0387 74.4263H59.4435L61.2589 66.5665H63.5239ZM63.9462 70.0686C64.1891 69.7369 64.3097 69.3707 64.3097 68.971C64.3097 68.5713 64.2444 68.2958 64.113 68.1499C63.9816 68.003 63.755 67.9305 63.4305 67.9305H62.5405L61.9278 70.5662H62.9565C63.3725 70.5662 63.7015 70.4003 63.9444 70.0686H63.9462Z" fill="white"/>
<path fill-rule="evenodd" clip-rule="evenodd" d="M30.4296 20.9647H43.7918V29.8731H48.2456V25.4193H52.6994V20.9656H66.0616V34.3278H61.6079V38.7816H57.1541V43.2353H61.6079V47.6891H66.0616V61.0514H52.6994V56.5976H48.2456V52.1438H43.7918V61.0523H30.4296V20.9647Z" fill="#00E701"/>
</svg>
