<svg width="96" height="96" viewBox="0 0 96 96" fill="none" xmlns="http://www.w3.org/2000/svg">
<path d="M29.1053 44.879H30.2398L29.6725 43.3929L29.1053 44.879ZM27.921 46.3369L29.5731 42.3639H30.0027L31.6548 46.3369H30.7905L30.4106 45.3414H28.9294L28.5431 46.3369H27.921ZM31.8919 46.1527L31.8256 45.4354C32.2042 45.7586 32.6019 45.9196 33.0213 45.9196C33.2597 45.9196 33.4394 45.872 33.5605 45.778C33.7925 45.5977 33.7925 45.2783 33.6243 45.0774C33.4815 44.9061 33.2316 44.8005 32.6351 44.512C32.106 44.2557 31.8422 43.8835 31.8422 43.3942C31.8422 43.0529 31.9582 42.7811 32.1889 42.5789C32.6962 42.1359 33.5338 42.3046 33.6179 42.3201C33.7772 42.3497 33.9328 42.3961 34.0832 42.4592L34.1495 43.143C33.9697 43.013 33.8015 42.9189 33.6459 42.8597C33.1093 42.6562 32.5356 42.794 32.5356 43.2602C32.5356 43.4882 32.681 43.644 32.9818 43.7998C33.6727 44.1527 33.999 44.2892 34.2463 44.6034C34.5485 44.9885 34.565 45.7342 34.0781 46.1231C33.8244 46.3253 33.4738 46.4257 33.0264 46.4257C32.4387 46.4257 32.0461 46.2403 31.8919 46.1527ZM35.6371 46.3369V42.8481C35.3146 42.8545 34.9742 42.8777 34.4579 42.9434L34.5026 42.3652H37.5263L37.5709 42.9434C36.9182 42.861 36.5676 42.852 36.3866 42.8481V46.3369H35.6371ZM39.5697 45.9415C40.1816 45.9415 40.7373 45.447 40.7373 44.3497C40.7373 44.2583 40.7603 43.3787 40.1892 42.9524C40.0146 42.8224 39.8081 42.758 39.5697 42.758C38.7526 42.758 38.402 43.5242 38.402 44.3497C38.402 45.4393 38.9552 45.9415 39.5697 45.9415ZM39.5697 46.4257C38.3956 46.4257 37.5862 45.5655 37.5862 44.3497C37.5862 43.134 38.4033 42.2737 39.5697 42.2737C40.7361 42.2737 41.5532 43.116 41.5532 44.3497C41.5532 45.5835 40.745 46.4257 39.5697 46.4257ZM42.1587 46.3369V42.3639H42.5666L44.9185 45.0632V42.3639H45.4743V46.3369H45.0613L42.7145 43.6324V46.3369H42.1587ZM47.57 46.3369L48.0111 42.3639H48.4126L49.811 45.1353L51.1609 42.3639H51.5625L52.0036 46.3369H51.2043L50.9787 43.8822L49.8773 46.1746H49.514L48.396 43.9093L48.1704 46.3356H47.57V46.3369ZM53.5231 44.879H54.6576L54.0903 43.3929L53.5231 44.879ZM52.3388 46.3369L53.9909 42.3639H54.4205L56.0725 46.3369H55.2083L54.8284 45.3414H53.3471L52.9609 46.3369H52.3388ZM57.1752 44.172C57.2823 44.19 57.3868 44.2003 57.4888 44.2003C58.13 44.2003 58.2881 43.8282 58.2881 43.5049C58.2881 43.0181 57.9464 42.8146 57.4569 42.8146C57.369 42.8146 57.2746 42.8198 57.1765 42.8314V44.172H57.1752ZM56.4269 46.3369V42.3974C56.6449 42.3703 56.9088 42.3471 57.3078 42.3471C57.6609 42.3471 57.9668 42.3883 58.2281 42.4721C58.6067 42.5931 59.0542 42.8674 59.0542 43.465C59.0542 43.7135 58.9777 43.9351 58.826 44.1295C58.673 44.324 58.4614 44.4631 58.1899 44.5442L59.5717 46.3356H58.6628L57.4289 44.6382H57.1752V46.3356H56.4257L56.4269 46.3369ZM60.4972 46.3369V42.8481C60.1747 42.8545 59.8343 42.8777 59.3181 42.9434L59.3627 42.3652H62.3864L62.431 42.9434C61.7809 42.8623 61.429 42.852 61.2467 42.8481V46.3369H60.4972ZM62.9422 42.3626H63.6917V46.3356H62.9422V42.3626ZM64.4629 46.3369V42.3639H64.8708L67.2228 45.0632V42.3639H67.7785V46.3369H67.3655L65.0187 43.6324V46.3369H64.4629Z" fill="white"/>
<path d="M95.8319 37.7148C95.5782 37.2601 95.0785 37 94.4615 37H55.7768C55.1241 37 54.1375 37 53.1113 38.0367C52.7761 38.3767 52.5887 38.7128 52.4242 39.0103C52.1055 39.586 51.8761 40.0007 50.818 40.0007H45.1811C44.1231 40.0007 43.8936 39.5847 43.5749 39.0103C43.4105 38.7128 43.2244 38.3754 42.8878 38.0367C41.8617 37 40.875 37 40.2223 37H1.54016C0.923188 37 0.424762 37.2601 0.169812 37.7148C-0.0838622 38.1681 -0.0519936 38.7476 0.256495 39.264L0.953781 40.4385C1.32983 41.0876 1.82443 41.1881 2.18646 41.2615C2.51535 41.3285 2.71293 41.3684 2.96788 41.8178L3.58103 42.9073C4.05651 43.7985 4.63015 43.908 5.04827 43.9891C5.37078 44.0497 5.67417 44.078 6.08336 44.8301C6.48236 45.5629 7.08404 46.6704 8.5449 47.1109C8.68894 47.1534 22.9597 51.3582 22.9776 51.3633C24.4805 51.8553 24.8744 52.4155 25.3435 53.1174C25.6227 53.5334 26.362 54.6371 28.1964 55.1367L41.9203 58.8831C43.3888 59.2836 44.3168 58.5573 44.7452 58.1748L47.2347 55.7935C47.5764 55.4664 47.7918 55.3389 48.0009 55.3389C48.2099 55.3389 48.4253 55.4664 48.767 55.7935L51.2566 58.1748C51.6874 58.5598 52.6167 59.281 54.0814 58.8818L67.8053 55.1354C69.6397 54.6371 70.3803 53.5321 70.6582 53.1161C71.1247 52.4232 71.5097 51.8579 73.0241 51.3621C73.042 51.3569 87.3128 47.1521 87.4568 47.1096C88.9177 46.6691 89.5206 45.5616 89.9183 44.8288C90.3097 44.1089 90.6029 44.0548 90.9126 43.9956C91.3257 43.917 91.9273 43.8294 92.4194 42.9073L93.0325 41.8178C93.2862 41.3684 93.4851 41.3285 93.814 41.2615C94.176 41.1881 94.6706 41.0876 95.0466 40.4385L95.7439 39.264C96.0511 38.7463 96.0843 38.1681 95.8306 37.7148H95.8319ZM69.4102 40.9266V47.7715H26.5915V40.9266H69.4115H69.4102ZM54.0533 57.8296C52.9966 57.8296 52.632 56.9152 52.363 56.1966C52.0571 55.3788 50.3604 49.9957 49.8913 48.5172H52.001C53.1508 50.467 55.2236 53.9674 56.1299 55.402C56.2918 55.657 56.7494 56.4529 57.5844 56.9384C54.33 57.827 54.4128 57.8283 54.0533 57.8283V57.8296ZM59.0478 56.4491C57.8648 56.4491 57.244 55.5257 56.8667 54.9281C56.0917 53.7008 54.3351 50.749 53.0183 48.5172H55.3625C56.8412 50.1051 59.9694 53.4574 61.1996 54.7002C61.3857 54.8882 61.7834 55.3145 62.357 55.6364C59.5054 56.4143 59.4927 56.4491 59.0478 56.4491ZM63.8421 55.1586C62.9205 55.1586 62.2755 54.5417 61.8166 54.0768C60.733 52.9822 58.1593 50.2326 56.5608 48.5185H59.1256C60.7572 49.7304 64.5203 52.5173 65.9977 53.5372C66.2705 53.7253 66.8034 54.0562 67.4293 54.2533C64.12 55.1573 64.1914 55.1599 63.8421 55.1599V55.1586ZM69.8781 52.5829C69.4536 53.2178 69.1413 53.5321 68.4248 53.5321C67.7658 53.5321 67.0545 53.1972 66.4911 52.8083C65.266 51.9622 62.445 49.8849 60.6004 48.5185H63.6522C67.3936 50.4065 68.9641 51.2474 70.0387 51.5642C70.2324 51.6209 70.4096 51.6608 70.5766 51.6853C70.2974 51.9699 70.0999 52.2584 69.8781 52.5842V52.5829ZM71.0139 50.8353C70.1572 50.8353 69.0456 50.2635 65.6026 48.5172H68.9386L73.6156 49.7226C73.9343 49.8063 74.2275 49.8772 74.5003 49.9351C71.8807 50.7065 71.483 50.834 71.0139 50.834V50.8353ZM80.1563 48.2699C77.3901 49.0851 76.944 49.2629 76.1613 49.2629C75.6399 49.2629 74.9541 49.1637 73.8349 48.8701H73.8323L70.1483 47.9196V46.5893L80.1563 48.2699ZM83.013 47.429C82.1309 47.6518 81.3113 47.5784 80.0161 47.353H80.0136L70.1496 45.6955V44.6369L86.2789 46.467L83.013 47.429ZM89.0949 44.3716C88.9699 44.6009 88.845 44.8211 88.7073 45.0259C88.1452 45.796 87.7984 45.7561 86.0699 45.5564L70.1483 43.7496V42.7515L88.5085 43.8385C88.6474 43.8462 89.0184 43.8719 89.3957 43.8951C89.295 44.0304 89.1943 44.1875 89.0949 44.3716ZM92.2167 41.3465C92.2167 41.3465 91.8776 41.9492 91.7043 42.2583C91.1714 43.1327 90.905 43.1186 89.3473 43.0091L70.1483 41.8681V41.0644H92.399C92.3378 41.1482 92.2766 41.2422 92.218 41.3465H92.2167ZM94.9383 38.7734L94.4348 39.6221C94.0829 40.181 93.944 40.181 92.7547 40.181H52.7837C53.212 39.6877 53.3204 39.1713 53.778 38.709C54.5301 37.9491 55.1815 37.9517 55.7768 37.9517H94.4615C94.7292 37.9517 94.9294 38.0354 95.0122 38.1835C95.0964 38.3342 95.0683 38.5544 94.9383 38.7747V38.7734ZM43.9331 57.6171C44.1001 57.3699 44.2544 57.0479 44.4558 56.5083C44.7694 55.6686 46.5272 50.0961 47.0269 48.5185H48.9748C49.4745 50.0961 51.2323 55.6686 51.5459 56.5083C51.7473 57.0492 51.9029 57.3711 52.0686 57.6171C52.0099 57.5721 51.95 57.5231 51.8914 57.4703L49.4145 55.1007C49.0257 54.7298 48.586 54.3859 48.0009 54.3859C47.4157 54.3859 46.976 54.7298 46.5872 55.1007L44.1091 57.4703C44.0504 57.5231 43.9905 57.5708 43.9319 57.6158L43.9331 57.6171ZM38.4173 56.9397C39.2523 56.4529 39.7099 55.6583 39.8718 55.4033C40.7781 53.9687 42.8509 50.4683 44.0007 48.5185H46.1104C45.6426 49.9969 43.9446 55.3789 43.6387 56.1979C43.371 56.9165 43.0051 57.8309 41.9484 57.8309C41.5889 57.8309 41.6717 57.8283 38.4173 56.941V56.9397ZM33.6447 55.6364C34.2183 55.3145 34.616 54.8882 34.8021 54.7002C36.0323 53.4574 39.1605 50.1064 40.6392 48.5172H42.9835C41.6666 50.7478 39.9113 53.7008 39.135 54.9281C38.7577 55.5257 38.1369 56.4491 36.9539 56.4491C36.5103 56.4491 36.4963 56.4143 33.6447 55.6364ZM28.5724 54.252C29.1983 54.0549 29.7312 53.7253 30.004 53.5359C31.4814 52.516 35.2457 49.7291 36.8761 48.5172H39.4409C37.8424 50.2326 35.2687 52.9822 34.1852 54.0756C33.7262 54.5405 33.0812 55.1573 32.1596 55.1573C31.8103 55.1573 31.8804 55.1548 28.5724 54.2507V54.252ZM25.4251 51.684C25.5921 51.6596 25.7693 51.6196 25.963 51.563C27.0376 51.2462 28.6081 50.4052 32.3495 48.5172H35.4013C33.5567 49.8836 30.737 51.9609 29.5107 52.807C28.9472 53.196 28.2346 53.5308 27.5769 53.5308C26.8605 53.5308 26.5481 53.2166 26.1236 52.5816C25.9018 52.2558 25.703 51.9686 25.4251 51.6827V51.684ZM21.5014 49.9364C21.7742 49.8785 22.0674 49.8076 22.3861 49.7239L27.0631 48.5185H30.3992C26.9561 50.2648 25.8432 50.8366 24.9879 50.8366C24.5187 50.8366 24.121 50.7091 21.5014 49.9377V49.9364ZM25.8534 46.5893V47.9196L22.1694 48.8701H22.1668C21.0476 49.165 20.3618 49.2642 19.8404 49.2642C19.059 49.2642 18.6116 49.0864 15.8454 48.2712L25.8534 46.5906V46.5893ZM9.72404 46.467L25.8534 44.6369V45.6955L15.9894 47.3517H15.9869C14.6905 47.5771 13.8721 47.6505 12.9899 47.429L9.72404 46.467ZM6.60601 43.8938C6.98333 43.8707 7.35428 43.8449 7.49323 43.8372L25.8534 42.7502V43.7483L9.93182 45.5552C8.20327 45.7548 7.85526 45.7947 7.29437 45.0246C7.1567 44.8198 7.03177 44.5996 6.90685 44.3703C6.80614 44.1849 6.70544 44.0278 6.60601 43.8938ZM3.60398 41.0632H25.8547V41.8668L6.65572 43.0078C5.09926 43.1173 4.83156 43.1301 4.29872 42.257C4.12535 41.9479 3.78882 41.3516 3.78627 41.3452C3.72636 41.2396 3.66644 41.1456 3.60525 41.0632H3.60398ZM0.989474 38.1835C1.07106 38.0367 1.27247 37.9517 1.54016 37.9517H40.2249C40.8215 37.9517 41.4716 37.9491 42.2237 38.709C42.6813 39.1726 42.7897 39.689 43.218 40.181H3.24833C2.05899 40.181 1.92004 40.181 1.56821 39.6221L1.06468 38.7734C0.93466 38.5544 0.906616 38.3329 0.990749 38.1822L0.989474 38.1835Z" fill="white"/>
</svg>
