<svg width="96" height="96" viewBox="0 0 96 96" fill="none" xmlns="http://www.w3.org/2000/svg">
<path d="M79.7299 32C75.6913 32 71.9984 33.4718 69.1533 35.9056C66.3097 33.4703 62.6152 32 58.5766 32C54.5381 32 50.8451 33.4718 48 35.9056C45.1564 33.4703 41.4619 32 37.4234 32C33.3848 32 29.6919 33.4718 26.8467 35.9056C24.0031 33.4703 20.3087 32 16.2701 32C7.28415 32 0 39.2842 0 48.2701C0 57.256 7.28415 64.5401 16.2701 64.5401C20.3071 64.5401 24.0016 63.0699 26.8467 60.6345C29.6903 63.0699 33.3848 64.5401 37.4234 64.5401C41.4619 64.5401 45.1548 63.0699 48 60.6345C50.8436 63.0699 54.5381 64.5401 58.5766 64.5401C62.6152 64.5401 66.3081 63.0699 69.1533 60.6345C71.9969 63.0699 75.6913 64.5401 79.7299 64.5401C88.7159 64.5401 96 57.256 96 48.2701C96 39.2842 88.7159 32 79.7299 32ZM69.1548 55.8624C68.5902 55.0787 68.1147 54.2341 67.7362 53.3363C67.0589 51.7331 66.7148 50.0297 66.7148 48.2701C66.7148 46.5104 67.0589 44.8071 67.7362 43.2039C68.1163 42.3076 68.5902 41.463 69.1548 40.6794C69.7195 41.463 70.195 42.3076 70.5735 43.2039C71.2508 44.8071 71.5949 46.5104 71.5949 48.2701C71.5949 50.0297 71.2508 51.7331 70.5735 53.3363C70.1934 54.2341 69.7195 55.0772 69.1548 55.8624ZM48.0031 55.8624C47.4385 55.0787 46.963 54.2341 46.5845 53.3363C45.9072 51.7331 45.5631 50.0297 45.5631 48.2701C45.5631 46.5104 45.9072 44.8071 46.5845 43.2039C46.9645 42.3076 47.4385 41.463 48.0031 40.6794C48.5678 41.463 49.0433 42.3076 49.4218 43.2039C50.0991 44.8071 50.4432 46.5104 50.4432 48.2701C50.4432 50.0297 50.0991 51.7331 49.4218 53.3363C49.0417 54.2341 48.5678 55.0772 48.0031 55.8624ZM26.8498 55.8624C26.2852 55.0787 25.8097 54.2341 25.4312 53.3363C24.7539 51.7331 24.4098 50.0297 24.4098 48.2701C24.4098 46.5104 24.7539 44.8071 25.4312 43.2039C25.8113 42.3076 26.2852 41.463 26.8498 40.6794C27.4145 41.463 27.89 42.3076 28.2685 43.2039C28.9458 44.8071 29.2899 46.5104 29.2899 48.2701C29.2899 50.0297 28.9458 51.7331 28.2685 53.3363C27.8884 54.2341 27.4145 55.0772 26.8498 55.8624ZM16.2748 61.2883C14.5167 61.2883 12.8118 60.9442 11.2086 60.2669C9.6585 59.6116 8.26642 58.6731 7.06986 57.4765C5.87331 56.28 4.93483 54.8879 4.27946 53.3379C3.60219 51.7346 3.25808 50.0313 3.25808 48.2716C3.25808 46.512 3.60219 44.8087 4.27946 43.2054C4.93483 41.6554 5.87331 40.2633 7.06986 39.0667C8.26642 37.8702 9.6585 36.9317 11.2086 36.2763C12.8118 35.5991 14.5151 35.255 16.2748 35.255C18.0344 35.255 19.7377 35.5991 21.341 36.2763C22.525 36.7769 23.6152 37.4432 24.5975 38.2628C22.4406 41.0235 21.1564 44.4974 21.1564 48.2716C21.1564 52.0459 22.4421 55.5198 24.5975 58.2805C23.6152 59.1001 22.5235 59.7664 21.341 60.2669C19.7377 60.9442 18.0344 61.2883 16.2748 61.2883ZM37.4265 61.2883C35.6684 61.2883 33.9635 60.9442 32.3603 60.2669C31.1762 59.7664 30.086 59.1001 29.1022 58.2805C31.2591 55.5198 32.5448 52.0459 32.5448 48.2716C32.5448 44.4974 31.2591 41.0235 29.1022 38.2628C30.0845 37.4432 31.1762 36.7769 32.3603 36.2763C33.9635 35.5991 35.6668 35.255 37.4265 35.255C39.1861 35.255 40.8895 35.5991 42.4927 36.2763C43.6767 36.7769 44.7669 37.4432 45.7508 38.2628C43.5938 41.0235 42.3081 44.4974 42.3081 48.2716C42.3081 52.0459 43.5938 55.5198 45.7508 58.2805C44.7685 59.1001 43.6767 59.7664 42.4927 60.2669C40.8895 60.9442 39.1861 61.2883 37.4265 61.2883ZM58.5782 61.2883C56.8201 61.2883 55.1152 60.9442 53.512 60.2669C52.3279 59.7664 51.2378 59.1001 50.2555 58.2805C52.4124 55.5198 53.6981 52.0459 53.6981 48.2716C53.6981 44.4974 52.4124 41.0235 50.2555 38.2628C51.2378 37.4432 52.3295 36.7769 53.512 36.2763C55.1152 35.5991 56.8186 35.255 58.5782 35.255C60.3378 35.255 62.0412 35.5991 63.6444 36.2763C64.8285 36.7769 65.9187 37.4432 66.9025 38.2628C64.7456 41.0235 63.4614 44.4974 63.4614 48.2716C63.4614 52.0459 64.7471 55.5198 66.9025 58.2805C65.9202 59.1001 64.8285 59.7664 63.6444 60.2669C62.0412 60.9442 60.3378 61.2883 58.5782 61.2883ZM88.9348 57.475C87.7383 58.6715 86.3462 59.61 84.7961 60.2654C83.1929 60.9426 81.4896 61.2868 79.7299 61.2868C77.9703 61.2868 76.2669 60.9426 74.6637 60.2654C73.4812 59.7649 72.3895 59.0985 71.4072 58.2789C73.5641 55.5182 74.8483 52.0443 74.8483 48.2701C74.8483 44.4958 73.5626 41.0219 71.4072 38.2612C72.3895 37.4416 73.4812 36.7753 74.6637 36.2748C76.2669 35.5975 77.9703 35.2534 79.7299 35.2534C81.4896 35.2534 83.1929 35.5975 84.7961 36.2748C86.3462 36.9301 87.7383 37.8686 88.9348 39.0652C90.1314 40.2617 91.0699 41.6538 91.7252 43.2039C92.4025 44.8071 92.7466 46.5104 92.7466 48.2701C92.7466 50.0297 92.4025 51.7331 91.7252 53.3363C91.0699 54.8863 90.1314 56.2784 88.9348 57.475Z" fill="white"/>
</svg>
