<svg width="96" height="96" viewBox="0 0 96 96" fill="none" xmlns="http://www.w3.org/2000/svg">
<path fill-rule="evenodd" clip-rule="evenodd" d="M73.4611 22.5427C66.6603 15.7468 57.6219 12 48.0044 12C38.3868 12 29.3441 15.7468 22.5433 22.5427C15.747 29.343 12 38.3852 12 48.0022C12 57.6192 15.747 66.657 22.5433 73.4573C29.3441 80.2576 38.3868 84 48 84C57.6132 84 66.6559 80.2532 73.4567 73.4573C80.2574 66.657 84 57.6148 84 48.0022C84 38.3896 80.253 29.343 73.4567 22.5471L73.4611 22.5427ZM48.0921 81.8853C38.6852 81.8853 30.1821 78.4018 24.0175 72.2376C21.815 70.0352 19.8537 67.6617 18.3313 65.0381C15.6329 60.3919 14.0227 55.0701 13.8296 49.2613C13.8033 48.4936 13.8208 47.3002 13.8384 46.4623C13.6717 46.4623 12.408 48.827 12.3817 50.7267H12.3773C12.3422 50.2704 12.3159 49.8098 12.2984 49.3447C12.1711 45.848 12.5397 42.4435 13.3601 39.2057C14.9528 32.8923 18.2698 27.2195 22.7495 22.7313C29.1949 16.2601 38.1543 12.272 48.0044 12.272C66.8446 12.272 82.3415 28.0487 82.3415 48.0724C82.3415 56.3863 79.1254 64.1255 73.7989 70.1581C66.5375 78.3799 56.7313 81.8853 48.0921 81.8853Z" fill="white"/>
<path fill-rule="evenodd" clip-rule="evenodd" d="M81.3938 46.8966C81.113 38.1044 77.3397 30.2687 71.6358 24.4292C67.2834 19.9717 59.1883 14.1191 48.0921 14.1191C47.8157 14.1191 47.5525 14.1235 47.5525 14.1235C38.9748 14.4657 31.2834 17.8 25.5356 22.9814C18.906 28.9569 14.8344 37.5429 14.8344 47.1949C14.8344 65.5119 27.6724 78.5817 45.2973 79.6873C46.1923 79.7443 47.0918 79.775 48.0044 79.775C59.3682 79.775 69.2841 73.8258 74.9309 64.8845C75.5846 64.7748 76.0717 64.4984 76.3042 64.3405C76.3349 64.0597 76.3656 63.4236 76.1068 62.8576C78.2347 58.852 79.5203 54.2497 79.7484 49.3666C79.8055 48.1338 79.7792 46.8176 79.687 45.598C79.9152 47.581 81.2139 49.8536 81.3762 49.8492C81.3938 48.8665 81.4069 47.6161 81.385 46.901L81.3938 46.8966ZM25.7331 25.7323C31.3711 20.0946 38.7729 16.8567 46.6925 16.5365L42.6516 44.7029C42.6296 44.8346 42.5814 44.9179 42.4804 45.0057L20.0863 62.6119C17.7477 58.1588 16.5104 53.1792 16.5104 48.0066C16.5104 39.5917 19.7879 31.6858 25.7375 25.7366L25.7331 25.7323ZM75.9225 62.6075L53.3835 44.9179C53.3221 44.8609 53.2958 44.8082 53.2782 44.6591L49.3075 16.5496C48.86 16.1504 48.623 15.8477 48 15.6985V47.3046C48 47.388 47.9956 47.4977 48.0263 47.5284C48.0658 47.5679 48.1931 47.524 48.294 47.4713C48.294 47.4713 51.2819 45.9489 52.2735 45.4839C52.5675 45.3523 52.6684 45.4181 52.9404 45.6155C55.766 47.7346 73.4479 60.9798 75.7689 62.7172C75.8567 62.783 75.8874 62.8488 75.962 63.1033C76.0102 63.2656 76.0936 63.7394 76.041 64.1782L48.6099 48.3532C48.6099 48.3532 48.5177 48.2961 48.4519 48.34C48.4124 48.3663 48.4037 48.4058 48.3993 48.5111C48.3422 49.5553 48.2413 51.8586 48.136 53.1178C48.1009 53.5653 48.1009 53.8505 48.0044 53.8505C47.9079 53.8505 47.9079 53.5609 47.8684 53.1178C47.7499 51.8323 47.6358 49.5246 47.5876 48.5067C47.5832 48.4146 47.5744 48.3839 47.5305 48.362C47.4647 48.3312 47.4208 48.3532 47.3243 48.4102C43.8011 50.4415 22.6442 62.6295 20.0249 64.1431C20.3803 64.4941 20.7883 64.6696 21.4026 64.867L48.0044 54.1839L74.615 64.8714C73.3865 66.8018 71.9342 68.605 70.2757 70.2634C64.3261 76.2125 56.4154 79.4899 48.0044 79.4899C39.5934 79.4899 31.6826 76.2125 25.7331 70.2634C24.9389 69.4693 23.8508 68.2408 22.9996 67.1396C22.0739 65.9419 21.4113 64.8845 21.4113 64.8845C20.604 64.8407 20.0029 64.5511 19.709 64.3317C19.63 63.7833 19.7835 63.2568 19.8932 62.9804C20.06 62.8532 39.5364 48.2961 42.7832 45.87C43.0903 45.6418 43.1781 45.5629 43.4984 45.712C44.6786 46.2517 47.5437 47.8618 47.6051 47.7697C47.6885 47.6468 44.0995 45.1855 43.8537 44.8872C43.6519 44.6415 43.7441 43.9615 43.766 43.7377C43.8757 42.8076 46.9163 16.2601 46.9294 16.1504C47.0216 16.0451 47.1356 15.9266 47.2717 15.8126C47.7631 15.4133 48.0044 15.3212 48.0044 15.3212C48.2852 15.4484 48.8951 15.7204 49.3119 16.5277C57.2358 16.848 64.6377 20.0858 70.2757 25.7235C76.2252 31.6727 79.5027 39.583 79.5027 47.9934C79.5027 53.166 78.2611 58.1456 75.9269 62.5987L75.9225 62.6075Z" fill="white"/>
</svg>
