<svg width="96" height="96" viewBox="0 0 96 96" fill="none" xmlns="http://www.w3.org/2000/svg">
<g clip-path="url(#clip0_3505_337)">
<path d="M81.7965 54.5986C81.9303 54.0384 82.3335 51.8439 82.3335 51.8439C68.7028 51.8439 48.478 51.8403 48.478 51.8403V54.5986H81.7947" fill="white"/>
<path d="M83.1312 47.207H48.48V50.9216H49.4256V48.1508H74.8653C74.7476 49.0625 74.6191 49.992 74.4818 50.9216H82.505C82.6602 49.9528 82.8814 48.7075 83.133 47.207H83.1312Z" fill="white"/>
<path d="M62.869 46.3399V40.7378H84.2142C83.8681 42.8609 83.5398 44.7378 83.274 46.3399H62.8672H62.869Z" fill="white"/>
<path d="M62.869 38.0474V36.0635H86.2481C85.7717 36.7307 85.3435 37.3534 84.8618 38.0474H62.8672H62.869Z" fill="white"/>
<path d="M48.478 44.5237V42.5398H61.9481V44.5237H48.478Z" fill="white"/>
<path d="M48.478 39.8849V34.3059H61.9481V39.8849H48.478Z" fill="white"/>
<path d="M75.1792 57.8706C66.073 59.8598 56.4174 61.6868 48.478 62.9678V55.4138H81.5485C81.2345 56.0525 80.9722 56.3683 79.4861 56.8161C78.0481 57.2033 77.47 57.3371 75.1792 57.8706ZM72.9972 56.3594H49.4236V61.7582C54.6475 60.9071 58.7403 60.1614 65.7769 58.7947C68.0927 58.3291 69.065 58.065 70.503 57.6814C71.734 57.3532 72.5583 56.8625 72.9972 56.3576V56.3594Z" fill="white"/>
<path d="M16.4978 56.8146C14.8493 56.2918 14.8671 56.0599 14.4568 55.4105H14.4604C22.0125 55.4087 25.6914 55.4087 33.2436 55.4087V57.3926H19.0277C17.8573 57.175 17.306 57.0358 16.4978 56.8146Z" fill="white"/>
<path d="M34.1641 60.5344C40.1498 61.7137 43.3826 62.331 47.5236 62.968V53.6709H34.1641V60.5344Z" fill="white"/>
<path d="M47.5236 48.9839V50.9678H34.1641V48.9839H47.5236Z" fill="white"/>
<path d="M13.8322 52.7627C13.6271 51.8349 13.3398 49.9562 12.8706 47.1516H33.2435V52.7538C25.4326 52.7538 21.6431 52.7627 13.8322 52.7627Z" fill="white"/>
<path d="M12.0999 42.5432H47.5182V46.2578H46.5726V43.487H20.6743C20.7618 44.4112 20.8617 45.3336 20.9705 46.2578H12.7207C12.5227 45.1248 12.3354 43.8974 12.0999 42.5432Z" fill="white"/>
<path d="M11.4915 38.9143H47.5182V41.6797H11.9571C11.809 40.7966 11.6538 39.8742 11.4915 38.9143Z" fill="white"/>
<path d="M8.53345 34.3059H47.5183V38.0204H46.5727V35.2497H17.9572C18.5103 36.1757 19.0152 37.1034 19.554 38.0204H11.1329C10.7814 37.5298 9.7074 35.9812 8.53345 34.3059Z" fill="white"/>
<path d="M48.0036 66.0794C56.3925 64.7663 73.083 61.3997 80.3836 59.6691C85.8662 58.3649 86.157 56.6646 86.7672 53.8725C86.9777 52.9073 88.8296 42.9215 89.5379 39.0464L96 29.9207H0L6.46209 39.0447C7.17038 42.9198 9.0223 52.9055 9.23283 53.8707C9.84121 56.6629 10.132 58.3631 15.6164 59.6673C22.917 61.3979 39.6111 64.7645 48 66.0777H48.0054L48.0036 66.0794ZM85.8055 38.9126C84.5299 46.4809 83.7431 51.3462 83.4166 53.0429C82.8492 55.9938 82.7493 57.2659 79.7021 58.0884C73.6396 59.5264 56.0749 63.1339 48.0018 64.3506C39.9286 63.1339 22.3604 59.5246 16.2979 58.0884C13.2507 57.2659 13.1508 55.9938 12.5834 53.0429C12.2569 51.3462 11.4719 46.4809 10.1945 38.9126L5.10259 31.637H90.8956L85.8055 38.9126Z" fill="white"/>
</g>
<defs>
<clipPath id="clip0_3505_337">
<rect width="96" height="36.1588" fill="white" transform="translate(0 29.9207)"/>
</clipPath>
</defs>
</svg>
