<?xml version="1.0" encoding="UTF-8" standalone="no"?>

<!-- Created with Inkscape (http://www.inkscape.org/) -->

<svg xmlns:svg="http://www.w3.org/2000/svg" xmlns="http://www.w3.org/2000/svg" version="1.0" width="383.429475768" height="260.804153879" viewBox="0 0 50.833 34.576" id="svg2">

  <defs id="defs4">

  <clipPath id="id65">

      <rect width="595" height="842" x="0" y="0" id="rect2324"/>

    </clipPath>

    </defs>

  <g transform="translate(-143.9435,-156.95118)" id="layer1">

    <g transform="translate(78.2805,110.65518)" id="g2328">

    <g transform="matrix(1,0,0,-1,0,842)" clip-path="url(#id65)" id="main">

      <path d="M 99.199,795.704 C 96.266,795.704 93.501,794.967 91.074,793.675 C 88.655,794.967 85.891,795.704 82.954,795.704 C 73.407,795.704 65.663,787.965 65.663,778.415 C 65.663,768.866 73.407,761.128 82.954,761.128 C 85.891,761.128 88.655,761.859 91.074,763.157 C 93.501,761.859 96.266,761.128 99.199,761.128 C 108.755,761.128 116.496,768.866 116.496,778.415 C 116.496,787.965 108.755,795.704 99.199,795.704" style="fill:#003063;fill-rule:nonzero;stroke:none" id="path2333"/>

      <path d="M 82.954,778.415 C 82.954,769.436 90.229,762.165 99.199,762.165 C 108.186,762.165 115.456,769.436 115.456,778.415 C 115.456,787.388 108.186,794.665 99.199,794.665 C 90.229,794.665 82.954,787.388 82.954,778.415" style="fill:#FFFFFF;fill-rule:nonzero;stroke:none" id="path2335"/>

      <path d="M 65.663,778.415 C 65.663,768.866 73.407,761.128 82.954,761.128 C 92.502,761.128 100.241,768.866 100.241,778.415 C 100.241,787.965 92.502,795.704 82.954,795.704 C 73.407,795.704 65.663,787.965 65.663,778.415" style="fill:#003063;fill-rule:nonzero;stroke:none" id="path2337"/>

      <path d="M 66.704,778.415 C 66.704,769.436 73.977,762.165 82.954,762.165 C 91.928,762.165 99.199,769.436 99.199,778.415 C 99.199,787.388 91.928,794.665 82.954,794.665 C 73.977,794.665 66.704,787.388 66.704,778.415" style="fill:#FFFFFF;fill-rule:nonzero;stroke:none" id="path2339"/>

      <path d="M 69.792,787.856 L 69.792,769.102 L 76.28,769.102 C 76.28,769.102 76.28,775.358 76.28,775.669 C 76.28,775.737 76.233,775.777 76.233,775.777 C 76.233,775.777 76.296,775.729 76.344,775.729 C 76.556,775.729 81.409,775.729 81.409,775.729 L 81.409,780.385 C 81.409,780.385 76.377,780.385 76.335,780.385 C 76.287,780.385 76.24,780.348 76.24,780.348 C 76.24,780.348 76.28,780.385 76.28,780.435 C 76.28,780.486 76.28,782.423 76.28,782.789 C 76.28,782.853 76.235,782.891 76.235,782.891 C 76.235,782.891 76.296,782.853 76.347,782.853 C 76.4,782.853 82.038,782.853 82.038,782.853 L 82.038,787.856 L 69.792,787.856" style="fill:#003063;fill-rule:nonzero;stroke:none" id="path2341"/>

      <path d="M 85.473,781.226 L 91.373,781.226 L 91.373,769.101 L 85.473,769.101 L 85.473,781.226 z " style="fill:#003063;fill-rule:nonzero;stroke:none" id="path2343"/>

      <path d="M 85.229,785.167 C 85.229,783.38 86.68,781.929 88.463,781.929 C 90.252,781.929 91.702,783.38 91.702,785.167 C 91.702,786.953 90.252,788.406 88.463,788.406 C 86.68,788.406 85.229,786.953 85.229,785.167" style="fill:#003063;fill-rule:nonzero;stroke:none" id="path2345"/>

      <path d="M 115.593,779.494 L 114.161,779.333 L 114.179,777.381 L 115.61,777.245 L 115.593,779.494" style="fill:#003063;fill-rule:nonzero;stroke:none" id="path2347"/>

      <path d="M 114.765,783.661 L 113.423,783.14 L 113.944,781.255 L 115.363,781.496 L 114.765,783.661" style="fill:#003063;fill-rule:nonzero;stroke:none" id="path2349"/>

      <path d="M 112.886,787.472 L 111.726,786.621 L 112.714,784.94 L 114.022,785.537 L 112.886,787.472" style="fill:#003063;fill-rule:nonzero;stroke:none" id="path2351"/>

      <path d="M 110.097,790.679 L 109.194,789.556 L 110.579,788.182 L 111.687,789.099 L 110.097,790.679" style="fill:#003063;fill-rule:nonzero;stroke:none" id="path2353"/>

      <path d="M 106.571,793.058 L 105.986,791.734 L 107.681,790.773 L 108.518,791.943 L 106.571,793.058" style="fill:#003063;fill-rule:nonzero;stroke:none" id="path2355"/>

      <path d="M 102.55,794.44 L 102.326,793.021 L 104.217,792.518 L 104.724,793.868 L 102.55,794.44" style="fill:#003063;fill-rule:nonzero;stroke:none" id="path2357"/>

      <path d="M 98.309,794.746 L 98.458,793.313 L 100.411,793.322 L 100.555,794.757 L 98.309,794.746" style="fill:#003063;fill-rule:nonzero;stroke:none" id="path2359"/>

      <path d="M 94.132,793.952 L 94.648,792.603 L 96.531,793.11 L 96.298,794.532 L 94.132,793.952" style="fill:#003063;fill-rule:nonzero;stroke:none" id="path2361"/>

      <path d="M 96.321,762.322 L 96.516,763.752 L 94.618,764.204 L 94.136,762.846 L 96.321,762.322" style="fill:#003063;fill-rule:nonzero;stroke:none" id="path2363"/>

      <path d="M 100.57,762.108 L 100.389,763.538 L 98.436,763.486 L 98.327,762.052 L 100.57,762.108" style="fill:#003063;fill-rule:nonzero;stroke:none" id="path2365"/>

      <path d="M 104.731,762.992 L 104.188,764.326 L 102.311,763.779 L 102.573,762.36 L 104.731,762.992" style="fill:#003063;fill-rule:nonzero;stroke:none" id="path2367"/>

      <path d="M 108.518,764.922 L 107.65,766.072 L 105.977,765.062 L 106.598,763.757 L 108.518,764.922" style="fill:#003063;fill-rule:nonzero;stroke:none" id="path2369"/>

      <path d="M 111.679,767.756 L 110.546,768.647 L 109.194,767.236 L 110.125,766.141 L 111.679,767.756" style="fill:#003063;fill-rule:nonzero;stroke:none" id="path2371"/>

      <path d="M 114.006,771.314 L 112.68,771.881 L 111.738,770.171 L 112.917,769.355 L 114.006,771.314" style="fill:#003063;fill-rule:nonzero;stroke:none" id="path2373"/>

      <path d="M 115.338,775.351 L 113.911,775.556 L 113.441,773.662 L 114.795,773.174 L 115.338,775.351" style="fill:#003063;fill-rule:nonzero;stroke:none" id="path2375"/>

      <path d="M 95.301,766.774 C 96.614,766.314 97.989,766.079 99.397,766.079 C 102.697,766.079 105.795,767.362 108.123,769.692 C 110.457,772.021 111.738,775.118 111.738,778.415 C 111.738,781.712 110.457,784.812 108.123,787.135 C 105.795,789.466 102.697,790.754 99.397,790.754 C 97.995,790.754 96.616,790.518 95.305,790.057 L 95.494,789.523 C 96.743,789.96 98.06,790.179 99.397,790.179 C 102.544,790.179 105.499,788.957 107.721,786.738 C 109.942,784.515 111.169,781.555 111.169,778.415 C 111.169,771.924 105.891,766.65 99.397,766.65 C 98.056,766.65 96.743,766.868 95.491,767.308 L 95.301,766.774" style="fill:#003063;fill-rule:nonzero;stroke:none" id="path2377"/>

      <path d="M 82.837,794.789 C 78.028,790.63 75.159,784.509 75.159,778.418 C 75.159,772.329 78.028,766.207 82.837,762.052 L 83.212,762.482 C 78.525,766.533 75.728,772.488 75.728,778.418 C 75.728,784.344 78.525,790.305 83.212,794.353 L 82.837,794.789" style="fill:#003063;fill-rule:nonzero;stroke:none" id="path2379"/>

      <path d="M 82.746,794.353 C 87.429,790.305 90.229,784.344 90.229,778.418 C 90.229,772.488 87.429,766.533 82.746,762.482 L 83.121,762.052 C 87.926,766.207 90.796,772.329 90.796,778.418 C 90.796,784.509 87.926,790.63 83.121,794.789 L 82.746,794.353" style="fill:#003063;fill-rule:nonzero;stroke:none" id="path2381"/>

      <path d="M 82.692,794.936 L 83.262,794.936 L 83.262,762.07 L 82.692,762.07 L 82.692,794.936 z " style="fill:#003063;fill-rule:nonzero;stroke:none" id="path2383"/>

      <path d="M 95.365,767.138 C 91.928,770.14 87.521,771.792 82.954,771.792 C 78.412,771.792 74.019,770.158 70.593,767.186 L 70.966,766.753 C 74.29,769.637 78.547,771.222 82.954,771.222 C 87.384,771.222 91.66,769.622 94.993,766.71 L 95.365,767.138" style="fill:#003063;fill-rule:nonzero;stroke:none" id="path2385"/>

      <path d="M 94.993,790.131 C 91.66,787.221 87.384,785.617 82.954,785.617 C 78.547,785.617 74.29,787.207 70.966,790.082 L 70.593,789.653 C 74.019,786.685 78.412,785.05 82.954,785.05 C 87.521,785.05 91.928,786.701 95.365,789.698 L 94.993,790.131" style="fill:#003063;fill-rule:nonzero;stroke:none" id="path2387"/>

      <path d="M 66.626,778.707 L 99.498,778.707 L 99.498,778.14 L 66.626,778.14 L 66.626,778.707 z " style="fill:#003063;fill-rule:nonzero;stroke:none" id="path2389"/>

      <path d="M 102.288,780.117 C 102.311,780.219 102.318,780.457 102.318,780.457 C 102.318,780.457 102.326,780.224 102.353,780.105 C 102.455,779.677 102.879,777.85 103.358,775.818 C 103.374,775.705 103.405,775.669 103.412,775.649 C 103.424,775.62 103.467,775.558 103.467,775.558 C 103.467,775.558 103.405,775.612 103.34,775.605 C 103.325,775.605 103.292,775.605 103.222,775.605 L 101.342,775.605 C 101.27,775.605 101.242,775.605 101.226,775.605 C 101.16,775.612 101.099,775.558 101.099,775.558 C 101.099,775.558 101.139,775.62 101.154,775.649 C 101.16,775.669 101.185,775.705 101.212,775.818 C 101.728,777.898 102.195,779.768 102.288,780.117 z M 100.095,771.237 C 100.129,771.37 100.11,771.394 100.103,771.419 C 100.087,771.45 100.048,771.505 100.048,771.505 C 100.048,771.505 100.11,771.457 100.174,771.457 C 100.192,771.457 100.222,771.457 100.289,771.457 L 104.24,771.457 C 104.307,771.457 104.345,771.457 104.356,771.457 C 104.423,771.457 104.486,771.51 104.486,771.51 C 104.486,771.51 104.443,771.45 104.425,771.419 C 104.423,771.394 104.402,771.37 104.437,771.241 C 104.724,770.001 104.925,769.102 104.925,769.102 L 111.594,769.102 L 106.369,787.69 L 98.656,787.69 L 92.903,769.102 L 99.552,769.102 C 99.552,769.102 99.981,770.783 100.095,771.237" style="fill:#003063;fill-rule:nonzero;stroke:none" id="path2391"/>

    </g>

  </g>

  </g>

</svg>