<svg width="400" height="225" viewBox="0 0 400 225" fill="none" xmlns="http://www.w3.org/2000/svg">
<path d="M177.992 193.07C173.4 187.205 170.937 179.463 170.644 170.026C170.372 161.203 171.609 150.253 174.326 137.481L184.324 90.4404C187.264 76.6048 190.754 64.9469 194.69 55.7838C198.937 45.8999 204.77 37.8313 212.025 31.8052C213.313 30.7352 214.648 29.7571 216.001 28.8204C213.323 27.5569 210.203 26.5507 206.613 25.8167C200.407 24.5514 192.669 23.915 183.4 23.915H121.854C112.172 23.915 103.64 24.7879 96.2493 26.5282C88.8566 28.2741 82.502 31.0825 77.178 34.9628C71.854 38.8451 67.4255 43.9532 63.9018 50.2871C60.3725 56.623 57.6504 64.3048 55.7319 73.3327C55.3601 75.0767 55.0072 76.8977 54.6731 78.7975C54.337 80.6973 54.0329 82.599 53.7682 84.4988H95.6861L96.1405 82.3606C97.723 74.9171 100.01 69.9273 103.002 67.393C105.994 64.8605 110.624 63.5915 116.896 63.5915H164.744C171.286 63.5915 175.762 64.6596 178.17 66.7979C180.579 68.9361 181.159 72.9385 179.914 78.7956C177.962 87.9831 173.03 92.5749 165.127 92.5749H118.914L110.532 132.013H155.108C161.243 132.013 165.416 133.201 167.643 135.578C169.861 137.955 170.368 141.993 169.156 147.694C168.146 152.445 166.289 155.89 163.586 158.028C160.881 160.167 157.077 161.235 152.168 161.235H98.5959C94.6405 161.235 91.3872 160.996 88.8303 160.521C86.2716 160.046 84.3267 159.097 82.9938 157.67C81.6609 156.245 80.9138 154.306 80.7542 151.848C80.5928 149.395 80.9363 146.186 81.7773 142.227C81.9463 141.437 82.1396 140.526 82.3574 139.496C82.5752 138.467 82.8699 137.397 83.2435 136.288H41.3256C40.7492 138.349 40.2273 140.327 39.7543 142.227C39.2812 144.129 38.8457 146.029 38.442 147.929C36.1198 158.858 35.2619 167.848 35.8795 174.894C36.4915 181.943 38.8325 187.449 42.8987 191.407C47.0644 195.527 52.884 198.14 60.3519 199.246C67.8159 200.352 77.0728 200.909 88.1132 200.909H151.5C163.152 200.909 173.013 199.396 181.093 196.374C179.995 195.345 178.946 194.258 177.99 193.062L177.992 193.07Z" fill="#EC1C24"/>
<path d="M312.227 23.9169C323.812 23.9169 333.349 24.5927 340.834 25.9368C348.318 27.2847 354.074 30.6526 358.112 36.0348C361.837 40.9458 363.847 47.6758 364.146 56.2287C364.439 64.7817 363.226 75.4728 360.498 88.3022L350.246 136.532C347.519 149.361 344.188 160.052 340.259 168.605C336.326 177.158 331.453 183.892 325.641 188.799C319.312 194.185 312.09 197.553 303.965 198.895C295.839 200.239 286.052 200.915 274.603 200.915H229.005C223.413 200.915 218.294 200.797 213.644 200.558C208.992 200.32 204.736 199.806 200.884 199.013C197.03 198.223 193.645 196.993 190.728 195.33C187.808 193.667 185.272 191.491 183.119 188.797C179.15 183.73 177.038 177 176.777 168.603C176.518 160.21 177.699 149.834 180.326 137.48L190.324 90.4386C193.185 76.9784 196.504 65.848 200.283 57.0585C204.058 48.2672 209.091 41.2593 215.386 36.0329C221.675 30.8047 228.857 27.48 236.931 26.0532C245.004 24.6284 254.833 23.915 266.422 23.915H312.226L312.227 23.9169ZM270.109 64.3067C264.383 64.3067 259.509 64.7817 255.492 65.7316C251.471 66.6815 248.06 68.463 245.255 71.0762C242.451 73.6894 240.072 77.3351 238.127 82.0058C236.179 86.6802 234.399 92.8152 232.783 100.418L227.38 125.84C225.865 132.968 225.112 138.752 225.125 143.183C225.134 147.619 226.022 151.142 227.787 153.756C229.548 156.369 232.236 158.15 235.852 159.1C239.464 160.05 244.067 160.525 249.659 160.525H271.128C276.854 160.525 281.725 160.05 285.745 159.1C289.762 158.15 293.175 156.369 295.98 153.756C298.786 151.142 301.15 147.542 303.083 142.946C305.011 138.354 306.736 132.494 308.251 125.365L313.806 99.2318C315.355 91.9479 316.13 86.0457 316.138 81.5327C316.142 77.0178 315.291 73.496 313.579 70.9598C311.869 68.4274 309.205 66.6834 305.591 65.7335C301.976 64.7835 297.307 64.3086 291.581 64.3086H270.112L270.109 64.3067Z" fill="#EC1C24"/>
</svg>
