<svg width="400" height="225" viewBox="0 0 400 225" fill="none" xmlns="http://www.w3.org/2000/svg">
<path d="M268.185 152.213V168.724H237.742V147.356L299.803 87.4837L302.81 84.5657V46.3296L301.208 44.8172L282.829 27.2027L278.932 24H226.925L225.43 25.4234L205.734 44.3191L204.132 45.8314V72.0398H237.742V60.0299L240.305 57.7346H265.677L268.185 59.9943V70.5808L204.933 132.961L203.385 134.474L203.403 136.644L203.456 201H302.81V152.213H268.185Z" fill="#004A9B"/>
<path d="M162.818 152.213V168.724H132.357V147.356L194.418 87.4837L197.425 84.5657V46.3296L195.841 44.8172L177.426 27.1671L173.494 24H121.54L120.045 25.4234L100.349 44.3191L98.7473 45.8314V72.0398H132.357V60.0299L134.902 57.7346H160.292L162.818 59.9943V70.5808L99.5479 132.961L98 134.474L98.0534 195.84L98.0712 201H197.425V152.213H162.818Z" fill="#004A9B"/>
<path d="M273.345 157.373V173.884H232.583V145.167L297.65 82.3773L297.579 82.3061H297.65V48.5359L277.438 29.1954L277.455 29.1598H229.006L209.31 48.0377V66.88H232.583V57.7346L238.33 52.5748H267.652L273.345 57.699V72.7337L208.563 136.627L208.598 195.84H297.65V157.373H273.345Z" fill="white"/>
<path d="M167.96 157.373V173.884H127.18V145.167L192.265 82.3773L192.176 82.3061H192.265V48.5359L172.052 29.1954V29.1598H123.621L103.907 48.0377V66.88H127.198V57.7346L132.927 52.5748H162.267L167.96 57.699V72.7337L103.16 136.627L103.213 195.84H192.265V157.373H167.96Z" fill="white"/>
</svg>
