<?xml version="1.0" encoding="UTF-8"?>
<!DOCTYPE svg PUBLIC "-//W3C//DTD SVG 1.1//EN" "http://www.w3.org/Graphics/SVG/1.1/DTD/svg11.dtd">
<!-- Creator: CorelDRAW X6 -->
<svg xmlns="http://www.w3.org/2000/svg" xml:space="preserve" width="2627px" height="937px" version="1.1" style="shape-rendering:geometricPrecision; text-rendering:geometricPrecision; image-rendering:optimizeQuality; fill-rule:evenodd; clip-rule:evenodd"
viewBox="0 0 2629 938"
 xmlns:xlink="http://www.w3.org/1999/xlink">
 <defs>
  <style type="text/css">
   <![CDATA[
    .fil0 {fill:white;fill-rule:nonzero}
   ]]>
  </style>
 </defs>
 <g id="Layer_x0020_1">
  <metadata id="CorelCorpID_0Corel-Layer"/>
  <path class="fil0" d="M957 384c0,35 -16,56 -58,56l-101 0c-41,0 -57,-21 -57,-56l0 -213c0,-35 16,-52 57,-52l101 0c42,0 58,17 58,52l0 213zm-730 347c-2,0 -48,0 -48,0l0 0c-5,0 -6,1 -7,4l-51 132c0,2 -3,8 -3,8 -1,2 -2,3 -3,3 -1,0 -2,-1 -3,-3 0,0 -3,-6 -3,-8l-51 -132c-1,-3 -3,-4 -7,-4l-47 0c-3,0 -4,1 -4,2l0 200c0,2 1,3 4,3l33 0c3,0 4,-1 4,-3l0 -139c0,-3 3,-3 4,-1l53 139c0,1 1,2 2,3 1,1 2,1 5,1 0,0 0,0 0,0l20 0c0,0 0,0 0,0 2,0 4,0 5,-1 1,-1 2,-2 2,-3l53 -139c0,-2 4,-2 4,1 0,0 0,137 0,139 0,2 1,3 4,3l0 0c0,0 31,0 33,0 3,0 4,-1 4,-3 0,-1 0,-198 0,-200 0,-1 -1,-2 -3,-2zm1481 101c-2,0 -3,-2 -3,-4l0 -65 32 0 0 0 32 0c20,0 29,9 29,29l0 10c0,19 -9,30 -29,30l-61 0zm69 -102l-106 0c-2,0 -4,2 -4,4l0 199c0,2 2,3 4,3l30 0c2,0 4,-1 4,-3l0 -65c0,-2 1,-3 3,-3 0,0 34,0 52,0 1,0 2,0 2,0l0 0 15 0c35,0 54,-20 57,-49 0,-2 0,-4 0,-6l0 -25c0,-33 -20,-55 -57,-55zm-1015 0l-158 0c-2,0 -4,2 -4,4l0 26c0,2 2,3 4,3l60 0 0 170c0,2 2,3 4,3l30 0c2,0 4,-1 4,-3l0 -170 60 0c2,0 4,-1 4,-3l0 -26c0,-2 -2,-4 -4,-4zm1301 84l0 61c0,19 -9,28 -29,28l-39 0c-20,0 -29,-9 -29,-28l0 -83c0,-20 9,-28 29,-28l39 0c20,0 29,8 29,28l0 22zm-20 -84l-57 0c-38,0 -58,22 -58,55l0 97c0,32 20,54 58,54l57 0c37,0 57,-22 57,-54l0 -97c0,-33 -20,-55 -57,-55zm-1051 84l0 61c0,19 -8,28 -29,28l-38 0c-21,0 -29,-9 -29,-28l0 -83c0,-20 8,-28 29,-28l38 0c21,0 29,8 29,28l0 22zm-19 -84l-58 0c-37,0 -57,22 -57,55l0 97c0,32 20,54 57,54l58 0c37,0 57,-22 57,-54l0 -97c0,-33 -20,-55 -57,-55zm-504 84l0 61c0,19 -9,28 -29,28l-39 0c-20,0 -29,-9 -29,-28l0 -83c0,-20 9,-28 29,-28l39 0c20,0 29,8 29,28l0 22zm-20 -84l-58 0c-37,0 -57,22 -57,55l0 97c0,32 20,54 57,54l58 0c37,0 57,-22 57,-54l0 -97c0,-33 -20,-55 -57,-55zm1888 72c0,19 -8,30 -28,30l-61 0c-2,0 -4,-2 -4,-4l0 -65 32 0 0 0 33 0c20,0 28,9 28,29l0 10zm5 61c-1,-2 0,-4 2,-5 20,-7 30,-24 30,-48l0 -25c0,-33 -20,-55 -57,-55l-107 0c-2,0 -3,2 -3,4l0 199c0,2 1,3 3,3l31 0c2,0 3,-1 3,-3l0 -65c0,-2 2,-3 4,-3l52 0c1,0 2,0 3,1l35 68c0,2 1,2 3,2l32 0c3,0 5,-2 3,-5l-34 -68zm-812 -47c-14,-3 -74,-14 -74,-14 -12,-2 -15,-4 -15,-13l0 -6c0,-17 4,-19 24,-19l86 0c2,0 4,-1 4,-3l0 -25c0,-2 -1,-4 -3,-4 -11,-1 -46,-3 -86,-3 -47,0 -64,14 -64,50l0 18c0,31 16,34 47,40 10,2 54,9 68,12 11,2 13,8 13,15l0 16c0,19 -7,22 -31,22l-93 0c-2,0 -3,2 -3,4l-1 25c0,2 2,4 4,4 12,0 57,3 98,3 48,0 63,-15 63,-52l0 -27c0,-26 -8,-37 -37,-43zm-264 -14c0,19 -8,30 -29,30l-60 0c-2,0 -4,-2 -4,-4l0 -65 32 0 0 0 32 0c21,0 29,9 29,29l0 10zm5 61c-1,-2 0,-4 2,-5 19,-7 29,-24 29,-48l0 -25c0,-33 -20,-55 -57,-55l-106 0c-2,0 -4,2 -4,4l0 199c0,2 2,3 4,3l31 0c2,0 3,-1 3,-3l0 -65c0,-2 2,-3 4,-3l51 0c2,0 3,0 4,1l34 68c1,2 2,2 4,2l32 0c3,0 4,-2 3,-5l-34 -68zm1354 -133l-158 0c-2,0 -4,2 -4,4l0 26c0,2 2,3 4,3l60 0 0 170c0,2 2,3 4,3l30 0c2,0 4,-1 4,-3l0 -170 60 0c2,0 4,-1 4,-3l0 -26c0,-2 -2,-4 -4,-4zm-651 -729l-124 0c-5,0 -10,4 -10,10l0 539c0,5 5,10 10,10l124 0c6,0 11,-5 11,-10l0 -539c0,-6 -5,-10 -11,-10zm532 559l108 0c6,0 10,-5 10,-10l0 -539c0,-6 -4,-10 -10,-10l-124 0c-6,0 -11,4 -11,10l0 305 -4 0c-26,-41 -206,-292 -210,-300 -9,-12 -8,-15 -40,-15l-105 0c-6,0 -10,4 -10,10l0 539c0,5 4,10 10,10l124 0c6,0 10,-5 10,-10l0 -302 5 0 202 289c14,19 21,23 45,23zm-2099 -198c53,-23 80,-70 80,-130l0 -83c0,-83 -55,-148 -163,-148l-313 0c-6,0 -10,4 -10,10l0 98c0,5 4,10 10,10l276 0c42,0 58,20 58,56l0 34c0,35 -16,58 -58,58l-142 0 0 -87c0,-6 -4,-11 -10,-11l-124 0c-6,0 -10,5 -10,11l0 370c0,5 4,10 10,10l124 0c6,0 10,-5 10,-10l0 -169 118 0 80 173c2,4 5,6 9,6l130 0c7,0 12,-8 9,-14l-84 -184zm1308 46l0 -256c0,-83 -61,-151 -169,-151l-318 0c-6,0 -11,4 -11,10l0 539c0,5 5,10 11,10l125 0c5,0 10,-5 10,-10l-1 -431 145 0c42,0 63,15 63,62l0 199c0,46 -21,62 -63,62l-83 0c-6,0 -11,4 -11,10l0 98c0,5 5,10 11,10l122 0c108,0 169,-69 169,-152zm-774 -408l-184 0c-106,1 -161,67 -161,149l0 262c0,84 55,150 163,150l180 0c108,0 163,-66 163,-150l0 -262c0,-82 -54,-148 -161,-149z"/>
 </g>
</svg>
